M48
METRIC,LZ,000.000
;FILE_FORMAT=3:3
;TYPE=PLATED
;Layer: PTH_Through
;EasyEDA v6.5.51, 2025-10-23 01:57:06
;64fcacbd124c4bd19f57d9140681f8df,69758d36ea3442baaf275648ad48867e,10
;Gerber Generator version 0.2
;Holesize 1 = 0.306 mm
T01C0.306
;Holesize 2 = 0.600 mm
T02C0.600
;Holesize 3 = 0.800 mm
T03C0.800
;Holesize 4 = 0.889 mm
T04C0.889
;Holesize 5 = 0.915 mm
T05C0.915
;Holesize 6 = 1.016 mm
T06C1.016
;Holesize 7 = 1.200 mm
T07C1.200
;Holesize 8 = 1.270 mm
T08C1.270
%
G05
G90
T01
X055713Y-001096
X051650Y012215
X056818Y007410
X025617Y001484
X025763Y002287
X083385Y006211
X080167Y008610
X044350Y019111
X027333Y008035
T02
X032131Y010157G85X032131Y010163
X034671Y010157G85X034671Y010163
X037211Y010157G85X037211Y010163
X039751Y010157G85X039751Y010163
X042291Y010157G85X042291Y010163
T03
X035901Y019431
X030901Y019431
X030901Y024638
X035901Y024638
T04
X092202Y-004423
X094742Y-004423
X097282Y-004423
X099822Y-004423
X045212Y009906
X047752Y009906
X050292Y009906
X052832Y009906
X055753Y011049
X058293Y011049
X090170Y-012446
X092710Y-012446
X068326Y-002032
X070866Y-002032
X076200Y-002032
X078740Y-002032
X084201Y-001905
X086741Y-001905
X102616Y000889
T05
X098067Y020701
X085067Y020701
X076454Y-012446
X076454Y-009906
X078994Y-012446
X078994Y-009906
X073406Y-002032
X081280Y-002032
X089281Y-001905
X082827Y004953
X069827Y004953
X098194Y004953
X085194Y004953
X082700Y010160
X069700Y010160
X098194Y010160
X085194Y010160
X102870Y003914
X102870Y016914
X069700Y015240
X082700Y015240
X098194Y015240
X085194Y015240
X051966Y020574
X038966Y020574
X067460Y020574
X054460Y020574
X069700Y020701
X082700Y020701
X042418Y-014732
X039878Y-014732
X037338Y-014732
X034798Y-014732
X032258Y-014732
X029718Y-014732
X027178Y-014732
T06
X008509Y-015494
X008509Y-012954
X008509Y-010414
X008509Y-007874
X008509Y-005334
X008509Y-002794
X008509Y-000254
X008509Y002286
X008509Y004826
X008509Y007366
X008509Y009906
X008509Y012446
X022479Y014986
X019939Y014986
X017399Y014986
X014859Y014986
X012319Y014986
X009779Y014986
X023749Y012446
X023749Y009906
X023749Y007366
X023749Y004826
X023749Y002286
X023749Y-000254
X023749Y-002794
X023749Y-005334
X023749Y-007874
X023749Y-010414
X023749Y-012954
X023749Y-015494
X020828Y001143
X020828Y003683
X020828Y-009271
X020828Y-006731
T07
X019991Y023840
X026491Y023840
X026491Y019340
X019991Y019340
X015442Y019340
X008942Y019340
X008942Y023840
X015442Y023840
T08
X049911Y-015240
X065151Y-015240
X049911Y002794
X065151Y002794
M30
