G04 Layer: TopSilkscreenLayer*
G04 EasyEDA v6.5.51, 2025-10-23 01:57:06*
G04 64fcacbd124c4bd19f57d9140681f8df,69758d36ea3442baaf275648ad48867e,10*
G04 Gerber Generator version 0.2*
G04 Scale: 100 percent, Rotated: No, Reflected: No *
G04 Dimensions in millimeters *
G04 leading zeros omitted , absolute positions ,4 integer and 5 decimal *
%FSLAX45Y45*%
%MOMM*%

%ADD10C,0.2032*%
%ADD11C,0.1030*%
%ADD12C,0.2030*%
%ADD13C,0.1524*%
%ADD14C,0.1016*%
%ADD15C,0.0126*%
%ADD16C,0.2540*%
%ADD17C,0.2030*%
%ADD18C,0.2032*%
%ADD19C,0.1000*%
%ADD20C,0.1270*%

%LPD*%
G36*
X10566247Y2647137D02*
G01*
X10563453Y2645054D01*
X10558373Y2639669D01*
X10551414Y2632811D01*
X10544454Y2625496D01*
X10540390Y2620010D01*
X10537748Y2617368D01*
X10536936Y2617368D01*
X10531703Y2611526D01*
X10527284Y2605989D01*
X10526471Y2605633D01*
X10523016Y2600248D01*
X10518851Y2592933D01*
X10517733Y2589225D01*
X10515244Y2582722D01*
X10514279Y2577134D01*
X10513110Y2575712D01*
X10512094Y2571800D01*
X10511282Y2571343D01*
X10510672Y2567482D01*
X10507472Y2560828D01*
X10506862Y2557576D01*
X10505694Y2556205D01*
X10505033Y2552496D01*
X10501985Y2547264D01*
X10501274Y2545029D01*
X10499547Y2541778D01*
X10499547Y2540711D01*
X10496550Y2534818D01*
X10495432Y2530602D01*
X10491978Y2520391D01*
X10490250Y2516022D01*
X10490250Y2513736D01*
X10488879Y2512618D01*
X10486542Y2507640D01*
X10486542Y2504236D01*
X10488232Y2501544D01*
X10493044Y2501544D01*
X10493044Y2504998D01*
X10494873Y2511958D01*
X10494873Y2515666D01*
X10497312Y2521712D01*
X10498531Y2523642D01*
X10499191Y2526690D01*
X10500461Y2529230D01*
X10500461Y2531364D01*
X10504220Y2540000D01*
X10504220Y2541879D01*
X10506049Y2543556D01*
X10506049Y2545537D01*
X10507421Y2547366D01*
X10508488Y2551074D01*
X10509656Y2552446D01*
X10513822Y2564739D01*
X10514990Y2566162D01*
X10516209Y2570632D01*
X10518241Y2575712D01*
X10519511Y2580182D01*
X10520172Y2581300D01*
X10521340Y2586888D01*
X10522813Y2590952D01*
X10530027Y2602839D01*
X10541355Y2614828D01*
X10546740Y2621280D01*
X10552328Y2626817D01*
X10554512Y2628188D01*
X10556290Y2631744D01*
X10560151Y2634792D01*
X10562183Y2637790D01*
X10566247Y2642514D01*
X10567619Y2642260D01*
X10570108Y2637586D01*
X10570311Y2625953D01*
X10572597Y2607818D01*
X10573512Y2603652D01*
X10575747Y2587802D01*
X10576915Y2575610D01*
X10575747Y2551531D01*
X10576966Y2545943D01*
X10577626Y2530144D01*
X10578642Y2515260D01*
X10579506Y2506218D01*
X10577779Y2498648D01*
X10574731Y2495499D01*
X10570006Y2493010D01*
X10566755Y2490927D01*
X10563809Y2490317D01*
X10562742Y2489047D01*
X10559897Y2488387D01*
X10551922Y2483408D01*
X10550956Y2483408D01*
X10547908Y2480564D01*
X10547908Y2477922D01*
X10551160Y2474671D01*
X10551160Y2474163D01*
X10548467Y2473248D01*
X10546892Y2470861D01*
X10548670Y2467813D01*
X10552125Y2467254D01*
X10552582Y2466797D01*
X10552023Y2465273D01*
X10550601Y2465273D01*
X10547908Y2462377D01*
X10547908Y2459685D01*
X10552785Y2456434D01*
X10554004Y2456434D01*
X10553547Y2455621D01*
X10550499Y2455011D01*
X10545114Y2449677D01*
X10524896Y2449677D01*
X10510012Y2450134D01*
X10509808Y2455265D01*
X10509351Y2456383D01*
X10505541Y2458313D01*
X10500055Y2458059D01*
X10498988Y2459126D01*
X10499598Y2460142D01*
X10501274Y2460142D01*
X10503966Y2461107D01*
X10505694Y2463495D01*
X10502595Y2466644D01*
X10500461Y2466644D01*
X10500461Y2467559D01*
X10502747Y2467559D01*
X10507218Y2469083D01*
X10508843Y2470505D01*
X10508843Y2473096D01*
X10506964Y2476347D01*
X10510012Y2478227D01*
X10512501Y2479243D01*
X10513568Y2481935D01*
X10512501Y2486609D01*
X10510469Y2487218D01*
X10503509Y2493670D01*
X10499293Y2496566D01*
X10498378Y2497582D01*
X10493044Y2501544D01*
X10488232Y2501544D01*
X10489438Y2499715D01*
X10493248Y2497124D01*
X10497769Y2493416D01*
X10506506Y2484577D01*
X10506506Y2483408D01*
X10500512Y2483408D01*
X10495127Y2485390D01*
X10488676Y2492248D01*
X10487507Y2492248D01*
X10486542Y2490419D01*
X10486542Y2487269D01*
X10484205Y2486202D01*
X10483697Y2484069D01*
X10485069Y2481427D01*
X10486931Y2479649D01*
X10491114Y2479649D01*
X10491673Y2480614D01*
X10492028Y2480614D01*
X10492638Y2479649D01*
X10486931Y2479649D01*
X10488794Y2477871D01*
X10498582Y2477871D01*
X10499140Y2478735D01*
X10500969Y2478735D01*
X10504830Y2476754D01*
X10503255Y2475890D01*
X10501426Y2476500D01*
X10501426Y2477262D01*
X10498582Y2477871D01*
X10488794Y2477871D01*
X10491774Y2475026D01*
X10493959Y2475026D01*
X10493959Y2474214D01*
X10490504Y2473553D01*
X10486999Y2471724D01*
X10486999Y2469540D01*
X10489844Y2467102D01*
X10491571Y2467102D01*
X10494416Y2465476D01*
X10494416Y2464714D01*
X10493451Y2462936D01*
X10491419Y2462885D01*
X10484612Y2459177D01*
X10482884Y2459177D01*
X10479532Y2456230D01*
X10479532Y2455062D01*
X10481716Y2452573D01*
X10491419Y2453944D01*
X10502341Y2453843D01*
X10503814Y2452319D01*
X10503204Y2450388D01*
X10501274Y2449322D01*
X10487660Y2447594D01*
X10483291Y2447594D01*
X10478820Y2446680D01*
X10469524Y2445766D01*
X10468660Y2446629D01*
X10470692Y2448560D01*
X10470692Y2453030D01*
X10469372Y2454148D01*
X10466273Y2454148D01*
X10459770Y2453538D01*
X10453979Y2461564D01*
X10453979Y2463342D01*
X10452150Y2465019D01*
X10451541Y2467559D01*
X10450220Y2468626D01*
X10450220Y2469794D01*
X10446766Y2474315D01*
X10444073Y2478887D01*
X10438384Y2484628D01*
X10433710Y2487269D01*
X10429189Y2490622D01*
X10424515Y2495143D01*
X10420858Y2501747D01*
X10417657Y2508300D01*
X10414965Y2512466D01*
X10414406Y2515057D01*
X10411053Y2519883D01*
X10405364Y2525369D01*
X10402570Y2526792D01*
X10399318Y2529230D01*
X10392308Y2533192D01*
X10389768Y2534056D01*
X10388752Y2536647D01*
X10389158Y2541778D01*
X10390784Y2545943D01*
X10390733Y2556408D01*
X10387888Y2561285D01*
X10386415Y2564587D01*
X10385602Y2565044D01*
X10383316Y2568448D01*
X10382707Y2570378D01*
X10381996Y2570378D01*
X10378287Y2576220D01*
X10375138Y2581757D01*
X10373918Y2583027D01*
X10373918Y2584399D01*
X10371480Y2589682D01*
X10369143Y2593187D01*
X10366959Y2593187D01*
X10364368Y2590139D01*
X10361980Y2585974D01*
X10359898Y2579471D01*
X10358424Y2576677D01*
X10358018Y2557576D01*
X10357561Y2557119D01*
X10351871Y2563977D01*
X10349331Y2569667D01*
X10349280Y2571140D01*
X10346944Y2575255D01*
X10345623Y2578201D01*
X10342778Y2580538D01*
X10340289Y2579878D01*
X10337698Y2575255D01*
X10337647Y2571445D01*
X10336276Y2570276D01*
X10335717Y2566873D01*
X10334345Y2564739D01*
X10333837Y2559913D01*
X10332466Y2557729D01*
X10331704Y2550160D01*
X10330129Y2545943D01*
X10330688Y2540965D01*
X10332059Y2538984D01*
X10332059Y2537104D01*
X10333532Y2534310D01*
X10335463Y2528722D01*
X10335615Y2515260D01*
X10337139Y2511755D01*
X10337596Y2505964D01*
X10335564Y2502255D01*
X10334498Y2501544D01*
X10330738Y2494330D01*
X10329164Y2487828D01*
X10328503Y2483612D01*
X10326420Y2475788D01*
X10327081Y2468727D01*
X10327379Y2468168D01*
X10331145Y2468168D01*
X10331145Y2472537D01*
X10331754Y2473147D01*
X10333837Y2473147D01*
X10335310Y2472588D01*
X10335310Y2470912D01*
X10333482Y2466594D01*
X10331145Y2468168D01*
X10327379Y2468168D01*
X10327894Y2467152D01*
X10328859Y2460091D01*
X10326827Y2455875D01*
X10324693Y2444089D01*
X10324642Y2440025D01*
X10323169Y2436977D01*
X10323436Y2430119D01*
X10328249Y2430119D01*
X10328249Y2434793D01*
X10329621Y2447798D01*
X10330637Y2450287D01*
X10331246Y2455926D01*
X10332516Y2456992D01*
X10333482Y2460548D01*
X10337952Y2465476D01*
X10340035Y2469845D01*
X10340949Y2474772D01*
X10341508Y2480614D01*
X10340238Y2486202D01*
X10337139Y2488590D01*
X10334650Y2489301D01*
X10334904Y2493873D01*
X10336733Y2496362D01*
X10336733Y2497124D01*
X10339070Y2499664D01*
X10341356Y2499664D01*
X10342321Y2501493D01*
X10342321Y2505303D01*
X10340340Y2509570D01*
X10341356Y2511704D01*
X10339882Y2514650D01*
X10339679Y2527808D01*
X10338562Y2532024D01*
X10334853Y2540152D01*
X10334904Y2548280D01*
X10336174Y2552547D01*
X10336834Y2558745D01*
X10338104Y2559761D01*
X10338714Y2564079D01*
X10339882Y2565958D01*
X10340543Y2569616D01*
X10342676Y2573680D01*
X10345115Y2571445D01*
X10345115Y2569210D01*
X10346537Y2567127D01*
X10347909Y2562606D01*
X10350398Y2560116D01*
X10351363Y2558389D01*
X10354310Y2554173D01*
X10354970Y2551988D01*
X10356342Y2550464D01*
X10355681Y2544165D01*
X10355376Y2537612D01*
X10353903Y2528265D01*
X10354360Y2526538D01*
X10352989Y2523896D01*
X10352989Y2513584D01*
X10355376Y2512517D01*
X10356951Y2514092D01*
X10357612Y2530144D01*
X10359034Y2535224D01*
X10359034Y2538323D01*
X10360355Y2541422D01*
X10360964Y2549702D01*
X10362336Y2554478D01*
X10362234Y2572461D01*
X10362946Y2575255D01*
X10364622Y2578049D01*
X10364622Y2580690D01*
X10365943Y2583180D01*
X10366959Y2585720D01*
X10369042Y2584958D01*
X10369651Y2582722D01*
X10373055Y2577592D01*
X10375544Y2572461D01*
X10376204Y2572004D01*
X10379049Y2567838D01*
X10379049Y2567076D01*
X10381132Y2564079D01*
X10381843Y2563571D01*
X10384078Y2558034D01*
X10384688Y2555087D01*
X10386009Y2554020D01*
X10386618Y2550718D01*
X10385450Y2539441D01*
X10384586Y2538323D01*
X10385145Y2535580D01*
X10384180Y2534970D01*
X10384180Y2532888D01*
X10386263Y2530957D01*
X10395407Y2526538D01*
X10395915Y2525268D01*
X10396982Y2525217D01*
X10399318Y2522778D01*
X10403027Y2521102D01*
X10408412Y2515666D01*
X10411968Y2508605D01*
X10412577Y2505303D01*
X10413949Y2502712D01*
X10413949Y2500782D01*
X10417657Y2496667D01*
X10417657Y2495905D01*
X10420248Y2492451D01*
X10426293Y2486304D01*
X10433710Y2482240D01*
X10440009Y2475890D01*
X10440009Y2475230D01*
X10443718Y2471572D01*
X10443718Y2470353D01*
X10445597Y2468778D01*
X10445597Y2466949D01*
X10449204Y2461310D01*
X10449864Y2458974D01*
X10451033Y2457551D01*
X10453268Y2453386D01*
X10456062Y2450490D01*
X10458094Y2449423D01*
X10460685Y2449474D01*
X10463022Y2450795D01*
X10464596Y2450846D01*
X10466070Y2449372D01*
X10466070Y2448255D01*
X10460482Y2442413D01*
X10460482Y2441194D01*
X10458145Y2440127D01*
X10458145Y2439314D01*
X10455402Y2438196D01*
X10454894Y2436876D01*
X10450423Y2436876D01*
X10448493Y2435504D01*
X10441127Y2434590D01*
X10433253Y2431643D01*
X10427665Y2431034D01*
X10425328Y2429560D01*
X10422331Y2429002D01*
X10418775Y2426766D01*
X10416997Y2426411D01*
X10416082Y2423820D01*
X10419130Y2421077D01*
X10418622Y2420264D01*
X10411358Y2419705D01*
X10408056Y2418334D01*
X10406176Y2418791D01*
X10399776Y2415895D01*
X10397286Y2414524D01*
X10395000Y2414524D01*
X10392613Y2412695D01*
X10391292Y2412695D01*
X10389057Y2410968D01*
X10385348Y2409037D01*
X10379252Y2407107D01*
X10377068Y2407107D01*
X10367213Y2402433D01*
X10360456Y2398217D01*
X10357408Y2397201D01*
X10356037Y2396032D01*
X10350296Y2393137D01*
X10347858Y2394051D01*
X10345928Y2394051D01*
X10342676Y2396947D01*
X10334853Y2406345D01*
X10334853Y2408021D01*
X10333024Y2408986D01*
X10333024Y2411069D01*
X10331297Y2413863D01*
X10330586Y2418384D01*
X10329316Y2421280D01*
X10328249Y2430119D01*
X10323436Y2430119D01*
X10323525Y2427325D01*
X10324744Y2421737D01*
X10326116Y2417572D01*
X10326928Y2412187D01*
X10328300Y2410104D01*
X10328960Y2406446D01*
X10331043Y2401773D01*
X10333532Y2398115D01*
X10329316Y2394051D01*
X10327995Y2394051D01*
X10325658Y2392222D01*
X10324490Y2392222D01*
X10322814Y2393696D01*
X10320680Y2393137D01*
X10315702Y2388260D01*
X10306812Y2378710D01*
X10305694Y2376627D01*
X10302798Y2373579D01*
X10302240Y2371801D01*
X10300614Y2371293D01*
X10296042Y2364994D01*
X10293451Y2361946D01*
X10293451Y2360980D01*
X10289743Y2356561D01*
X10289743Y2355291D01*
X10288168Y2353614D01*
X10283494Y2346299D01*
X10278364Y2339441D01*
X10276027Y2335225D01*
X10272522Y2330704D01*
X10272522Y2329535D01*
X10271252Y2328468D01*
X10270642Y2325928D01*
X10266934Y2317902D01*
X10266934Y2316378D01*
X10265105Y2312924D01*
X10265105Y2311857D01*
X10263225Y2307793D01*
X10263225Y2303322D01*
X10261854Y2301189D01*
X10261295Y2296617D01*
X10259923Y2292197D01*
X10258929Y2284679D01*
X10267391Y2284679D01*
X10268000Y2286152D01*
X10268813Y2286152D01*
X10268813Y2283815D01*
X10267950Y2283815D01*
X10267391Y2284679D01*
X10258929Y2284679D01*
X10258602Y2282190D01*
X10258030Y2279802D01*
X10267899Y2279802D01*
X10268508Y2279192D01*
X10267899Y2278532D01*
X10267899Y2279802D01*
X10258030Y2279802D01*
X10257434Y2277516D01*
X10255554Y2275179D01*
X10252202Y2273147D01*
X10247122Y2273147D01*
X10241584Y2271166D01*
X10235996Y2270658D01*
X10234168Y2269490D01*
X10230916Y2268829D01*
X10217302Y2262428D01*
X10209631Y2256383D01*
X10205212Y2256383D01*
X10202976Y2254656D01*
X10200640Y2254046D01*
X10195915Y2248255D01*
X10194785Y2246020D01*
X10200995Y2246020D01*
X10202976Y2249271D01*
X10205821Y2251659D01*
X10208107Y2252065D01*
X10210901Y2252167D01*
X10214152Y2251303D01*
X10219740Y2249424D01*
X10226802Y2246071D01*
X10231374Y2241143D01*
X10233456Y2237689D01*
X10233456Y2232609D01*
X10229189Y2230780D01*
X10227462Y2230780D01*
X10226497Y2232609D01*
X10226497Y2234539D01*
X10224719Y2237994D01*
X10221925Y2239619D01*
X10215270Y2239619D01*
X10208615Y2236774D01*
X10206685Y2237282D01*
X10204399Y2242464D01*
X10200995Y2246020D01*
X10194785Y2246020D01*
X10194391Y2245258D01*
X10194391Y2244039D01*
X10192867Y2241245D01*
X10192766Y2232355D01*
X10193934Y2230882D01*
X10194493Y2224735D01*
X10193426Y2224735D01*
X10192308Y2222195D01*
X10190683Y2219960D01*
X10190683Y2218283D01*
X10188905Y2215235D01*
X10188346Y2208784D01*
X10188092Y2208530D01*
X10179253Y2211679D01*
X10174122Y2211730D01*
X10169601Y2213102D01*
X10165181Y2213102D01*
X10164013Y2211679D01*
X10164978Y2209495D01*
X10167620Y2208885D01*
X10171836Y2207006D01*
X10173208Y2206142D01*
X10179151Y2203348D01*
X10181132Y2203348D01*
X10182758Y2201468D01*
X10184434Y2201468D01*
X10188346Y2197506D01*
X10188295Y2196592D01*
X10183672Y2194712D01*
X10182504Y2194407D01*
X10181132Y2193239D01*
X10176306Y2192680D01*
X10171379Y2189937D01*
X10167620Y2188819D01*
X10166604Y2187956D01*
X10162032Y2186686D01*
X10158780Y2185517D01*
X10151791Y2182164D01*
X10160660Y2182164D01*
X10165283Y2183892D01*
X10169956Y2185212D01*
X10173665Y2186990D01*
X10177424Y2188413D01*
X10181336Y2189429D01*
X10181894Y2190343D01*
X10184384Y2190343D01*
X10185755Y2191258D01*
X10186924Y2191258D01*
X10186822Y2186228D01*
X10184130Y2184247D01*
X10173208Y2183282D01*
X10168991Y2181910D01*
X10160660Y2182164D01*
X10151791Y2182164D01*
X10149941Y2181250D01*
X10146233Y2178761D01*
X10142423Y2175205D01*
X10141915Y2173122D01*
X10143693Y2171852D01*
X10145979Y2172309D01*
X10147046Y2173579D01*
X10150551Y2173579D01*
X10152735Y2175256D01*
X10160203Y2177288D01*
X10169042Y2177897D01*
X10172242Y2179167D01*
X10178796Y2179624D01*
X10181336Y2180183D01*
X10183215Y2179574D01*
X10183215Y2176780D01*
X10181894Y2173681D01*
X10181234Y2167280D01*
X10180421Y2165705D01*
X10176459Y2163927D01*
X10170769Y2158644D01*
X10169550Y2155748D01*
X10171785Y2153970D01*
X10174630Y2154377D01*
X10181031Y2156155D01*
X10183266Y2148433D01*
X10183723Y2146249D01*
X10185958Y2140762D01*
X10188803Y2137359D01*
X10188803Y2136089D01*
X10190276Y2134006D01*
X10189667Y2132228D01*
X10186263Y2131110D01*
X10184942Y2130094D01*
X10162997Y2129790D01*
X10160863Y2128418D01*
X10160863Y2126742D01*
X10162590Y2125218D01*
X10163759Y2125218D01*
X10166146Y2123338D01*
X10170261Y2123338D01*
X10169906Y2122170D01*
X10164826Y2118664D01*
X10163810Y2118664D01*
X10162133Y2116836D01*
X10161016Y2116836D01*
X10159898Y2115464D01*
X10160965Y2113534D01*
X10160406Y2111857D01*
X10156444Y2109012D01*
X10152989Y2105812D01*
X10152989Y2104034D01*
X10153599Y2101850D01*
X10156291Y2100681D01*
X10151567Y2097074D01*
X10151567Y2096363D01*
X10150144Y2096363D01*
X10149636Y2094941D01*
X10142728Y2091283D01*
X10139273Y2090318D01*
X10137597Y2087422D01*
X10138664Y2086152D01*
X10138206Y2084933D01*
X10134600Y2083104D01*
X10133025Y2081834D01*
X10122052Y2075434D01*
X10108641Y2063089D01*
X10102748Y2055977D01*
X10097516Y2051710D01*
X10096855Y2051710D01*
X10094671Y2049830D01*
X10093045Y2049830D01*
X10091826Y2048662D01*
X10088067Y2046325D01*
X10085324Y2045411D01*
X10084409Y2042769D01*
X10086289Y2041194D01*
X10086797Y2039315D01*
X10080650Y2032863D01*
X10068102Y2022144D01*
X10062514Y2016506D01*
X10057231Y2010511D01*
X10053370Y2005634D01*
X10052710Y2003907D01*
X10045039Y1995068D01*
X10045039Y1993646D01*
X10046766Y1991512D01*
X10050678Y1993087D01*
X10052964Y1993087D01*
X10052913Y1992375D01*
X10043871Y1985264D01*
X10038791Y1979472D01*
X10034676Y1975408D01*
X10034066Y1975408D01*
X10030612Y1970786D01*
X10029088Y1967585D01*
X10029698Y1966112D01*
X10032898Y1964588D01*
X10038740Y1964486D01*
X10039502Y1966671D01*
X10041788Y1968500D01*
X10044277Y1973529D01*
X10042601Y1975408D01*
X10040924Y1975408D01*
X10040467Y1976170D01*
X10049002Y1984603D01*
X10052050Y1986127D01*
X10052050Y1986940D01*
X10054742Y1987905D01*
X10061600Y1994255D01*
X10066934Y1997760D01*
X10066934Y1998573D01*
X10069474Y1999183D01*
X10070896Y2000453D01*
X10072725Y2000910D01*
X10075519Y2000961D01*
X10076637Y2000300D01*
X10077297Y1997506D01*
X10078923Y1994712D01*
X10079532Y1988210D01*
X10080802Y1983993D01*
X10083139Y1967738D01*
X10084257Y1958441D01*
X10084663Y1947976D01*
X10084104Y1947976D01*
X10080650Y1950212D01*
X10078262Y1952853D01*
X10069017Y1961591D01*
X10062667Y1965706D01*
X10059517Y1966214D01*
X10056012Y1964385D01*
X10053269Y1963724D01*
X10050983Y1961896D01*
X10048290Y1961896D01*
X10044633Y1959254D01*
X10041788Y1958086D01*
X10041788Y1957273D01*
X10039096Y1957273D01*
X10038740Y1964486D01*
X10032857Y1964486D01*
X10032339Y1963115D01*
X10027361Y1958086D01*
X10027361Y1956511D01*
X10028377Y1955546D01*
X10028007Y1954936D01*
X10036200Y1954936D01*
X10036200Y1955800D01*
X10037368Y1956206D01*
X10038080Y1955800D01*
X10037572Y1954936D01*
X10028007Y1954936D01*
X10024211Y1949145D01*
X10020757Y1945386D01*
X10018369Y1941677D01*
X10016337Y1937918D01*
X10015626Y1935632D01*
X10012578Y1930400D01*
X10011918Y1928215D01*
X10010190Y1925980D01*
X10010190Y1924253D01*
X10008311Y1920748D01*
X10008311Y1919732D01*
X10005466Y1914093D01*
X10004044Y1912924D01*
X10002113Y1909114D01*
X9998913Y1905507D01*
X9999472Y1899361D01*
X9998100Y1897024D01*
X9995001Y1890522D01*
X9992258Y1886610D01*
X9989464Y1881835D01*
X9985959Y1877060D01*
X9985959Y1873250D01*
X9982606Y1869592D01*
X9982149Y1866341D01*
X9980980Y1864918D01*
X9980269Y1861667D01*
X9979558Y1860753D01*
X9978390Y1856282D01*
X9976662Y1852879D01*
X9976662Y1851101D01*
X9972903Y1843532D01*
X9971532Y1842007D01*
X9971024Y1837029D01*
X9969347Y1832813D01*
X9968687Y1828952D01*
X9967366Y1827834D01*
X9967366Y1824939D01*
X9966045Y1822348D01*
X9965385Y1818182D01*
X9963658Y1816150D01*
X9963658Y1814372D01*
X9959797Y1809750D01*
X9960305Y1805584D01*
X9961880Y1803806D01*
X9964572Y1803196D01*
X9964572Y1802739D01*
X9962235Y1798116D01*
X9962235Y1797202D01*
X9958070Y1788515D01*
X9958070Y1781860D01*
X9955987Y1777492D01*
X9956190Y1769160D01*
X9954818Y1767636D01*
X9954209Y1759305D01*
X9952990Y1756918D01*
X9952380Y1747215D01*
X9951110Y1742592D01*
X9949078Y1731416D01*
X9948418Y1709064D01*
X9946944Y1702104D01*
X9946894Y1698548D01*
X9945065Y1696161D01*
X9945065Y1692300D01*
X9946894Y1690725D01*
X9946335Y1682546D01*
X9946386Y1679905D01*
X9947503Y1678635D01*
X9948621Y1678635D01*
X9950500Y1676501D01*
X9951161Y1672336D01*
X9952329Y1670456D01*
X9953040Y1666748D01*
X9954209Y1664868D01*
X9954869Y1661922D01*
X9956038Y1660956D01*
X9958070Y1661515D01*
X9958679Y1663852D01*
X9957562Y1665681D01*
X9955276Y1672336D01*
X9955276Y1675130D01*
X9953396Y1678635D01*
X9953396Y1683512D01*
X9950145Y1689455D01*
X9951110Y1690624D01*
X9951008Y1695602D01*
X9951516Y1709267D01*
X9952837Y1711858D01*
X9953447Y1719325D01*
X9956292Y1728165D01*
X9957257Y1731873D01*
X9958578Y1734667D01*
X9959340Y1739747D01*
X9958578Y1741779D01*
X9957562Y1742439D01*
X9955885Y1740966D01*
X9955225Y1740966D01*
X9955733Y1749806D01*
X9957155Y1752549D01*
X9957155Y1757476D01*
X9958171Y1761185D01*
X9958933Y1769364D01*
X9960864Y1774901D01*
X9960864Y1779574D01*
X9962286Y1781759D01*
X9963251Y1789836D01*
X9964572Y1792376D01*
X9964572Y1793849D01*
X9966452Y1796237D01*
X9966452Y1797151D01*
X9969500Y1803044D01*
X9971430Y1809089D01*
X9972090Y1811883D01*
X9974326Y1814474D01*
X9975291Y1814474D01*
X9976408Y1816303D01*
X9977526Y1816303D01*
X9982047Y1820773D01*
X9985197Y1823212D01*
X9983622Y1825599D01*
X9981539Y1825599D01*
X9978288Y1823008D01*
X9973462Y1819808D01*
X9972446Y1817878D01*
X9970516Y1816709D01*
X9969906Y1817319D01*
X9970058Y1821180D01*
X9971989Y1825396D01*
X9972040Y1828647D01*
X9973868Y1832356D01*
X9973919Y1833778D01*
X9976459Y1837588D01*
X9978847Y1840738D01*
X9979812Y1843633D01*
X9979355Y1847951D01*
X9980879Y1850288D01*
X9981742Y1854250D01*
X9983470Y1858924D01*
X9987178Y1863089D01*
X9990632Y1866087D01*
X9990632Y1872030D01*
X9993833Y1874824D01*
X9995204Y1877466D01*
X9999929Y1882597D01*
X9999929Y1886051D01*
X9999014Y1886610D01*
X9999014Y1887880D01*
X10003993Y1897786D01*
X10011105Y1906117D01*
X10011105Y1907387D01*
X10012476Y1907946D01*
X10014102Y1911299D01*
X10010394Y1913889D01*
X10013086Y1921662D01*
X10014305Y1923084D01*
X10014915Y1925878D01*
X10015982Y1926793D01*
X10021824Y1938629D01*
X10026040Y1944776D01*
X10028986Y1947621D01*
X10036454Y1950872D01*
X10043363Y1954479D01*
X10044531Y1954479D01*
X10048697Y1957679D01*
X10052253Y1958644D01*
X10057739Y1961438D01*
X10062768Y1961438D01*
X10064343Y1959610D01*
X10065512Y1959610D01*
X10069423Y1956104D01*
X10078313Y1947113D01*
X10082479Y1942185D01*
X10085019Y1938172D01*
X10086746Y1938172D01*
X10088727Y1940306D01*
X10088930Y1949145D01*
X10088372Y1958136D01*
X10087508Y1959813D01*
X10086949Y1970074D01*
X10085628Y1974697D01*
X10084968Y1981606D01*
X10083749Y1984959D01*
X10083190Y1992782D01*
X10082326Y1993798D01*
X10081209Y1998421D01*
X10079939Y2000504D01*
X10079939Y2001570D01*
X10078466Y2004669D01*
X10076434Y2005330D01*
X10072725Y2005075D01*
X10069830Y2003298D01*
X10068407Y2003298D01*
X10067391Y2002028D01*
X10063073Y2000402D01*
X10059771Y2001570D01*
X10055758Y2001469D01*
X10055758Y2002282D01*
X10057130Y2002840D01*
X10057130Y2004110D01*
X10059009Y2005787D01*
X10062464Y2010968D01*
X10074402Y2022856D01*
X10075316Y2022856D01*
X10079228Y2026412D01*
X10081209Y2027732D01*
X10086543Y2032406D01*
X10091826Y2037740D01*
X10097312Y2041906D01*
X10098024Y2041906D01*
X10101783Y2044446D01*
X10101783Y2047341D01*
X10100818Y2048306D01*
X10102291Y2049475D01*
X10102291Y2050745D01*
X10103358Y2050745D01*
X10108387Y2055672D01*
X10109962Y2057958D01*
X10115905Y2063546D01*
X10123576Y2071217D01*
X10124998Y2071217D01*
X10129469Y2074773D01*
X10132720Y2076754D01*
X10137140Y2077364D01*
X10138206Y2078685D01*
X10139273Y2078685D01*
X10142728Y2080564D01*
X10146792Y2080564D01*
X10149027Y2082241D01*
X10153497Y2082749D01*
X10155072Y2084171D01*
X10163810Y2084222D01*
X10165029Y2085238D01*
X10165588Y2087829D01*
X10169042Y2089607D01*
X10193680Y2089708D01*
X10201910Y2089962D01*
X10204602Y2086660D01*
X10213695Y2086102D01*
X10220198Y2084171D01*
X10223246Y2082698D01*
X10234930Y2082749D01*
X10235895Y2080615D01*
X10238435Y2079548D01*
X10249966Y2076450D01*
X10253421Y2074976D01*
X10257180Y2074976D01*
X10260685Y2073656D01*
X10265308Y2073046D01*
X10267289Y2071776D01*
X10273233Y2069287D01*
X10281920Y2065020D01*
X10280802Y2060041D01*
X10288930Y2052878D01*
X10291622Y2050084D01*
X10291622Y2047544D01*
X10295585Y2041702D01*
X10305084Y2032152D01*
X10305694Y2032152D01*
X10309758Y2030120D01*
X10310266Y2028443D01*
X10312450Y2027885D01*
X10314279Y2028443D01*
X10314787Y2030323D01*
X10316616Y2030323D01*
X10324185Y2022856D01*
X10326014Y2021890D01*
X10328402Y2022500D01*
X10330180Y2020925D01*
X10330738Y2018284D01*
X10332059Y2017166D01*
X10332059Y2015236D01*
X10334193Y2012188D01*
X10334853Y2012137D01*
X10336885Y2009851D01*
X10338054Y2009851D01*
X10340238Y2007107D01*
X10346283Y2002129D01*
X10351770Y1997049D01*
X10361320Y1986788D01*
X10360812Y1983333D01*
X10365536Y1978863D01*
X10366197Y1975662D01*
X10369499Y1972259D01*
X10374528Y1964029D01*
X10377271Y1950974D01*
X10378440Y1949145D01*
X10379100Y1945741D01*
X10380472Y1944573D01*
X10380472Y1943557D01*
X10384739Y1938934D01*
X10387025Y1933752D01*
X10385958Y1930400D01*
X10387634Y1926793D01*
X10393476Y1919071D01*
X10393476Y1917852D01*
X10400893Y1911045D01*
X10400893Y1897938D01*
X10402417Y1892858D01*
X10402925Y1879803D01*
X10402824Y1858518D01*
X10401046Y1856536D01*
X10400436Y1846325D01*
X10401249Y1840839D01*
X10409580Y1832762D01*
X10410799Y1828647D01*
X10412069Y1826818D01*
X10412069Y1824786D01*
X10410698Y1823669D01*
X10410698Y1821484D01*
X10413390Y1819351D01*
X10415828Y1814118D01*
X10415828Y1812340D01*
X10413949Y1810766D01*
X10413949Y1808124D01*
X10416032Y1806143D01*
X10417200Y1804720D01*
X10419537Y1799640D01*
X10419537Y1798320D01*
X10417657Y1795932D01*
X10417657Y1793341D01*
X10419486Y1789582D01*
X10421416Y1784451D01*
X10421416Y1783283D01*
X10416692Y1783283D01*
X10416184Y1781860D01*
X10419994Y1773123D01*
X10419994Y1771192D01*
X10417149Y1769719D01*
X10417810Y1766773D01*
X10421315Y1759813D01*
X10421416Y1756308D01*
X10419537Y1754428D01*
X10419537Y1744014D01*
X10417149Y1741525D01*
X10418165Y1732889D01*
X10415879Y1730502D01*
X10415930Y1719325D01*
X10413949Y1715617D01*
X10413949Y1714347D01*
X10412069Y1711960D01*
X10412120Y1710029D01*
X10412831Y1708912D01*
X10415473Y1707896D01*
X10413644Y1701292D01*
X10412069Y1700428D01*
X10410240Y1696821D01*
X10410240Y1694535D01*
X10408818Y1693367D01*
X10408818Y1690674D01*
X10410901Y1687880D01*
X10412476Y1682546D01*
X10414101Y1677924D01*
X10415828Y1674469D01*
X10414406Y1671675D01*
X10414406Y1668678D01*
X10412628Y1666748D01*
X10412425Y1665376D01*
X10412577Y1663852D01*
X10415879Y1660702D01*
X10415270Y1654860D01*
X10415879Y1651254D01*
X10417200Y1650746D01*
X10418368Y1651203D01*
X10420146Y1654200D01*
X10420807Y1671878D01*
X10420146Y1679549D01*
X10418572Y1681276D01*
X10417759Y1687677D01*
X10416743Y1690319D01*
X10416743Y1693468D01*
X10418724Y1695297D01*
X10422432Y1702409D01*
X10421772Y1711858D01*
X10418724Y1714754D01*
X10420451Y1719783D01*
X10420451Y1723186D01*
X10421874Y1723745D01*
X10423601Y1727758D01*
X10424566Y1738375D01*
X10424058Y1746961D01*
X10426954Y1750263D01*
X10427512Y1752549D01*
X10425938Y1767992D01*
X10427614Y1771751D01*
X10426496Y1775917D01*
X10425582Y1789226D01*
X10424515Y1791868D01*
X10423906Y1801368D01*
X10422432Y1803044D01*
X10421772Y1809038D01*
X10420604Y1811883D01*
X10419994Y1818893D01*
X10417962Y1824786D01*
X10419130Y1826615D01*
X10418572Y1829206D01*
X10415981Y1832152D01*
X10415117Y1832152D01*
X10409834Y1837588D01*
X10409072Y1837943D01*
X10405567Y1842211D01*
X10405567Y1850085D01*
X10407497Y1855520D01*
X10406837Y1864106D01*
X10408513Y1869439D01*
X10407345Y1874012D01*
X10407954Y1878431D01*
X10406938Y1882952D01*
X10408818Y1886610D01*
X10407548Y1888642D01*
X10406938Y1893671D01*
X10405414Y1897024D01*
X10405567Y1912467D01*
X10396423Y1922119D01*
X10393934Y1925929D01*
X10393934Y1926894D01*
X10392613Y1928012D01*
X10392664Y1933752D01*
X10391597Y1936089D01*
X10388955Y1940306D01*
X10388295Y1943252D01*
X10386974Y1944370D01*
X10386974Y1946148D01*
X10381488Y1951482D01*
X10381132Y1961388D01*
X10379506Y1963166D01*
X10379506Y1964131D01*
X10373868Y1975154D01*
X10372496Y1976729D01*
X10370312Y1977237D01*
X10369702Y1981454D01*
X10370312Y1983333D01*
X10368330Y1986534D01*
X10363047Y1991309D01*
X10361168Y1992223D01*
X10358831Y1995982D01*
X10353700Y2000148D01*
X10352938Y2001469D01*
X10352227Y2001469D01*
X10341254Y2011984D01*
X10336885Y2016556D01*
X10335666Y2020316D01*
X10332618Y2024481D01*
X10329265Y2027682D01*
X10329265Y2028748D01*
X10326725Y2031136D01*
X10323728Y2032609D01*
X10322407Y2032609D01*
X10319969Y2036775D01*
X10314889Y2038248D01*
X10313619Y2040026D01*
X10310672Y2040280D01*
X10309301Y2038350D01*
X10306964Y2038756D01*
X10306964Y2040128D01*
X10304678Y2042414D01*
X10301376Y2042414D01*
X10299649Y2044090D01*
X10298125Y2044700D01*
X10298125Y2046224D01*
X10300462Y2048052D01*
X10299852Y2050084D01*
X10298430Y2051710D01*
X10296753Y2051710D01*
X10293248Y2054098D01*
X10287762Y2059635D01*
X10291775Y2063140D01*
X10289997Y2066137D01*
X10286492Y2067102D01*
X10286492Y2067915D01*
X10281412Y2070303D01*
X10279278Y2070303D01*
X10276484Y2072182D01*
X10274909Y2072182D01*
X10267848Y2075891D01*
X10264952Y2075891D01*
X10263174Y2077466D01*
X10254640Y2078024D01*
X10249509Y2080768D01*
X10249052Y2084476D01*
X10244378Y2085492D01*
X10242143Y2086711D01*
X10234168Y2087118D01*
X10231628Y2088896D01*
X10228783Y2088896D01*
X10225430Y2087524D01*
X10222179Y2087524D01*
X10215168Y2089404D01*
X10216743Y2091131D01*
X10212832Y2094230D01*
X10199725Y2094382D01*
X10194594Y2093010D01*
X10182961Y2093569D01*
X10176002Y2094128D01*
X10166350Y2092147D01*
X10163708Y2090775D01*
X10156748Y2090775D01*
X10155326Y2089302D01*
X10155326Y2088489D01*
X10153345Y2087422D01*
X10151110Y2089556D01*
X10151110Y2091182D01*
X10154005Y2093569D01*
X10154920Y2093569D01*
X10166858Y2103882D01*
X10167264Y2106168D01*
X10165537Y2108352D01*
X10165537Y2110333D01*
X10167162Y2110333D01*
X10170414Y2112060D01*
X10173665Y2112721D01*
X10176256Y2115159D01*
X10176256Y2116277D01*
X10174630Y2119071D01*
X10177373Y2121255D01*
X10182047Y2124049D01*
X10182402Y2125878D01*
X10183317Y2127046D01*
X10187076Y2127046D01*
X10192156Y2129637D01*
X10193375Y2132025D01*
X10194848Y2133244D01*
X10194848Y2135327D01*
X10193477Y2136495D01*
X10193477Y2137613D01*
X10190327Y2141728D01*
X10189718Y2143709D01*
X10187990Y2145690D01*
X10187381Y2149449D01*
X10186111Y2151481D01*
X10185603Y2157984D01*
X10184434Y2162352D01*
X10185654Y2166366D01*
X10186111Y2174290D01*
X10187432Y2176373D01*
X10187990Y2180793D01*
X10189210Y2182164D01*
X10189819Y2184654D01*
X10191597Y2186279D01*
X10191597Y2189175D01*
X10192969Y2191207D01*
X10193528Y2199386D01*
X10192512Y2210104D01*
X10193375Y2215692D01*
X10195306Y2219350D01*
X10195306Y2220366D01*
X10197693Y2223566D01*
X10203434Y2225243D01*
X10216489Y2226157D01*
X10219537Y2227173D01*
X10228580Y2226919D01*
X10234625Y2228037D01*
X10237673Y2229612D01*
X10238181Y2231237D01*
X10240111Y2232304D01*
X10239552Y2236774D01*
X10237520Y2240788D01*
X10232948Y2246579D01*
X10229291Y2249474D01*
X10223144Y2252675D01*
X10221620Y2252726D01*
X10216946Y2255316D01*
X10216692Y2257094D01*
X10222636Y2261057D01*
X10229189Y2261260D01*
X10230916Y2259685D01*
X10233456Y2259076D01*
X10234015Y2256891D01*
X10235234Y2255875D01*
X10242397Y2255062D01*
X10243820Y2253030D01*
X10248188Y2253640D01*
X10249357Y2252218D01*
X10252659Y2251608D01*
X10254132Y2248966D01*
X10256266Y2248052D01*
X10256266Y2245461D01*
X10257028Y2244293D01*
X10265714Y2241448D01*
X10267645Y2241753D01*
X10267340Y2246376D01*
X10265968Y2248458D01*
X10265105Y2253284D01*
X10260228Y2257755D01*
X10258704Y2258263D01*
X10258145Y2260346D01*
X10258094Y2262835D01*
X10252049Y2265832D01*
X10252100Y2266391D01*
X10253675Y2268270D01*
X10257383Y2271014D01*
X10259263Y2271979D01*
X10260685Y2275687D01*
X10262870Y2279243D01*
X10265308Y2278938D01*
X10266172Y2277008D01*
X10268813Y2275992D01*
X10268813Y2273706D01*
X10269982Y2272741D01*
X10276941Y2272080D01*
X10278567Y2270658D01*
X10281361Y2271268D01*
X10285222Y2269845D01*
X10283647Y2268118D01*
X10284460Y2267610D01*
X10288778Y2267762D01*
X10290708Y2265730D01*
X10292080Y2266238D01*
X10292029Y2268220D01*
X10290708Y2269998D01*
X10288371Y2268474D01*
X10286898Y2268474D01*
X10285679Y2269693D01*
X10286949Y2271420D01*
X10286949Y2273960D01*
X10284053Y2274519D01*
X10281462Y2274519D01*
X10280345Y2273147D01*
X10278567Y2273147D01*
X10278567Y2273960D01*
X10281615Y2276957D01*
X10279278Y2278481D01*
X10277195Y2280513D01*
X10277195Y2284069D01*
X10275773Y2286711D01*
X10275773Y2289911D01*
X10274249Y2295448D01*
X10272166Y2295448D01*
X10271201Y2294280D01*
X10270591Y2291791D01*
X10268458Y2290368D01*
X10265054Y2291334D01*
X10264140Y2293670D01*
X10264140Y2296160D01*
X10265613Y2298954D01*
X10266883Y2305456D01*
X10268204Y2310638D01*
X10269220Y2312416D01*
X10271150Y2316988D01*
X10271150Y2318461D01*
X10277246Y2330602D01*
X10278465Y2331974D01*
X10279075Y2333955D01*
X10280904Y2335580D01*
X10280904Y2336393D01*
X10288676Y2346401D01*
X10290505Y2349754D01*
X10293807Y2352903D01*
X10297820Y2358948D01*
X10301376Y2363470D01*
X10301376Y2364689D01*
X10306964Y2370480D01*
X10306964Y2371445D01*
X10307828Y2370582D01*
X10308132Y2367330D01*
X10310114Y2367026D01*
X10312146Y2369616D01*
X10312654Y2372156D01*
X10314381Y2373731D01*
X10314381Y2374493D01*
X10320578Y2382926D01*
X10321950Y2382926D01*
X10322407Y2381046D01*
X10324846Y2380437D01*
X10328605Y2385009D01*
X10337342Y2393137D01*
X10339425Y2393137D01*
X10340644Y2391664D01*
X10345115Y2389428D01*
X10345115Y2388717D01*
X10340898Y2384348D01*
X10340898Y2382570D01*
X10342778Y2380945D01*
X10358323Y2393137D01*
X10362895Y2393137D01*
X10368483Y2396845D01*
X10369600Y2396845D01*
X10371277Y2398725D01*
X10372445Y2398725D01*
X10374630Y2400452D01*
X10378694Y2401062D01*
X10380065Y2402433D01*
X10383723Y2402433D01*
X10385552Y2404313D01*
X10389514Y2404922D01*
X10391190Y2405735D01*
X10398455Y2406599D01*
X10402773Y2409190D01*
X10402773Y2411069D01*
X10405516Y2413609D01*
X10408361Y2413609D01*
X10408361Y2410866D01*
X10410088Y2409952D01*
X10414660Y2412339D01*
X10415371Y2413609D01*
X10416336Y2413609D01*
X10418724Y2415489D01*
X10420350Y2415489D01*
X10424871Y2419096D01*
X10427208Y2419807D01*
X10429036Y2421077D01*
X10431881Y2421077D01*
X10432796Y2421737D01*
X10434980Y2424226D01*
X10432897Y2427020D01*
X10433456Y2428494D01*
X10436047Y2428494D01*
X10438892Y2430272D01*
X10443972Y2430932D01*
X10450931Y2432710D01*
X10465155Y2432710D01*
X10467594Y2435148D01*
X10465460Y2436876D01*
X10462361Y2436876D01*
X10461904Y2437638D01*
X10463936Y2440127D01*
X10472775Y2441448D01*
X10479328Y2442108D01*
X10480903Y2442921D01*
X10494213Y2444038D01*
X10503509Y2444191D01*
X10507624Y2445308D01*
X10556341Y2445258D01*
X10560253Y2444394D01*
X10578388Y2443327D01*
X10585348Y2441956D01*
X10592816Y2441448D01*
X10596524Y2440228D01*
X10601248Y2439670D01*
X10606379Y2436977D01*
X10610240Y2434539D01*
X10614812Y2432761D01*
X10620502Y2432100D01*
X10622838Y2430272D01*
X10622280Y2429408D01*
X10618266Y2429408D01*
X10617352Y2428290D01*
X10616895Y2426309D01*
X10617758Y2424785D01*
X10619130Y2424785D01*
X10618571Y2423871D01*
X10614609Y2423871D01*
X10613491Y2422753D01*
X10613491Y2420112D01*
X10615625Y2419299D01*
X10625277Y2417318D01*
X10626547Y2417318D01*
X10626547Y2434437D01*
X10620248Y2436368D01*
X10614660Y2437434D01*
X10609935Y2440584D01*
X10608513Y2440584D01*
X10607395Y2441956D01*
X10604144Y2443022D01*
X10601655Y2444292D01*
X10597642Y2444292D01*
X10594898Y2445715D01*
X10582097Y2446629D01*
X10577931Y2447594D01*
X10562031Y2448509D01*
X10554817Y2449474D01*
X10552785Y2450287D01*
X10562336Y2452217D01*
X10571683Y2453030D01*
X10572496Y2453843D01*
X10573105Y2456332D01*
X10570616Y2457958D01*
X10564418Y2459177D01*
X10560710Y2459177D01*
X10557459Y2460853D01*
X10557611Y2461768D01*
X10562132Y2462479D01*
X10564926Y2463800D01*
X10567466Y2464358D01*
X10568533Y2466594D01*
X10567924Y2468067D01*
X10563860Y2469845D01*
X10563199Y2470912D01*
X10563606Y2471318D01*
X10568178Y2471420D01*
X10572089Y2473248D01*
X10572648Y2475077D01*
X10571226Y2477211D01*
X10568279Y2477820D01*
X10565993Y2477820D01*
X10568838Y2481122D01*
X10568838Y2482291D01*
X10567720Y2483408D01*
X10564723Y2483408D01*
X10564164Y2484323D01*
X10565434Y2484323D01*
X10567619Y2486202D01*
X10569092Y2486202D01*
X10573664Y2488641D01*
X10578388Y2492349D01*
X10579150Y2493619D01*
X10580573Y2493619D01*
X10583418Y2496820D01*
X10583976Y2503170D01*
X10583976Y2524556D01*
X10582757Y2526690D01*
X10581487Y2546400D01*
X10580522Y2550160D01*
X10580471Y2561285D01*
X10581995Y2572918D01*
X10580522Y2581300D01*
X10580065Y2597658D01*
X10578693Y2603195D01*
X10576814Y2613863D01*
X10576204Y2619908D01*
X10575391Y2623159D01*
X10574426Y2639720D01*
X10573105Y2644749D01*
X10572140Y2646578D01*
X10570667Y2647137D01*
G37*
G36*
X10364419Y2492705D02*
G01*
X10355580Y2492654D01*
X10349687Y2488844D01*
X10347198Y2483612D01*
X10347198Y2482443D01*
X10351617Y2482443D01*
X10351617Y2483815D01*
X10354005Y2487371D01*
X10357408Y2488946D01*
X10363708Y2487980D01*
X10364419Y2486863D01*
X10367010Y2485186D01*
X10368127Y2482697D01*
X10369296Y2481478D01*
X10369296Y2473807D01*
X10365536Y2468727D01*
X10363454Y2467965D01*
X10357104Y2468626D01*
X10353446Y2471877D01*
X10352887Y2474112D01*
X10352074Y2474112D01*
X10352074Y2474874D01*
X10360152Y2474874D01*
X10363657Y2478684D01*
X10364317Y2481224D01*
X10363403Y2482697D01*
X10361371Y2483713D01*
X10360202Y2485288D01*
X10356291Y2485440D01*
X10352074Y2482443D01*
X10347198Y2482443D01*
X10347198Y2473858D01*
X10350804Y2467813D01*
X10352786Y2465628D01*
X10355580Y2464155D01*
X10365841Y2463749D01*
X10368991Y2465324D01*
X10371632Y2468270D01*
X10373817Y2471978D01*
X10374426Y2481783D01*
X10373512Y2484882D01*
X10370464Y2487777D01*
X10369499Y2489657D01*
X10366756Y2491079D01*
G37*
G36*
X10625632Y2491790D02*
G01*
X10624718Y2490012D01*
X10624108Y2486304D01*
X10625175Y2484323D01*
X10626547Y2484323D01*
X10626547Y2491790D01*
G37*
G36*
X10617911Y2474468D02*
G01*
X10615371Y2473553D01*
X10615371Y2472232D01*
X10619638Y2468270D01*
X10621670Y2467356D01*
X10625582Y2464765D01*
X10626547Y2464765D01*
X10626547Y2471674D01*
X10625074Y2472232D01*
X10623245Y2472232D01*
X10620705Y2474010D01*
G37*
G36*
X10612272Y2463292D02*
G01*
X10609783Y2461971D01*
X10609783Y2460853D01*
X10611561Y2457958D01*
X10619333Y2454046D01*
X10624921Y2450846D01*
X10626547Y2450846D01*
X10626547Y2459990D01*
X10621213Y2461158D01*
X10616082Y2462834D01*
G37*
G36*
X10616539Y2446629D02*
G01*
X10614914Y2445664D01*
X10614914Y2444343D01*
X10618876Y2441803D01*
X10624870Y2440127D01*
X10626547Y2440127D01*
X10626547Y2444292D01*
X10623702Y2444292D01*
X10620248Y2446070D01*
G37*
G36*
X10382554Y2300986D02*
G01*
X10377881Y2300935D01*
X10374376Y2300224D01*
X10373309Y2299157D01*
X10371378Y2299157D01*
X10367924Y2297328D01*
X10366654Y2297328D01*
X10364520Y2295448D01*
X10363403Y2295448D01*
X10360202Y2292604D01*
X10356951Y2290927D01*
X10351973Y2286406D01*
X10346791Y2277567D01*
X10345115Y2275332D01*
X10345115Y2272334D01*
X10343845Y2268728D01*
X10341356Y2255062D01*
X10340086Y2254605D01*
X10337168Y2254300D01*
X10347096Y2254300D01*
X10348315Y2264511D01*
X10349738Y2268220D01*
X10349738Y2270810D01*
X10351617Y2274265D01*
X10351617Y2275687D01*
X10354767Y2280513D01*
X10355122Y2281478D01*
X10361879Y2288438D01*
X10363962Y2289048D01*
X10364876Y2289759D01*
X10373715Y2294432D01*
X10376966Y2295601D01*
X10387533Y2296363D01*
X10394645Y2293213D01*
X10396829Y2292553D01*
X10400233Y2290318D01*
X10402570Y2288336D01*
X10405821Y2286254D01*
X10410698Y2281072D01*
X10410698Y2280158D01*
X10413441Y2275484D01*
X10414406Y2271928D01*
X10415778Y2270099D01*
X10415828Y2265934D01*
X10417606Y2262022D01*
X10418267Y2255723D01*
X10419638Y2252472D01*
X10419638Y2238654D01*
X10418114Y2237079D01*
X10415727Y2234031D01*
X10414457Y2234031D01*
X10413441Y2232202D01*
X10411764Y2232202D01*
X10409478Y2230374D01*
X10406989Y2229764D01*
X10401147Y2226767D01*
X10396728Y2226157D01*
X10394645Y2224786D01*
X10383469Y2223973D01*
X10374172Y2225040D01*
X10372293Y2226005D01*
X10367670Y2226665D01*
X10356951Y2231999D01*
X10352328Y2234641D01*
X10351820Y2235301D01*
X10349738Y2236419D01*
X10349738Y2238400D01*
X10348112Y2240178D01*
X10347096Y2254300D01*
X10336682Y2254250D01*
X10333228Y2253945D01*
X10332059Y2253030D01*
X10332110Y2250084D01*
X10332770Y2249068D01*
X10334802Y2248001D01*
X10337546Y2248001D01*
X10338663Y2246630D01*
X10340695Y2246020D01*
X10343235Y2243632D01*
X10343235Y2240788D01*
X10344607Y2238451D01*
X10345623Y2236165D01*
X10349026Y2231948D01*
X10351465Y2229459D01*
X10357358Y2225700D01*
X10359491Y2225700D01*
X10360050Y2224684D01*
X10365282Y2222398D01*
X10374630Y2220163D01*
X10389057Y2219045D01*
X10391394Y2219147D01*
X10400233Y2220925D01*
X10404398Y2222449D01*
X10406888Y2223820D01*
X10408310Y2223820D01*
X10409631Y2225141D01*
X10418064Y2229307D01*
X10419080Y2231186D01*
X10420807Y2231745D01*
X10424160Y2236673D01*
X10424160Y2238959D01*
X10425938Y2243988D01*
X10430002Y2246122D01*
X10433761Y2246172D01*
X10434878Y2247239D01*
X10434878Y2249728D01*
X10431322Y2252167D01*
X10430357Y2252167D01*
X10428071Y2253996D01*
X10425836Y2254554D01*
X10422737Y2257348D01*
X10421823Y2262936D01*
X10420553Y2266391D01*
X10419994Y2271014D01*
X10413898Y2283612D01*
X10412679Y2285695D01*
X10411256Y2287320D01*
X10410698Y2289251D01*
X10404754Y2294991D01*
X10403840Y2294991D01*
X10401554Y2296820D01*
X10399064Y2297430D01*
X10395610Y2299157D01*
X10393730Y2299208D01*
X10387177Y2300986D01*
G37*
G36*
X10362996Y2277719D02*
G01*
X10357916Y2276602D01*
X10354868Y2274316D01*
X10353243Y2271979D01*
X10351058Y2267762D01*
X10350601Y2252370D01*
X10352430Y2248255D01*
X10353090Y2244496D01*
X10355427Y2241092D01*
X10358882Y2238705D01*
X10364419Y2238756D01*
X10369702Y2241346D01*
X10373868Y2246934D01*
X10375493Y2250541D01*
X10375900Y2266645D01*
X10373766Y2272436D01*
X10370108Y2276856D01*
X10368127Y2277262D01*
G37*
G36*
X10269321Y2244293D02*
G01*
X10268762Y2243378D01*
X10270693Y2243378D01*
X10270693Y2244293D01*
G37*
G36*
X10376052Y2180437D02*
G01*
X10370870Y2179777D01*
X10369042Y2178761D01*
X10367568Y2177084D01*
X10367093Y2171192D01*
X10371937Y2171192D01*
X10373055Y2174951D01*
X10374833Y2175916D01*
X10379760Y2176780D01*
X10384891Y2176373D01*
X10420248Y2175002D01*
X10436047Y2173528D01*
X10441178Y2172258D01*
X10446258Y2171649D01*
X10450931Y2170379D01*
X10461853Y2169820D01*
X10465460Y2168550D01*
X10473588Y2167534D01*
X10474909Y2166467D01*
X10483494Y2166061D01*
X10489082Y2164334D01*
X10491520Y2163826D01*
X10491915Y2162352D01*
X10495991Y2162403D01*
X10495432Y2161844D01*
X10494213Y2162352D01*
X10491915Y2162352D01*
X10492028Y2161946D01*
X10485831Y2163318D01*
X10479786Y2163368D01*
X10469067Y2165197D01*
X10461599Y2165197D01*
X10456316Y2167077D01*
X10450372Y2167077D01*
X10445800Y2168448D01*
X10434828Y2169414D01*
X10432338Y2170430D01*
X10409885Y2170328D01*
X10407192Y2169312D01*
X10396524Y2169566D01*
X10374731Y2168398D01*
X10371937Y2171192D01*
X10367093Y2171192D01*
X10367060Y2170785D01*
X10369397Y2167280D01*
X10372090Y2164791D01*
X10374172Y2164080D01*
X10389006Y2164384D01*
X10394950Y2166213D01*
X10425328Y2165908D01*
X10427309Y2164791D01*
X10441178Y2164181D01*
X10450474Y2162911D01*
X10458856Y2162302D01*
X10464444Y2161032D01*
X10476148Y2160574D01*
X10505694Y2160574D01*
X10508132Y2159203D01*
X10516514Y2157831D01*
X10507522Y2157780D01*
X10506100Y2159152D01*
X10503255Y2159762D01*
X10503255Y2160574D01*
X10477449Y2160524D01*
X10493705Y2157526D01*
X10499898Y2156764D01*
X10521137Y2156815D01*
X10520019Y2155748D01*
X10517936Y2156764D01*
X10499898Y2156764D01*
X10502392Y2155444D01*
X10511688Y2153107D01*
X10515396Y2153107D01*
X10518851Y2151634D01*
X10527690Y2150872D01*
X10530027Y2149957D01*
X10538409Y2149297D01*
X10540542Y2147925D01*
X10545368Y2147417D01*
X10547248Y2146249D01*
X10551414Y2145538D01*
X10553293Y2144318D01*
X10557002Y2143709D01*
X10559135Y2142337D01*
X10563504Y2141016D01*
X10564672Y2141016D01*
X10565231Y2143252D01*
X10562132Y2146096D01*
X10559846Y2146655D01*
X10557306Y2148433D01*
X10555020Y2148433D01*
X10553344Y2150313D01*
X10551210Y2150313D01*
X10546740Y2153412D01*
X10541457Y2155901D01*
X10540034Y2155901D01*
X10536529Y2157780D01*
X10533227Y2157780D01*
X10531398Y2159050D01*
X10526776Y2159711D01*
X10525658Y2160625D01*
X10516971Y2162505D01*
X10509097Y2163673D01*
X10505338Y2164638D01*
X10500918Y2165248D01*
X10497007Y2167026D01*
X10494416Y2167077D01*
X10490962Y2168906D01*
X10488828Y2168906D01*
X10485374Y2170379D01*
X10477906Y2170836D01*
X10474198Y2172106D01*
X10469981Y2172766D01*
X10466933Y2173986D01*
X10450931Y2175002D01*
X10448086Y2175916D01*
X10439755Y2176729D01*
X10436961Y2178202D01*
X10426293Y2178253D01*
X10418826Y2179574D01*
G37*
G36*
X10328148Y2168448D02*
G01*
X10327182Y2168398D01*
X10323931Y2167128D01*
X10322001Y2167077D01*
X10319054Y2163978D01*
X10319054Y2162098D01*
X10319348Y2161082D01*
X10323677Y2161082D01*
X10323677Y2162810D01*
X10325354Y2163826D01*
X10337901Y2162149D01*
X10339984Y2160981D01*
X10348214Y2160219D01*
X10349179Y2159609D01*
X10358374Y2157679D01*
X10366857Y2156460D01*
X10375087Y2154885D01*
X10379456Y2153107D01*
X10385094Y2153107D01*
X10388600Y2151227D01*
X10391140Y2151227D01*
X10395610Y2149449D01*
X10400131Y2148789D01*
X10402570Y2147519D01*
X10404398Y2147519D01*
X10406888Y2146249D01*
X10410901Y2145538D01*
X10413288Y2144318D01*
X10419283Y2143709D01*
X10422280Y2142490D01*
X10427665Y2141880D01*
X10433710Y2139950D01*
X10436758Y2138680D01*
X10440720Y2138121D01*
X10442549Y2137156D01*
X10449052Y2135378D01*
X10454640Y2134108D01*
X10458399Y2132685D01*
X10460736Y2132634D01*
X10462615Y2131314D01*
X10467238Y2130399D01*
X10476992Y2127097D01*
X10487660Y2124049D01*
X10506100Y2117750D01*
X10508488Y2117750D01*
X10513060Y2115515D01*
X10520730Y2112162D01*
X10524134Y2110333D01*
X10525556Y2110333D01*
X10527233Y2108555D01*
X10530586Y2107946D01*
X10531094Y2106117D01*
X10530332Y2106117D01*
X10529976Y2107133D01*
X10523677Y2107793D01*
X10523016Y2108809D01*
X10518952Y2109470D01*
X10516057Y2111248D01*
X10514076Y2111248D01*
X10510012Y2113076D01*
X10508234Y2113127D01*
X10506760Y2114397D01*
X10502087Y2115362D01*
X10495127Y2117801D01*
X10488218Y2119172D01*
X10487202Y2120036D01*
X10481513Y2120950D01*
X10479786Y2121865D01*
X10471404Y2123744D01*
X10468152Y2124252D01*
X10462869Y2124659D01*
X10461091Y2125624D01*
X10453674Y2126538D01*
X10451236Y2127453D01*
X10443921Y2128469D01*
X10437114Y2131263D01*
X10433253Y2131872D01*
X10431373Y2133041D01*
X10426039Y2134006D01*
X10424414Y2134870D01*
X10411307Y2137714D01*
X10408615Y2139137D01*
X10406075Y2139137D01*
X10401350Y2141016D01*
X10399318Y2141016D01*
X10382707Y2146604D01*
X10381132Y2146604D01*
X10378440Y2148027D01*
X10372801Y2148535D01*
X10368584Y2149805D01*
X10361777Y2150872D01*
X10359288Y2152192D01*
X10355427Y2152192D01*
X10352176Y2153513D01*
X10340441Y2154072D01*
X10333380Y2156307D01*
X10332313Y2157171D01*
X10329367Y2157831D01*
X10328249Y2159152D01*
X10326166Y2159152D01*
X10323677Y2161082D01*
X10319348Y2161082D01*
X10320426Y2157476D01*
X10323017Y2155088D01*
X10326928Y2153107D01*
X10328503Y2153107D01*
X10332313Y2151329D01*
X10339019Y2149297D01*
X10356951Y2147570D01*
X10374172Y2143760D01*
X10376509Y2143810D01*
X10386466Y2140102D01*
X10389463Y2140102D01*
X10390936Y2138781D01*
X10399318Y2136343D01*
X10400690Y2136394D01*
X10409986Y2133498D01*
X10414660Y2132279D01*
X10418114Y2130806D01*
X10420502Y2130806D01*
X10422331Y2129840D01*
X10426293Y2129028D01*
X10440822Y2124811D01*
X10442803Y2123744D01*
X10448594Y2122982D01*
X10452354Y2121509D01*
X10457484Y2121458D01*
X10462768Y2119630D01*
X10466578Y2119630D01*
X10469067Y2118360D01*
X10473893Y2117750D01*
X10477550Y2116429D01*
X10483748Y2115769D01*
X10487202Y2114042D01*
X10490962Y2114042D01*
X10493095Y2112568D01*
X10497921Y2111806D01*
X10502544Y2110181D01*
X10506557Y2108454D01*
X10508437Y2108454D01*
X10510926Y2107184D01*
X10515803Y2106523D01*
X10519257Y2104745D01*
X10521950Y2104745D01*
X10524896Y2103374D01*
X10529570Y2101596D01*
X10533989Y2100935D01*
X10537901Y2099157D01*
X10540085Y2099157D01*
X10542473Y2097278D01*
X10544556Y2097278D01*
X10546892Y2095449D01*
X10548162Y2095398D01*
X10550956Y2093569D01*
X10552836Y2093569D01*
X10554665Y2092299D01*
X10557916Y2091689D01*
X10562132Y2089556D01*
X10564418Y2088032D01*
X10567212Y2087422D01*
X10570210Y2085949D01*
X10573715Y2086813D01*
X10573715Y2090064D01*
X10569194Y2091486D01*
X10566298Y2094026D01*
X10557002Y2099106D01*
X10553852Y2100630D01*
X10552531Y2101951D01*
X10550956Y2101951D01*
X10545826Y2105456D01*
X10540238Y2107692D01*
X10538002Y2109368D01*
X10536682Y2109368D01*
X10526877Y2114143D01*
X10519359Y2118664D01*
X10518190Y2118664D01*
X10509961Y2122424D01*
X10508792Y2122424D01*
X10505186Y2124252D01*
X10503255Y2124252D01*
X10491825Y2128012D01*
X10488117Y2128012D01*
X10486237Y2129332D01*
X10482630Y2129993D01*
X10475722Y2133142D01*
X10472318Y2133955D01*
X10464901Y2136851D01*
X10455097Y2139238D01*
X10452506Y2140559D01*
X10448594Y2141118D01*
X10447223Y2142337D01*
X10443006Y2143455D01*
X10442092Y2144166D01*
X10437418Y2144826D01*
X10435590Y2145995D01*
X10432338Y2146655D01*
X10426954Y2148433D01*
X10422280Y2148433D01*
X10410444Y2150872D01*
X10406481Y2152192D01*
X10403382Y2152192D01*
X10397998Y2154021D01*
X10395458Y2154021D01*
X10391394Y2155901D01*
X10388092Y2155901D01*
X10386263Y2157171D01*
X10380065Y2157780D01*
X10376306Y2159101D01*
X10370464Y2159660D01*
X10367213Y2161032D01*
X10343032Y2165248D01*
X10337088Y2167077D01*
X10333685Y2167077D01*
X10329113Y2168448D01*
G37*
G36*
X10197338Y2154123D02*
G01*
X10196118Y2152650D01*
X10197693Y2150262D01*
X10200741Y2148941D01*
X10204348Y2144268D01*
X10206685Y2144268D01*
X10207853Y2145030D01*
X10205872Y2149094D01*
X10203942Y2151735D01*
X10200843Y2153564D01*
G37*
G36*
X10363454Y2119020D02*
G01*
X10360304Y2118461D01*
X10358120Y2114346D01*
X10358120Y2111756D01*
X10362692Y2111756D01*
X10363809Y2113127D01*
X10366756Y2113940D01*
X10368635Y2114042D01*
X10373918Y2112162D01*
X10376509Y2112162D01*
X10383418Y2110333D01*
X10384891Y2110333D01*
X10389971Y2107539D01*
X10395762Y2104745D01*
X10397083Y2104745D01*
X10398150Y2103424D01*
X10400690Y2102815D01*
X10406735Y2100072D01*
X10412628Y2098751D01*
X10413695Y2097887D01*
X10415879Y2097227D01*
X10421518Y2094026D01*
X10423956Y2093417D01*
X10432643Y2088438D01*
X10433304Y2088438D01*
X10436453Y2086102D01*
X10438130Y2086102D01*
X10442244Y2083104D01*
X10446410Y2080564D01*
X10447782Y2080564D01*
X10451846Y2077415D01*
X10457688Y2074468D01*
X10457688Y2073452D01*
X10454640Y2074062D01*
X10453624Y2075434D01*
X10450474Y2075992D01*
X10449052Y2077161D01*
X10446766Y2077872D01*
X10441178Y2080615D01*
X10427919Y2085797D01*
X10427919Y2086559D01*
X10424515Y2087168D01*
X10419334Y2090775D01*
X10418064Y2090775D01*
X10415676Y2092655D01*
X10413136Y2092655D01*
X10412069Y2093925D01*
X10409580Y2094534D01*
X10407294Y2096363D01*
X10404297Y2096363D01*
X10403230Y2097633D01*
X10399776Y2098294D01*
X10398201Y2099716D01*
X10392765Y2100478D01*
X10385348Y2102358D01*
X10383469Y2103323D01*
X10376154Y2105660D01*
X10374172Y2105660D01*
X10370667Y2107539D01*
X10368026Y2107539D01*
X10365790Y2109266D01*
X10363708Y2109927D01*
X10362692Y2111756D01*
X10358120Y2111756D01*
X10358120Y2109012D01*
X10362082Y2105558D01*
X10366248Y2103424D01*
X10369499Y2102764D01*
X10371074Y2101392D01*
X10376509Y2100681D01*
X10379964Y2099157D01*
X10382097Y2099157D01*
X10385348Y2097430D01*
X10398150Y2093823D01*
X10404856Y2091537D01*
X10406329Y2090318D01*
X10407192Y2090318D01*
X10411866Y2088032D01*
X10418368Y2085644D01*
X10419740Y2084730D01*
X10421162Y2084120D01*
X10423398Y2082393D01*
X10425023Y2082393D01*
X10440060Y2075434D01*
X10443210Y2074875D01*
X10444276Y2073554D01*
X10445343Y2073554D01*
X10446296Y2073097D01*
X10459974Y2073097D01*
X10460532Y2072182D01*
X10458856Y2072182D01*
X10457434Y2073097D01*
X10446296Y2073097D01*
X10451846Y2070303D01*
X10456976Y2068017D01*
X10459770Y2067407D01*
X10461142Y2066239D01*
X10464444Y2065528D01*
X10467644Y2063800D01*
X10469168Y2063800D01*
X10470286Y2062480D01*
X10472928Y2061870D01*
X10477449Y2058670D01*
X10478109Y2058670D01*
X10483494Y2054606D01*
X10485272Y2052624D01*
X10486796Y2052624D01*
X10487914Y2051507D01*
X10490250Y2053843D01*
X10488980Y2056333D01*
X10483240Y2061464D01*
X10480700Y2063089D01*
X10478363Y2065883D01*
X10476890Y2067306D01*
X10468559Y2073910D01*
X10464901Y2075891D01*
X10463834Y2075891D01*
X10462615Y2077313D01*
X10459770Y2078685D01*
X10453268Y2082800D01*
X10430002Y2095347D01*
X10420502Y2100072D01*
X10419181Y2100072D01*
X10416997Y2101799D01*
X10413695Y2102510D01*
X10411866Y2103780D01*
X10409986Y2103780D01*
X10407142Y2105558D01*
X10399826Y2107996D01*
X10398810Y2108809D01*
X10396626Y2109470D01*
X10393375Y2111705D01*
X10388142Y2113229D01*
X10385602Y2114550D01*
X10380675Y2115058D01*
X10378643Y2116378D01*
X10373715Y2117344D01*
X10370007Y2118614D01*
G37*
G36*
X10180675Y1946656D02*
G01*
X10180066Y1946046D01*
X10173716Y1945132D01*
X10166502Y1942744D01*
X10162235Y1940052D01*
X10161625Y1940052D01*
X10148570Y1932482D01*
X10147604Y1931466D01*
X10142270Y1927961D01*
X10142270Y1927047D01*
X10141356Y1927047D01*
X10136936Y1923694D01*
X10128656Y1915617D01*
X10126014Y1912010D01*
X10126014Y1908962D01*
X10130180Y1908962D01*
X10130180Y1910740D01*
X10134447Y1916531D01*
X10137140Y1917700D01*
X10137140Y1919071D01*
X10142220Y1924253D01*
X10143134Y1924253D01*
X10147858Y1927961D01*
X10149687Y1927961D01*
X10150906Y1929688D01*
X10160304Y1935276D01*
X10162438Y1935988D01*
X10166908Y1938629D01*
X10170871Y1939696D01*
X10172750Y1940966D01*
X10174173Y1940966D01*
X10177424Y1942795D01*
X10184688Y1942846D01*
X10190683Y1937054D01*
X10190683Y1935073D01*
X10192410Y1932838D01*
X10193070Y1929587D01*
X10194239Y1927707D01*
X10194848Y1923288D01*
X10196322Y1920443D01*
X10197134Y1910537D01*
X10197998Y1907235D01*
X10198506Y1875078D01*
X10197744Y1873910D01*
X10194899Y1875383D01*
X10194391Y1877110D01*
X10190226Y1881428D01*
X10188803Y1884476D01*
X10185908Y1889099D01*
X10183317Y1892046D01*
X10181640Y1896567D01*
X10177932Y1902612D01*
X10175087Y1905711D01*
X10170058Y1908556D01*
X10131044Y1908403D01*
X10130180Y1908962D01*
X10126014Y1908962D01*
X10126014Y1907793D01*
X10128300Y1904796D01*
X10131806Y1904238D01*
X10151821Y1904136D01*
X10165740Y1905762D01*
X10172141Y1903526D01*
X10175697Y1899310D01*
X10176306Y1896821D01*
X10177627Y1895754D01*
X10177627Y1894586D01*
X10179354Y1892350D01*
X10180066Y1890115D01*
X10183215Y1886864D01*
X10183215Y1885289D01*
X10185095Y1883613D01*
X10185095Y1882495D01*
X10187381Y1880006D01*
X10187381Y1878838D01*
X10193680Y1872792D01*
X10197134Y1870252D01*
X10197947Y1870252D01*
X10199624Y1868424D01*
X10201452Y1867865D01*
X10203586Y1869897D01*
X10202824Y1872843D01*
X10202214Y1903526D01*
X10200944Y1910994D01*
X10200335Y1918411D01*
X10199166Y1920748D01*
X10198455Y1924913D01*
X10197287Y1927250D01*
X10196779Y1931212D01*
X10192766Y1939645D01*
X10189514Y1943252D01*
X10188092Y1945233D01*
X10184384Y1946198D01*
G37*
G36*
X10308386Y1859584D02*
G01*
X10307167Y1859534D01*
X10305389Y1858162D01*
X10301681Y1858162D01*
X10299750Y1856435D01*
X10296042Y1854454D01*
X10294010Y1854454D01*
X10293451Y1853590D01*
X10286695Y1849780D01*
X10278567Y1844649D01*
X10278567Y1843735D01*
X10275773Y1842363D01*
X10271302Y1838909D01*
X10269067Y1835759D01*
X10263682Y1830019D01*
X10263682Y1829409D01*
X10261346Y1826869D01*
X10261346Y1824888D01*
X10260025Y1823059D01*
X10259974Y1820113D01*
X10260496Y1819198D01*
X10264140Y1819198D01*
X10264140Y1822754D01*
X10268966Y1829968D01*
X10279430Y1840484D01*
X10280548Y1840484D01*
X10283952Y1842719D01*
X10293299Y1847850D01*
X10297160Y1848510D01*
X10298226Y1849831D01*
X10299750Y1849831D01*
X10302544Y1851355D01*
X10305796Y1852015D01*
X10308742Y1852117D01*
X10311180Y1851202D01*
X10312095Y1848662D01*
X10313263Y1847697D01*
X10315346Y1843735D01*
X10315346Y1839823D01*
X10317073Y1835962D01*
X10317784Y1832813D01*
X10318496Y1831898D01*
X10320883Y1825853D01*
X10321493Y1821688D01*
X10322763Y1819148D01*
X10322763Y1816506D01*
X10324744Y1812899D01*
X10324846Y1799640D01*
X10324236Y1799031D01*
X10320680Y1800148D01*
X10316972Y1801825D01*
X10314635Y1802485D01*
X10313416Y1804212D01*
X10311688Y1804212D01*
X10307370Y1807921D01*
X10306456Y1807921D01*
X10301630Y1811782D01*
X10300919Y1813001D01*
X10295077Y1815795D01*
X10289997Y1817166D01*
X10267137Y1817674D01*
X10264140Y1819198D01*
X10260496Y1819198D01*
X10262057Y1816557D01*
X10264343Y1814677D01*
X10268102Y1813966D01*
X10278821Y1813661D01*
X10292791Y1812493D01*
X10295077Y1810969D01*
X10299192Y1808784D01*
X10307675Y1802028D01*
X10309606Y1801418D01*
X10311282Y1799589D01*
X10312603Y1799589D01*
X10314990Y1797710D01*
X10316667Y1797710D01*
X10317429Y1796338D01*
X10321950Y1795475D01*
X10322966Y1794459D01*
X10325811Y1794459D01*
X10328300Y1796542D01*
X10329265Y1799183D01*
X10329265Y1810512D01*
X10327436Y1814575D01*
X10327436Y1817065D01*
X10325557Y1820722D01*
X10325557Y1825142D01*
X10323677Y1826768D01*
X10323677Y1830425D01*
X10321950Y1834235D01*
X10319969Y1839366D01*
X10319969Y1841754D01*
X10317581Y1849120D01*
X10316413Y1850491D01*
X10314279Y1854707D01*
X10309555Y1859584D01*
G37*
D10*
X4487672Y751078D02*
G01*
X4469129Y741934D01*
X4450841Y723392D01*
X4441443Y704850D01*
X4432300Y677163D01*
X4432300Y631189D01*
X4441443Y603250D01*
X4450841Y584962D01*
X4469129Y566420D01*
X4487672Y557276D01*
X4524756Y557276D01*
X4543043Y566420D01*
X4561586Y584962D01*
X4570729Y603250D01*
X4580127Y631189D01*
X4580127Y677163D01*
X4570729Y704850D01*
X4561586Y723392D01*
X4543043Y741934D01*
X4524756Y751078D01*
X4487672Y751078D01*
X4641088Y751078D02*
G01*
X4641088Y557276D01*
X4641088Y557276D02*
G01*
X4751831Y557276D01*
X4812791Y751078D02*
G01*
X4812791Y557276D01*
X4812791Y751078D02*
G01*
X4932934Y751078D01*
X4812791Y658876D02*
G01*
X4886706Y658876D01*
X4812791Y557276D02*
G01*
X4932934Y557276D01*
X4993893Y751078D02*
G01*
X4993893Y557276D01*
X4993893Y751078D02*
G01*
X5058409Y751078D01*
X5086350Y741934D01*
X5104638Y723392D01*
X5114036Y704850D01*
X5123179Y677163D01*
X5123179Y631189D01*
X5114036Y603250D01*
X5104638Y584962D01*
X5086350Y566420D01*
X5058409Y557276D01*
X4993893Y557276D01*
D11*
X4491227Y1213357D02*
G01*
X4481829Y1208786D01*
X4472431Y1199387D01*
X4467859Y1189989D01*
X4467859Y1171194D01*
X4472431Y1161795D01*
X4481829Y1152397D01*
X4491227Y1147571D01*
X4505452Y1143000D01*
X4528820Y1143000D01*
X4542790Y1147571D01*
X4552188Y1152397D01*
X4561586Y1161795D01*
X4566411Y1171194D01*
X4566411Y1189989D01*
X4561586Y1199387D01*
X4552188Y1208786D01*
X4542790Y1213357D01*
X4528820Y1213357D01*
X4528820Y1189989D02*
G01*
X4528820Y1213357D01*
X4467859Y1244345D02*
G01*
X4566411Y1244345D01*
X4467859Y1244345D02*
G01*
X4566411Y1309878D01*
X4467859Y1309878D02*
G01*
X4566411Y1309878D01*
X4467859Y1340865D02*
G01*
X4566411Y1340865D01*
X4467859Y1340865D02*
G01*
X4467859Y1373886D01*
X4472431Y1387855D01*
X4481829Y1397254D01*
X4491227Y1401826D01*
X4505452Y1406652D01*
X4528820Y1406652D01*
X4542790Y1401826D01*
X4552188Y1397254D01*
X4561586Y1387855D01*
X4566411Y1373886D01*
X4566411Y1340865D01*
X4735829Y1208786D02*
G01*
X4726431Y1199387D01*
X4721859Y1185163D01*
X4721859Y1166368D01*
X4726431Y1152397D01*
X4735829Y1143000D01*
X4745227Y1143000D01*
X4754625Y1147571D01*
X4759452Y1152397D01*
X4764024Y1161795D01*
X4773422Y1189989D01*
X4778247Y1199387D01*
X4782820Y1203960D01*
X4792218Y1208786D01*
X4806188Y1208786D01*
X4815586Y1199387D01*
X4820411Y1185163D01*
X4820411Y1166368D01*
X4815586Y1152397D01*
X4806188Y1143000D01*
X4721859Y1239520D02*
G01*
X4820411Y1239520D01*
X4721859Y1239520D02*
G01*
X4721859Y1272539D01*
X4726431Y1286510D01*
X4735829Y1295907D01*
X4745227Y1300734D01*
X4759452Y1305305D01*
X4782820Y1305305D01*
X4796790Y1300734D01*
X4806188Y1295907D01*
X4815586Y1286510D01*
X4820411Y1272539D01*
X4820411Y1239520D01*
X4721859Y1373886D02*
G01*
X4820411Y1336294D01*
X4721859Y1373886D02*
G01*
X4820411Y1411223D01*
X4787645Y1350263D02*
G01*
X4787645Y1397254D01*
X4989829Y1208786D02*
G01*
X4980431Y1199387D01*
X4975859Y1185163D01*
X4975859Y1166368D01*
X4980431Y1152397D01*
X4989829Y1143000D01*
X4999227Y1143000D01*
X5008625Y1147571D01*
X5013452Y1152397D01*
X5018024Y1161795D01*
X5027422Y1189989D01*
X5032247Y1199387D01*
X5036820Y1203960D01*
X5046218Y1208786D01*
X5060188Y1208786D01*
X5069586Y1199387D01*
X5074411Y1185163D01*
X5074411Y1166368D01*
X5069586Y1152397D01*
X5060188Y1143000D01*
X4999227Y1309878D02*
G01*
X4989829Y1305305D01*
X4980431Y1295907D01*
X4975859Y1286510D01*
X4975859Y1267713D01*
X4980431Y1258315D01*
X4989829Y1248918D01*
X4999227Y1244345D01*
X5013452Y1239520D01*
X5036820Y1239520D01*
X5050790Y1244345D01*
X5060188Y1248918D01*
X5069586Y1258315D01*
X5074411Y1267713D01*
X5074411Y1286510D01*
X5069586Y1295907D01*
X5060188Y1305305D01*
X5050790Y1309878D01*
X4975859Y1340865D02*
G01*
X5074411Y1340865D01*
X5074411Y1340865D02*
G01*
X5074411Y1397254D01*
X5229859Y1143000D02*
G01*
X5328411Y1180592D01*
X5229859Y1217929D02*
G01*
X5328411Y1180592D01*
X5253227Y1319276D02*
G01*
X5243829Y1314704D01*
X5234431Y1305305D01*
X5229859Y1295907D01*
X5229859Y1277112D01*
X5234431Y1267713D01*
X5243829Y1258315D01*
X5253227Y1253744D01*
X5267452Y1248918D01*
X5290820Y1248918D01*
X5304790Y1253744D01*
X5314188Y1258315D01*
X5323586Y1267713D01*
X5328411Y1277112D01*
X5328411Y1295907D01*
X5323586Y1305305D01*
X5314188Y1314704D01*
X5304790Y1319276D01*
X5253227Y1420621D02*
G01*
X5243829Y1416050D01*
X5234431Y1406652D01*
X5229859Y1397254D01*
X5229859Y1378457D01*
X5234431Y1369060D01*
X5243829Y1359662D01*
X5253227Y1355089D01*
X5267452Y1350263D01*
X5290820Y1350263D01*
X5304790Y1355089D01*
X5314188Y1359662D01*
X5323586Y1369060D01*
X5328411Y1378457D01*
X5328411Y1397254D01*
X5323586Y1406652D01*
X5314188Y1416050D01*
X5304790Y1420621D01*
D12*
X5573013Y865378D02*
G01*
X5499100Y671576D01*
X5573013Y865378D02*
G01*
X5646927Y671576D01*
X5526786Y736092D02*
G01*
X5619241Y736092D01*
X5707888Y865378D02*
G01*
X5707888Y671576D01*
X5707888Y865378D02*
G01*
X5772404Y865378D01*
X5800090Y856234D01*
X5818631Y837692D01*
X5828029Y819150D01*
X5837174Y791463D01*
X5837174Y745489D01*
X5828029Y717550D01*
X5818631Y699262D01*
X5800090Y680720D01*
X5772404Y671576D01*
X5707888Y671576D01*
X6018275Y800862D02*
G01*
X6008877Y773176D01*
X5990590Y754634D01*
X5962650Y745489D01*
X5953506Y745489D01*
X5925820Y754634D01*
X5907277Y773176D01*
X5898134Y800862D01*
X5898134Y810005D01*
X5907277Y837692D01*
X5925820Y856234D01*
X5953506Y865378D01*
X5962650Y865378D01*
X5990590Y856234D01*
X6008877Y837692D01*
X6018275Y800862D01*
X6018275Y754634D01*
X6008877Y708405D01*
X5990590Y680720D01*
X5962650Y671576D01*
X5944361Y671576D01*
X5916675Y680720D01*
X5907277Y699262D01*
X6125209Y865378D02*
G01*
X6097524Y856234D01*
X6088379Y837692D01*
X6088379Y819150D01*
X6097524Y800862D01*
X6116065Y791463D01*
X6153150Y782320D01*
X6180836Y773176D01*
X6199124Y754634D01*
X6208522Y736092D01*
X6208522Y708405D01*
X6199124Y689863D01*
X6189979Y680720D01*
X6162293Y671576D01*
X6125209Y671576D01*
X6097524Y680720D01*
X6088379Y689863D01*
X6079236Y708405D01*
X6079236Y736092D01*
X6088379Y754634D01*
X6106922Y773176D01*
X6134608Y782320D01*
X6171438Y791463D01*
X6189979Y800862D01*
X6199124Y819150D01*
X6199124Y837692D01*
X6189979Y856234D01*
X6162293Y865378D01*
X6125209Y865378D01*
X6287770Y865378D02*
G01*
X6389370Y865378D01*
X6333997Y791463D01*
X6361684Y791463D01*
X6380225Y782320D01*
X6389370Y773176D01*
X6398768Y745489D01*
X6398768Y726947D01*
X6389370Y699262D01*
X6371081Y680720D01*
X6343395Y671576D01*
X6315709Y671576D01*
X6287770Y680720D01*
X6278625Y689863D01*
X6269481Y708405D01*
X6478270Y865378D02*
G01*
X6579870Y865378D01*
X6524243Y791463D01*
X6551929Y791463D01*
X6570472Y782320D01*
X6579870Y773176D01*
X6589013Y745489D01*
X6589013Y726947D01*
X6579870Y699262D01*
X6561327Y680720D01*
X6533641Y671576D01*
X6505956Y671576D01*
X6478270Y680720D01*
X6468872Y689863D01*
X6459727Y708405D01*
D11*
X5545327Y1327657D02*
G01*
X5535929Y1323086D01*
X5526531Y1313687D01*
X5521959Y1304289D01*
X5521959Y1285494D01*
X5526531Y1276095D01*
X5535929Y1266697D01*
X5545327Y1261871D01*
X5559552Y1257300D01*
X5582920Y1257300D01*
X5596890Y1261871D01*
X5606288Y1266697D01*
X5615686Y1276095D01*
X5620511Y1285494D01*
X5620511Y1304289D01*
X5615686Y1313687D01*
X5606288Y1323086D01*
X5596890Y1327657D01*
X5582920Y1327657D01*
X5582920Y1304289D02*
G01*
X5582920Y1327657D01*
X5521959Y1358645D02*
G01*
X5620511Y1358645D01*
X5521959Y1358645D02*
G01*
X5620511Y1424178D01*
X5521959Y1424178D02*
G01*
X5620511Y1424178D01*
X5521959Y1455165D02*
G01*
X5620511Y1455165D01*
X5521959Y1455165D02*
G01*
X5521959Y1488186D01*
X5526531Y1502155D01*
X5535929Y1511554D01*
X5545327Y1516126D01*
X5559552Y1520952D01*
X5582920Y1520952D01*
X5596890Y1516126D01*
X5606288Y1511554D01*
X5615686Y1502155D01*
X5620511Y1488186D01*
X5620511Y1455165D01*
X5775959Y1285494D02*
G01*
X5780531Y1276095D01*
X5789929Y1266697D01*
X5799327Y1261871D01*
X5813552Y1257300D01*
X5836920Y1257300D01*
X5850890Y1261871D01*
X5860288Y1266697D01*
X5869686Y1276095D01*
X5874511Y1285494D01*
X5874511Y1304289D01*
X5869686Y1313687D01*
X5860288Y1323086D01*
X5850890Y1327657D01*
X5836920Y1332229D01*
X5813552Y1332229D01*
X5799327Y1327657D01*
X5789929Y1323086D01*
X5780531Y1313687D01*
X5775959Y1304289D01*
X5775959Y1285494D01*
X5775959Y1363218D02*
G01*
X5846318Y1363218D01*
X5860288Y1368044D01*
X5869686Y1377442D01*
X5874511Y1391412D01*
X5874511Y1400810D01*
X5869686Y1415034D01*
X5860288Y1424178D01*
X5846318Y1429004D01*
X5775959Y1429004D01*
X5775959Y1492757D02*
G01*
X5874511Y1492757D01*
X5775959Y1459992D02*
G01*
X5775959Y1525523D01*
D12*
X7393686Y-1448307D02*
G01*
X7375143Y-1429765D01*
X7347458Y-1420621D01*
X7310627Y-1420621D01*
X7282941Y-1429765D01*
X7264400Y-1448307D01*
X7264400Y-1466850D01*
X7273543Y-1485137D01*
X7282941Y-1494536D01*
X7301229Y-1503679D01*
X7356856Y-1522221D01*
X7375143Y-1531365D01*
X7384541Y-1540510D01*
X7393686Y-1559052D01*
X7393686Y-1586737D01*
X7375143Y-1605279D01*
X7347458Y-1614423D01*
X7310627Y-1614423D01*
X7282941Y-1605279D01*
X7264400Y-1586737D01*
X7454645Y-1420621D02*
G01*
X7500874Y-1614423D01*
X7547102Y-1420621D02*
G01*
X7500874Y-1614423D01*
X7547102Y-1420621D02*
G01*
X7593329Y-1614423D01*
X7639304Y-1420621D02*
G01*
X7593329Y-1614423D01*
X7700263Y-1420621D02*
G01*
X7700263Y-1614423D01*
X7825993Y-1420621D02*
G01*
X7825993Y-1614423D01*
X7761224Y-1420621D02*
G01*
X7890509Y-1420621D01*
X8090154Y-1466850D02*
G01*
X8081009Y-1448307D01*
X8062468Y-1429765D01*
X8043925Y-1420621D01*
X8007095Y-1420621D01*
X7988554Y-1429765D01*
X7970011Y-1448307D01*
X7960868Y-1466850D01*
X7951470Y-1494536D01*
X7951470Y-1540510D01*
X7960868Y-1568450D01*
X7970011Y-1586737D01*
X7988554Y-1605279D01*
X8007095Y-1614423D01*
X8043925Y-1614423D01*
X8062468Y-1605279D01*
X8081009Y-1586737D01*
X8090154Y-1568450D01*
X8151113Y-1420621D02*
G01*
X8151113Y-1614423D01*
X8280400Y-1420621D02*
G01*
X8280400Y-1614423D01*
X8151113Y-1512823D02*
G01*
X8280400Y-1512823D01*
D11*
X6743700Y-1203960D02*
G01*
X6743700Y-1274318D01*
X6748272Y-1288287D01*
X6757670Y-1297686D01*
X6771893Y-1302512D01*
X6781291Y-1302512D01*
X6795261Y-1297686D01*
X6804659Y-1288287D01*
X6809486Y-1274318D01*
X6809486Y-1203960D01*
X6906006Y-1217929D02*
G01*
X6896608Y-1208531D01*
X6882638Y-1203960D01*
X6863841Y-1203960D01*
X6849618Y-1208531D01*
X6840220Y-1217929D01*
X6840220Y-1227328D01*
X6845045Y-1236726D01*
X6849618Y-1241552D01*
X6859015Y-1246123D01*
X6887209Y-1255521D01*
X6896608Y-1260347D01*
X6901434Y-1264920D01*
X6906006Y-1274318D01*
X6906006Y-1288287D01*
X6896608Y-1297686D01*
X6882638Y-1302512D01*
X6863841Y-1302512D01*
X6849618Y-1297686D01*
X6840220Y-1288287D01*
X6936993Y-1203960D02*
G01*
X6936993Y-1302512D01*
X6936993Y-1203960D02*
G01*
X6979158Y-1203960D01*
X6993381Y-1208531D01*
X6997954Y-1213357D01*
X7002525Y-1222755D01*
X7002525Y-1232154D01*
X6997954Y-1241552D01*
X6993381Y-1246123D01*
X6979158Y-1250950D01*
X6936993Y-1250950D02*
G01*
X6979158Y-1250950D01*
X6993381Y-1255521D01*
X6997954Y-1260347D01*
X7002525Y-1269745D01*
X7002525Y-1283715D01*
X6997954Y-1293113D01*
X6993381Y-1297686D01*
X6979158Y-1302512D01*
X6936993Y-1302512D01*
X7105904Y-1203960D02*
G01*
X7105904Y-1302512D01*
X7136891Y-1203960D02*
G01*
X7136891Y-1302512D01*
X7136891Y-1203960D02*
G01*
X7202424Y-1302512D01*
X7202424Y-1203960D02*
G01*
X7202424Y-1302512D01*
X7233411Y-1203960D02*
G01*
X7233411Y-1302512D01*
X7233411Y-1203960D02*
G01*
X7275575Y-1203960D01*
X7289800Y-1208531D01*
X7294372Y-1213357D01*
X7299197Y-1222755D01*
X7299197Y-1236726D01*
X7294372Y-1246123D01*
X7289800Y-1250950D01*
X7275575Y-1255521D01*
X7233411Y-1255521D01*
X7330186Y-1203960D02*
G01*
X7330186Y-1274318D01*
X7334758Y-1288287D01*
X7344156Y-1297686D01*
X7358125Y-1302512D01*
X7367524Y-1302512D01*
X7381747Y-1297686D01*
X7391145Y-1288287D01*
X7395718Y-1274318D01*
X7395718Y-1203960D01*
X7459472Y-1203960D02*
G01*
X7459472Y-1302512D01*
X7426706Y-1203960D02*
G01*
X7492491Y-1203960D01*
X6860286Y-963929D02*
G01*
X6850888Y-954531D01*
X6836663Y-949960D01*
X6817868Y-949960D01*
X6803897Y-954531D01*
X6794500Y-963929D01*
X6794500Y-973328D01*
X6799072Y-982726D01*
X6803897Y-987552D01*
X6813295Y-992123D01*
X6841490Y-1001521D01*
X6850888Y-1006347D01*
X6855459Y-1010920D01*
X6860286Y-1020318D01*
X6860286Y-1034287D01*
X6850888Y-1043686D01*
X6836663Y-1048512D01*
X6817868Y-1048512D01*
X6803897Y-1043686D01*
X6794500Y-1034287D01*
X6891020Y-949960D02*
G01*
X6914641Y-1048512D01*
X6938009Y-949960D02*
G01*
X6914641Y-1048512D01*
X6938009Y-949960D02*
G01*
X6961377Y-1048512D01*
X6985000Y-949960D02*
G01*
X6961377Y-1048512D01*
X7015988Y-1081278D02*
G01*
X7100315Y-1081278D01*
X7131304Y-949960D02*
G01*
X7131304Y-1048512D01*
X7131304Y-949960D02*
G01*
X7192263Y-949960D01*
X7131304Y-996950D02*
G01*
X7168895Y-996950D01*
X7223252Y-949960D02*
G01*
X7223252Y-1048512D01*
X7223252Y-1048512D02*
G01*
X7279640Y-1048512D01*
X7347965Y-949960D02*
G01*
X7310374Y-1048512D01*
X7347965Y-949960D02*
G01*
X7385558Y-1048512D01*
X7324597Y-1015745D02*
G01*
X7371588Y-1015745D01*
X7486904Y-973328D02*
G01*
X7482077Y-963929D01*
X7472679Y-954531D01*
X7463536Y-949960D01*
X7444740Y-949960D01*
X7435341Y-954531D01*
X7425943Y-963929D01*
X7421118Y-973328D01*
X7416545Y-987552D01*
X7416545Y-1010920D01*
X7421118Y-1024889D01*
X7425943Y-1034287D01*
X7435341Y-1043686D01*
X7444740Y-1048512D01*
X7463536Y-1048512D01*
X7472679Y-1043686D01*
X7482077Y-1034287D01*
X7486904Y-1024889D01*
X7486904Y-1010920D01*
X7463536Y-1010920D02*
G01*
X7486904Y-1010920D01*
X8051800Y-937260D02*
G01*
X8089391Y-1035812D01*
X8126729Y-937260D02*
G01*
X8089391Y-1035812D01*
X8228075Y-960628D02*
G01*
X8223504Y-951229D01*
X8214106Y-941831D01*
X8204708Y-937260D01*
X8185911Y-937260D01*
X8176513Y-941831D01*
X8167115Y-951229D01*
X8162543Y-960628D01*
X8157718Y-974852D01*
X8157718Y-998220D01*
X8162543Y-1012189D01*
X8167115Y-1021587D01*
X8176513Y-1030986D01*
X8185911Y-1035812D01*
X8204708Y-1035812D01*
X8214106Y-1030986D01*
X8223504Y-1021587D01*
X8228075Y-1012189D01*
X8329422Y-960628D02*
G01*
X8324850Y-951229D01*
X8315452Y-941831D01*
X8306054Y-937260D01*
X8287258Y-937260D01*
X8277859Y-941831D01*
X8268461Y-951229D01*
X8263890Y-960628D01*
X8259063Y-974852D01*
X8259063Y-998220D01*
X8263890Y-1012189D01*
X8268461Y-1021587D01*
X8277859Y-1030986D01*
X8287258Y-1035812D01*
X8306054Y-1035812D01*
X8315452Y-1030986D01*
X8324850Y-1021587D01*
X8329422Y-1012189D01*
X8051800Y-1203960D02*
G01*
X8051800Y-1302512D01*
X8051800Y-1203960D02*
G01*
X8093963Y-1203960D01*
X8108188Y-1208531D01*
X8112759Y-1213357D01*
X8117586Y-1222755D01*
X8117586Y-1232154D01*
X8112759Y-1241552D01*
X8108188Y-1246123D01*
X8093963Y-1250950D01*
X8051800Y-1250950D02*
G01*
X8093963Y-1250950D01*
X8108188Y-1255521D01*
X8112759Y-1260347D01*
X8117586Y-1269745D01*
X8117586Y-1283715D01*
X8112759Y-1293113D01*
X8108188Y-1297686D01*
X8093963Y-1302512D01*
X8051800Y-1302512D01*
X8185911Y-1203960D02*
G01*
X8148320Y-1302512D01*
X8185911Y-1203960D02*
G01*
X8223504Y-1302512D01*
X8162543Y-1269745D02*
G01*
X8209534Y-1269745D01*
X8287258Y-1203960D02*
G01*
X8287258Y-1302512D01*
X8254491Y-1203960D02*
G01*
X8320024Y-1203960D01*
X8384031Y-1203960D02*
G01*
X8384031Y-1302512D01*
X8351011Y-1203960D02*
G01*
X8416797Y-1203960D01*
X8447786Y-1203960D02*
G01*
X8447786Y-1302512D01*
X8447786Y-1203960D02*
G01*
X8508745Y-1203960D01*
X8447786Y-1250950D02*
G01*
X8485124Y-1250950D01*
X8447786Y-1302512D02*
G01*
X8508745Y-1302512D01*
X8539734Y-1203960D02*
G01*
X8539734Y-1302512D01*
X8539734Y-1203960D02*
G01*
X8581897Y-1203960D01*
X8595868Y-1208531D01*
X8600693Y-1213357D01*
X8605265Y-1222755D01*
X8605265Y-1232154D01*
X8600693Y-1241552D01*
X8595868Y-1246123D01*
X8581897Y-1250950D01*
X8539734Y-1250950D01*
X8572500Y-1250950D02*
G01*
X8605265Y-1302512D01*
X8636254Y-1203960D02*
G01*
X8673845Y-1250950D01*
X8673845Y-1302512D01*
X8711438Y-1203960D02*
G01*
X8673845Y-1250950D01*
X8784590Y-1217929D02*
G01*
X8784590Y-1302512D01*
X8742425Y-1260347D02*
G01*
X8826754Y-1260347D01*
D12*
X6976872Y-366521D02*
G01*
X6958329Y-375665D01*
X6940041Y-394207D01*
X6930643Y-412750D01*
X6921500Y-440436D01*
X6921500Y-486410D01*
X6930643Y-514350D01*
X6940041Y-532637D01*
X6958329Y-551179D01*
X6976872Y-560323D01*
X7013956Y-560323D01*
X7032243Y-551179D01*
X7050786Y-532637D01*
X7059929Y-514350D01*
X7069327Y-486410D01*
X7069327Y-440436D01*
X7059929Y-412750D01*
X7050786Y-394207D01*
X7032243Y-375665D01*
X7013956Y-366521D01*
X6976872Y-366521D01*
X7004558Y-523494D02*
G01*
X7059929Y-578865D01*
X7130288Y-403352D02*
G01*
X7148829Y-394207D01*
X7176515Y-366521D01*
X7176515Y-560323D01*
D11*
X6802627Y19557D02*
G01*
X6793229Y14986D01*
X6783831Y5587D01*
X6779259Y-3810D01*
X6779259Y-22605D01*
X6783831Y-32004D01*
X6793229Y-41402D01*
X6802627Y-46228D01*
X6816852Y-50800D01*
X6840220Y-50800D01*
X6854190Y-46228D01*
X6863588Y-41402D01*
X6872986Y-32004D01*
X6877811Y-22605D01*
X6877811Y-3810D01*
X6872986Y5587D01*
X6863588Y14986D01*
X6854190Y19557D01*
X6840220Y19557D01*
X6840220Y-3810D02*
G01*
X6840220Y19557D01*
X7045959Y-50800D02*
G01*
X7144511Y-50800D01*
X7045959Y-50800D02*
G01*
X7045959Y-18034D01*
X7050531Y-3810D01*
X7059929Y5587D01*
X7069327Y10160D01*
X7083552Y14986D01*
X7106920Y14986D01*
X7120890Y10160D01*
X7130288Y5587D01*
X7139686Y-3810D01*
X7144511Y-18034D01*
X7144511Y-50800D01*
X7313929Y14986D02*
G01*
X7304531Y5587D01*
X7299959Y-8636D01*
X7299959Y-27431D01*
X7304531Y-41402D01*
X7313929Y-50800D01*
X7323327Y-50800D01*
X7332725Y-46228D01*
X7337552Y-41402D01*
X7342124Y-32004D01*
X7351522Y-3810D01*
X7356347Y5587D01*
X7360920Y10160D01*
X7370318Y14986D01*
X7384288Y14986D01*
X7393686Y5587D01*
X7398511Y-8636D01*
X7398511Y-27431D01*
X7393686Y-41402D01*
X7384288Y-50800D01*
X7602727Y19557D02*
G01*
X7593329Y14986D01*
X7583931Y5587D01*
X7579359Y-3810D01*
X7579359Y-22605D01*
X7583931Y-32004D01*
X7593329Y-41402D01*
X7602727Y-46228D01*
X7616952Y-50800D01*
X7640320Y-50800D01*
X7654290Y-46228D01*
X7663688Y-41402D01*
X7673086Y-32004D01*
X7677911Y-22605D01*
X7677911Y-3810D01*
X7673086Y5587D01*
X7663688Y14986D01*
X7654290Y19557D01*
X7640320Y19557D01*
X7640320Y-3810D02*
G01*
X7640320Y19557D01*
X7846059Y-50800D02*
G01*
X7944611Y-50800D01*
X7846059Y-50800D02*
G01*
X7846059Y-18034D01*
X7850631Y-3810D01*
X7860029Y5587D01*
X7869427Y10160D01*
X7883652Y14986D01*
X7907020Y14986D01*
X7920990Y10160D01*
X7930388Y5587D01*
X7939786Y-3810D01*
X7944611Y-18034D01*
X7944611Y-50800D01*
X8114029Y14986D02*
G01*
X8104631Y5587D01*
X8100059Y-8636D01*
X8100059Y-27431D01*
X8104631Y-41402D01*
X8114029Y-50800D01*
X8123427Y-50800D01*
X8132825Y-46228D01*
X8137652Y-41402D01*
X8142224Y-32004D01*
X8151622Y-3810D01*
X8156447Y5587D01*
X8161020Y10160D01*
X8170418Y14986D01*
X8184388Y14986D01*
X8193786Y5587D01*
X8198611Y-8636D01*
X8198611Y-27431D01*
X8193786Y-41402D01*
X8184388Y-50800D01*
D12*
X7776972Y-366521D02*
G01*
X7758429Y-375665D01*
X7740141Y-394207D01*
X7730743Y-412750D01*
X7721600Y-440436D01*
X7721600Y-486410D01*
X7730743Y-514350D01*
X7740141Y-532637D01*
X7758429Y-551179D01*
X7776972Y-560323D01*
X7814056Y-560323D01*
X7832343Y-551179D01*
X7850886Y-532637D01*
X7860029Y-514350D01*
X7869427Y-486410D01*
X7869427Y-440436D01*
X7860029Y-412750D01*
X7850886Y-394207D01*
X7832343Y-375665D01*
X7814056Y-366521D01*
X7776972Y-366521D01*
X7804658Y-523494D02*
G01*
X7860029Y-578865D01*
X7939531Y-412750D02*
G01*
X7939531Y-403352D01*
X7948929Y-384810D01*
X7958074Y-375665D01*
X7976615Y-366521D01*
X8013445Y-366521D01*
X8031988Y-375665D01*
X8041131Y-384810D01*
X8050529Y-403352D01*
X8050529Y-421894D01*
X8041131Y-440436D01*
X8022590Y-468121D01*
X7930388Y-560323D01*
X8059674Y-560323D01*
X9156700Y-694532D02*
G01*
X9156700Y-888334D01*
X9156700Y-888334D02*
G01*
X9267443Y-888334D01*
X9328404Y-694532D02*
G01*
X9328404Y-888334D01*
X9328404Y-694532D02*
G01*
X9448545Y-694532D01*
X9328404Y-786734D02*
G01*
X9402318Y-786734D01*
X9328404Y-888334D02*
G01*
X9448545Y-888334D01*
X9509506Y-694532D02*
G01*
X9509506Y-888334D01*
X9509506Y-694532D02*
G01*
X9574275Y-694532D01*
X9601961Y-703676D01*
X9620250Y-722218D01*
X9629647Y-740760D01*
X9638791Y-768446D01*
X9638791Y-814420D01*
X9629647Y-842360D01*
X9620250Y-860648D01*
X9601961Y-879190D01*
X9574275Y-888334D01*
X9509506Y-888334D01*
D11*
X9166859Y-289910D02*
G01*
X9265411Y-289910D01*
X9166859Y-289910D02*
G01*
X9166859Y-247746D01*
X9171431Y-233522D01*
X9176258Y-228950D01*
X9185656Y-224124D01*
X9195054Y-224124D01*
X9204452Y-228950D01*
X9209024Y-233522D01*
X9213850Y-247746D01*
X9213850Y-289910D01*
X9213850Y-257144D02*
G01*
X9265411Y-224124D01*
X9444227Y-219552D02*
G01*
X9434829Y-224124D01*
X9425431Y-233522D01*
X9420859Y-242920D01*
X9420859Y-261716D01*
X9425431Y-271114D01*
X9434829Y-280512D01*
X9444227Y-285338D01*
X9458452Y-289910D01*
X9481820Y-289910D01*
X9495790Y-285338D01*
X9505188Y-280512D01*
X9514586Y-271114D01*
X9519411Y-261716D01*
X9519411Y-242920D01*
X9514586Y-233522D01*
X9505188Y-224124D01*
X9495790Y-219552D01*
X9481820Y-219552D01*
X9481820Y-242920D02*
G01*
X9481820Y-219552D01*
X9674859Y-289910D02*
G01*
X9773411Y-289910D01*
X9674859Y-289910D02*
G01*
X9674859Y-247746D01*
X9679431Y-233522D01*
X9684258Y-228950D01*
X9693656Y-224124D01*
X9703054Y-224124D01*
X9712452Y-228950D01*
X9717024Y-233522D01*
X9721850Y-247746D01*
X9721850Y-289910D02*
G01*
X9721850Y-247746D01*
X9726422Y-233522D01*
X9731247Y-228950D01*
X9740645Y-224124D01*
X9754615Y-224124D01*
X9764013Y-228950D01*
X9768586Y-233522D01*
X9773411Y-247746D01*
X9773411Y-289910D01*
X9952227Y-219552D02*
G01*
X9942829Y-224124D01*
X9933431Y-233522D01*
X9928859Y-242920D01*
X9928859Y-261716D01*
X9933431Y-271114D01*
X9942829Y-280512D01*
X9952227Y-285338D01*
X9966452Y-289910D01*
X9989820Y-289910D01*
X10003790Y-285338D01*
X10013188Y-280512D01*
X10022586Y-271114D01*
X10027411Y-261716D01*
X10027411Y-242920D01*
X10022586Y-233522D01*
X10013188Y-224124D01*
X10003790Y-219552D01*
X9989820Y-219552D01*
X9989820Y-242920D02*
G01*
X9989820Y-219552D01*
X9928859Y-188564D02*
G01*
X10027411Y-188564D01*
X9928859Y-188564D02*
G01*
X10027411Y-123032D01*
X9928859Y-123032D02*
G01*
X10027411Y-123032D01*
X9928859Y-92044D02*
G01*
X10027411Y-92044D01*
X9928859Y-92044D02*
G01*
X9928859Y-59024D01*
X9933431Y-45054D01*
X9942829Y-35656D01*
X9952227Y-31084D01*
X9966452Y-26258D01*
X9989820Y-26258D01*
X10003790Y-31084D01*
X10013188Y-35656D01*
X10022586Y-45054D01*
X10027411Y-59024D01*
X10027411Y-92044D01*
X10314940Y-76200D02*
G01*
X10216388Y-76200D01*
X10314940Y-76200D02*
G01*
X10314940Y-108965D01*
X10310368Y-123189D01*
X10300970Y-132587D01*
X10291572Y-137160D01*
X10277347Y-141986D01*
X10253979Y-141986D01*
X10240009Y-137160D01*
X10230611Y-132587D01*
X10221213Y-123189D01*
X10216388Y-108965D01*
X10216388Y-76200D01*
X10314940Y-172720D02*
G01*
X10216388Y-172720D01*
X10314940Y-231902D02*
G01*
X10310368Y-222504D01*
X10300970Y-213105D01*
X10291572Y-208534D01*
X10277347Y-203707D01*
X10253979Y-203707D01*
X10240009Y-208534D01*
X10230611Y-213105D01*
X10221213Y-222504D01*
X10216388Y-231902D01*
X10216388Y-250697D01*
X10221213Y-260095D01*
X10230611Y-269494D01*
X10240009Y-274065D01*
X10253979Y-278892D01*
X10277347Y-278892D01*
X10291572Y-274065D01*
X10300970Y-269494D01*
X10310368Y-260095D01*
X10314940Y-250697D01*
X10314940Y-231902D01*
X10314940Y-309879D02*
G01*
X10216388Y-309879D01*
X10314940Y-309879D02*
G01*
X10314940Y-342645D01*
X10310368Y-356615D01*
X10300970Y-366013D01*
X10291572Y-370839D01*
X10277347Y-375412D01*
X10253979Y-375412D01*
X10240009Y-370839D01*
X10230611Y-366013D01*
X10221213Y-356615D01*
X10216388Y-342645D01*
X10216388Y-309879D01*
X10314940Y-406400D02*
G01*
X10216388Y-406400D01*
X10314940Y-406400D02*
G01*
X10314940Y-467360D01*
X10267950Y-406400D02*
G01*
X10267950Y-443992D01*
X10216388Y-406400D02*
G01*
X10216388Y-467360D01*
X10183622Y-498347D02*
G01*
X10183622Y-582929D01*
X10314940Y-641857D02*
G01*
X10310368Y-632460D01*
X10300970Y-623062D01*
X10291572Y-618489D01*
X10277347Y-613663D01*
X10253979Y-613663D01*
X10240009Y-618489D01*
X10230611Y-623062D01*
X10221213Y-632460D01*
X10216388Y-641857D01*
X10216388Y-660654D01*
X10221213Y-670052D01*
X10230611Y-679450D01*
X10240009Y-684021D01*
X10253979Y-688847D01*
X10277347Y-688847D01*
X10291572Y-684021D01*
X10300970Y-679450D01*
X10310368Y-670052D01*
X10314940Y-660654D01*
X10314940Y-641857D01*
X10314940Y-719836D02*
G01*
X10244581Y-719836D01*
X10230611Y-724407D01*
X10221213Y-733805D01*
X10216388Y-748029D01*
X10216388Y-757428D01*
X10221213Y-771397D01*
X10230611Y-780795D01*
X10244581Y-785368D01*
X10314940Y-785368D01*
X10314940Y-849376D02*
G01*
X10216388Y-849376D01*
X10314940Y-816355D02*
G01*
X10314940Y-882142D01*
D10*
X8928100Y-1433321D02*
G01*
X8928100Y-1627123D01*
X8928100Y-1433321D02*
G01*
X9011158Y-1433321D01*
X9038843Y-1442465D01*
X9048241Y-1451610D01*
X9057386Y-1470152D01*
X9057386Y-1488694D01*
X9048241Y-1507236D01*
X9038843Y-1516379D01*
X9011158Y-1525523D01*
X8928100Y-1525523D02*
G01*
X9011158Y-1525523D01*
X9038843Y-1534921D01*
X9048241Y-1544065D01*
X9057386Y-1562607D01*
X9057386Y-1590294D01*
X9048241Y-1608836D01*
X9038843Y-1617979D01*
X9011158Y-1627123D01*
X8928100Y-1627123D01*
X9192259Y-1433321D02*
G01*
X9118345Y-1627123D01*
X9192259Y-1433321D02*
G01*
X9266174Y-1627123D01*
X9146031Y-1562607D02*
G01*
X9238488Y-1562607D01*
X9391650Y-1433321D02*
G01*
X9391650Y-1627123D01*
X9327134Y-1433321D02*
G01*
X9456420Y-1433321D01*
X9582150Y-1433321D02*
G01*
X9582150Y-1627123D01*
X9517379Y-1433321D02*
G01*
X9646665Y-1433321D01*
X9707625Y-1433321D02*
G01*
X9707625Y-1627123D01*
X9707625Y-1433321D02*
G01*
X9827768Y-1433321D01*
X9707625Y-1525523D02*
G01*
X9781540Y-1525523D01*
X9707625Y-1627123D02*
G01*
X9827768Y-1627123D01*
X9888727Y-1433321D02*
G01*
X9888727Y-1627123D01*
X9888727Y-1433321D02*
G01*
X9971786Y-1433321D01*
X9999472Y-1442465D01*
X10008870Y-1451610D01*
X10018013Y-1470152D01*
X10018013Y-1488694D01*
X10008870Y-1507236D01*
X9999472Y-1516379D01*
X9971786Y-1525523D01*
X9888727Y-1525523D01*
X9953243Y-1525523D02*
G01*
X10018013Y-1627123D01*
X10078974Y-1433321D02*
G01*
X10152888Y-1525523D01*
X10152888Y-1627123D01*
X10226802Y-1433321D02*
G01*
X10152888Y-1525523D01*
D11*
X9008363Y-1002029D02*
G01*
X9008363Y-1086612D01*
X8966200Y-1044447D02*
G01*
X9050527Y-1044447D01*
X9267952Y-1003300D02*
G01*
X9267952Y-1087628D01*
D12*
X8577072Y-353821D02*
G01*
X8558529Y-362965D01*
X8540241Y-381507D01*
X8530843Y-400050D01*
X8521700Y-427736D01*
X8521700Y-473710D01*
X8530843Y-501650D01*
X8540241Y-519937D01*
X8558529Y-538479D01*
X8577072Y-547623D01*
X8614156Y-547623D01*
X8632443Y-538479D01*
X8650986Y-519937D01*
X8660129Y-501650D01*
X8669527Y-473710D01*
X8669527Y-427736D01*
X8660129Y-400050D01*
X8650986Y-381507D01*
X8632443Y-362965D01*
X8614156Y-353821D01*
X8577072Y-353821D01*
X8604758Y-510794D02*
G01*
X8660129Y-566165D01*
X8749029Y-353821D02*
G01*
X8850629Y-353821D01*
X8795004Y-427736D01*
X8822690Y-427736D01*
X8841231Y-436879D01*
X8850629Y-446023D01*
X8859774Y-473710D01*
X8859774Y-492252D01*
X8850629Y-519937D01*
X8832088Y-538479D01*
X8804402Y-547623D01*
X8776715Y-547623D01*
X8749029Y-538479D01*
X8739631Y-529336D01*
X8730488Y-510794D01*
D11*
X8914129Y27686D02*
G01*
X8904731Y18287D01*
X8900159Y4063D01*
X8900159Y-14731D01*
X8904731Y-28702D01*
X8914129Y-38100D01*
X8923527Y-38100D01*
X8932925Y-33528D01*
X8937752Y-28702D01*
X8942324Y-19304D01*
X8951722Y8889D01*
X8956547Y18287D01*
X8961120Y22860D01*
X8970518Y27686D01*
X8984488Y27686D01*
X8993886Y18287D01*
X8998711Y4063D01*
X8998711Y-14731D01*
X8993886Y-28702D01*
X8984488Y-38100D01*
X8646159Y-38100D02*
G01*
X8744711Y-38100D01*
X8646159Y-38100D02*
G01*
X8646159Y-5334D01*
X8650731Y8889D01*
X8660129Y18287D01*
X8669527Y22860D01*
X8683752Y27686D01*
X8707120Y27686D01*
X8721090Y22860D01*
X8730488Y18287D01*
X8739886Y8889D01*
X8744711Y-5334D01*
X8744711Y-38100D01*
X8402827Y32257D02*
G01*
X8393429Y27686D01*
X8384031Y18287D01*
X8379459Y8889D01*
X8379459Y-9905D01*
X8384031Y-19304D01*
X8393429Y-28702D01*
X8402827Y-33528D01*
X8417052Y-38100D01*
X8440420Y-38100D01*
X8454390Y-33528D01*
X8463788Y-28702D01*
X8473186Y-19304D01*
X8478011Y-9905D01*
X8478011Y8889D01*
X8473186Y18287D01*
X8463788Y27686D01*
X8454390Y32257D01*
X8440420Y32257D01*
X8440420Y8889D02*
G01*
X8440420Y32257D01*
D13*
X9486900Y168305D02*
G01*
X9486900Y59339D01*
X9559543Y168305D02*
G01*
X9559543Y59339D01*
X9486900Y116489D02*
G01*
X9559543Y116489D01*
X9593834Y147477D02*
G01*
X9604247Y152811D01*
X9619995Y168305D01*
X9619995Y59339D01*
X9659365Y142397D02*
G01*
X9659365Y147477D01*
X9664700Y157891D01*
X9669779Y163225D01*
X9680193Y168305D01*
X9701022Y168305D01*
X9711436Y163225D01*
X9716515Y157891D01*
X9721850Y147477D01*
X9721850Y137063D01*
X9716515Y126649D01*
X9706102Y111155D01*
X9654286Y59339D01*
X9726929Y59339D01*
X9148305Y2375915D02*
G01*
X9148305Y2266950D01*
X9148305Y2375915D02*
G01*
X9195041Y2375915D01*
X9210535Y2370836D01*
X9215869Y2365502D01*
X9220949Y2355087D01*
X9220949Y2344673D01*
X9215869Y2334260D01*
X9210535Y2329179D01*
X9195041Y2324100D01*
X9148305Y2324100D01*
X9184627Y2324100D02*
G01*
X9220949Y2266950D01*
X9255239Y2355087D02*
G01*
X9265653Y2360421D01*
X9281401Y2375915D01*
X9281401Y2266950D01*
X9320771Y2350007D02*
G01*
X9320771Y2355087D01*
X9326105Y2365502D01*
X9331185Y2370836D01*
X9341599Y2375915D01*
X9362427Y2375915D01*
X9372841Y2370836D01*
X9377921Y2365502D01*
X9383255Y2355087D01*
X9383255Y2344673D01*
X9377921Y2334260D01*
X9367507Y2318765D01*
X9315691Y2266950D01*
X9388335Y2266950D01*
X3418065Y2235707D02*
G01*
X3412731Y2246121D01*
X3402317Y2256536D01*
X3392157Y2261615D01*
X3371329Y2261615D01*
X3360915Y2256536D01*
X3350501Y2246121D01*
X3345167Y2235707D01*
X3340087Y2219960D01*
X3340087Y2194052D01*
X3345167Y2178557D01*
X3350501Y2168144D01*
X3360915Y2157729D01*
X3371329Y2152650D01*
X3392157Y2152650D01*
X3402317Y2157729D01*
X3412731Y2168144D01*
X3418065Y2178557D01*
X3452355Y2240787D02*
G01*
X3462769Y2246121D01*
X3478263Y2261615D01*
X3478263Y2152650D01*
X3316475Y2756407D02*
G01*
X3311141Y2766821D01*
X3300727Y2777236D01*
X3290567Y2782315D01*
X3269739Y2782315D01*
X3259325Y2777236D01*
X3248911Y2766821D01*
X3243577Y2756407D01*
X3238497Y2740660D01*
X3238497Y2714752D01*
X3243577Y2699257D01*
X3248911Y2688844D01*
X3259325Y2678429D01*
X3269739Y2673350D01*
X3290567Y2673350D01*
X3300727Y2678429D01*
X3311141Y2688844D01*
X3316475Y2699257D01*
X3355845Y2756407D02*
G01*
X3355845Y2761487D01*
X3361179Y2771902D01*
X3366259Y2777236D01*
X3376673Y2782315D01*
X3397501Y2782315D01*
X3407915Y2777236D01*
X3412995Y2771902D01*
X3418329Y2761487D01*
X3418329Y2751073D01*
X3412995Y2740660D01*
X3402581Y2725165D01*
X3350765Y2673350D01*
X3423409Y2673350D01*
X2095500Y2629915D02*
G01*
X2095500Y2520950D01*
X2095500Y2629915D02*
G01*
X2131822Y2629915D01*
X2147570Y2624836D01*
X2157729Y2614421D01*
X2163063Y2604007D01*
X2168143Y2588260D01*
X2168143Y2562352D01*
X2163063Y2546857D01*
X2157729Y2536444D01*
X2147570Y2526029D01*
X2131822Y2520950D01*
X2095500Y2520950D01*
X2233675Y2629915D02*
G01*
X2223261Y2624836D01*
X2212847Y2614421D01*
X2207768Y2604007D01*
X2202434Y2588260D01*
X2202434Y2562352D01*
X2207768Y2546857D01*
X2212847Y2536444D01*
X2223261Y2526029D01*
X2233675Y2520950D01*
X2254504Y2520950D01*
X2264918Y2526029D01*
X2275331Y2536444D01*
X2280411Y2546857D01*
X2285745Y2562352D01*
X2285745Y2588260D01*
X2280411Y2604007D01*
X2275331Y2614421D01*
X2264918Y2624836D01*
X2254504Y2629915D01*
X2233675Y2629915D01*
X2320036Y2629915D02*
G01*
X2345943Y2520950D01*
X2371852Y2629915D02*
G01*
X2345943Y2520950D01*
X2371852Y2629915D02*
G01*
X2397759Y2520950D01*
X2423922Y2629915D02*
G01*
X2397759Y2520950D01*
X2458211Y2629915D02*
G01*
X2458211Y2520950D01*
X2458211Y2629915D02*
G01*
X2530856Y2520950D01*
X2530856Y2629915D02*
G01*
X2530856Y2520950D01*
X2565145Y2609087D02*
G01*
X2575559Y2614421D01*
X2591054Y2629915D01*
X2591054Y2520950D01*
X1117600Y2617215D02*
G01*
X1117600Y2539237D01*
X1122679Y2523744D01*
X1133094Y2513329D01*
X1148842Y2508250D01*
X1159255Y2508250D01*
X1174750Y2513329D01*
X1185163Y2523744D01*
X1190244Y2539237D01*
X1190244Y2617215D01*
X1224534Y2617215D02*
G01*
X1224534Y2508250D01*
X1224534Y2617215D02*
G01*
X1271270Y2617215D01*
X1287018Y2612136D01*
X1292097Y2606802D01*
X1297431Y2596387D01*
X1297431Y2580894D01*
X1292097Y2570479D01*
X1287018Y2565400D01*
X1271270Y2560065D01*
X1224534Y2560065D01*
X1331721Y2596387D02*
G01*
X1342136Y2601721D01*
X1357629Y2617215D01*
X1357629Y2508250D01*
X4838700Y1626615D02*
G01*
X4838700Y1517650D01*
X4911343Y1626615D02*
G01*
X4911343Y1517650D01*
X4838700Y1574800D02*
G01*
X4911343Y1574800D01*
X4945634Y1605787D02*
G01*
X4956047Y1611121D01*
X4971795Y1626615D01*
X4971795Y1517650D01*
X6210300Y1334515D02*
G01*
X6210300Y1225550D01*
X6282943Y1334515D02*
G01*
X6282943Y1225550D01*
X6210300Y1282700D02*
G01*
X6282943Y1282700D01*
X6322568Y1308607D02*
G01*
X6322568Y1313687D01*
X6327647Y1324102D01*
X6332981Y1329436D01*
X6343395Y1334515D01*
X6363970Y1334515D01*
X6374384Y1329436D01*
X6379718Y1324102D01*
X6384797Y1313687D01*
X6384797Y1303273D01*
X6379718Y1292860D01*
X6369304Y1277365D01*
X6317234Y1225550D01*
X6390131Y1225550D01*
X9753600Y-976884D02*
G01*
X9753600Y-1085850D01*
X9826243Y-976884D02*
G01*
X9826243Y-1085850D01*
X9753600Y-1028700D02*
G01*
X9826243Y-1028700D01*
X9912604Y-976884D02*
G01*
X9860534Y-1049528D01*
X9938511Y-1049528D01*
X9912604Y-976884D02*
G01*
X9912604Y-1085850D01*
X7683500Y-684784D02*
G01*
X7683500Y-793750D01*
X7756143Y-684784D02*
G01*
X7756143Y-793750D01*
X7683500Y-736600D02*
G01*
X7756143Y-736600D01*
X7800847Y-684784D02*
G01*
X7857997Y-684784D01*
X7827009Y-726439D01*
X7842504Y-726439D01*
X7852918Y-731520D01*
X7857997Y-736600D01*
X7863331Y-752347D01*
X7863331Y-762762D01*
X7857997Y-778255D01*
X7847584Y-788670D01*
X7832090Y-793750D01*
X7816595Y-793750D01*
X7800847Y-788670D01*
X7795768Y-783589D01*
X7790434Y-773176D01*
X7010400Y191515D02*
G01*
X7010400Y82550D01*
X7083043Y191515D02*
G01*
X7083043Y82550D01*
X7010400Y139700D02*
G01*
X7083043Y139700D01*
X7179818Y191515D02*
G01*
X7127747Y191515D01*
X7122668Y144779D01*
X7127747Y149860D01*
X7143495Y155194D01*
X7158990Y155194D01*
X7174484Y149860D01*
X7184897Y139700D01*
X7190231Y123952D01*
X7190231Y113537D01*
X7184897Y98044D01*
X7174484Y87629D01*
X7158990Y82550D01*
X7143495Y82550D01*
X7127747Y87629D01*
X7122668Y92710D01*
X7117334Y103123D01*
X7810500Y191515D02*
G01*
X7810500Y82550D01*
X7883143Y191515D02*
G01*
X7883143Y82550D01*
X7810500Y139700D02*
G01*
X7883143Y139700D01*
X7979918Y176021D02*
G01*
X7974584Y186436D01*
X7959090Y191515D01*
X7948675Y191515D01*
X7933181Y186436D01*
X7922768Y170687D01*
X7917434Y144779D01*
X7917434Y118871D01*
X7922768Y98044D01*
X7933181Y87629D01*
X7948675Y82550D01*
X7954009Y82550D01*
X7969504Y87629D01*
X7979918Y98044D01*
X7984997Y113537D01*
X7984997Y118871D01*
X7979918Y134365D01*
X7969504Y144779D01*
X7954009Y149860D01*
X7948675Y149860D01*
X7933181Y144779D01*
X7922768Y134365D01*
X7917434Y118871D01*
X8610600Y191515D02*
G01*
X8610600Y82550D01*
X8683243Y191515D02*
G01*
X8683243Y82550D01*
X8610600Y139700D02*
G01*
X8683243Y139700D01*
X8790431Y191515D02*
G01*
X8738361Y82550D01*
X8717534Y191515D02*
G01*
X8790431Y191515D01*
X10529315Y-318770D02*
G01*
X10446258Y-318770D01*
X10430509Y-313436D01*
X10425429Y-308355D01*
X10420350Y-297942D01*
X10420350Y-287528D01*
X10425429Y-277113D01*
X10430509Y-271779D01*
X10446258Y-266700D01*
X10456672Y-266700D01*
X10508488Y-353060D02*
G01*
X10513822Y-363220D01*
X10529315Y-378968D01*
X10420350Y-378968D01*
X1612900Y1766315D02*
G01*
X1612900Y1657350D01*
X1612900Y1766315D02*
G01*
X1659636Y1766315D01*
X1675129Y1761236D01*
X1680463Y1755902D01*
X1685544Y1745487D01*
X1685544Y1729994D01*
X1680463Y1719579D01*
X1675129Y1714500D01*
X1659636Y1709165D01*
X1612900Y1709165D01*
X1725168Y1740407D02*
G01*
X1725168Y1745487D01*
X1730247Y1755902D01*
X1735581Y1761236D01*
X1745995Y1766315D01*
X1766570Y1766315D01*
X1776984Y1761236D01*
X1782318Y1755902D01*
X1787397Y1745487D01*
X1787397Y1735073D01*
X1782318Y1724660D01*
X1771904Y1709165D01*
X1719834Y1657350D01*
X1792731Y1657350D01*
X1049528Y-1542542D02*
G01*
X1059942Y-1545844D01*
X1066800Y-1552955D01*
X1070355Y-1563370D01*
X1070355Y-1566671D01*
X1066800Y-1577086D01*
X1059942Y-1583944D01*
X1049528Y-1587500D01*
X1045971Y-1587500D01*
X1035557Y-1583944D01*
X1028700Y-1577086D01*
X1025144Y-1566671D01*
X1025144Y-1563370D01*
X1028700Y-1552955D01*
X1035557Y-1545844D01*
X1049528Y-1542542D01*
X1066800Y-1542542D01*
X1084071Y-1545844D01*
X1094486Y-1552955D01*
X1098042Y-1563370D01*
X1098042Y-1570228D01*
X1094486Y-1580642D01*
X1087628Y-1583944D01*
X1025144Y-1316228D02*
G01*
X1028700Y-1326642D01*
X1035557Y-1329944D01*
X1042670Y-1329944D01*
X1049528Y-1326642D01*
X1052829Y-1319529D01*
X1056386Y-1305813D01*
X1059942Y-1295400D01*
X1066800Y-1288542D01*
X1073657Y-1284986D01*
X1084071Y-1284986D01*
X1090929Y-1288542D01*
X1094486Y-1291844D01*
X1098042Y-1302257D01*
X1098042Y-1316228D01*
X1094486Y-1326642D01*
X1090929Y-1329944D01*
X1084071Y-1333500D01*
X1073657Y-1333500D01*
X1066800Y-1329944D01*
X1059942Y-1323086D01*
X1056386Y-1312671D01*
X1052829Y-1298955D01*
X1049528Y-1291844D01*
X1042670Y-1288542D01*
X1035557Y-1288542D01*
X1028700Y-1291844D01*
X1025144Y-1302257D01*
X1025144Y-1316228D01*
X1025144Y-1018286D02*
G01*
X1098042Y-1052829D01*
X1025144Y-1066800D02*
G01*
X1025144Y-1018286D01*
X1035557Y-783844D02*
G01*
X1028700Y-787400D01*
X1025144Y-797813D01*
X1025144Y-804671D01*
X1028700Y-815086D01*
X1039113Y-821944D01*
X1056386Y-825500D01*
X1073657Y-825500D01*
X1087628Y-821944D01*
X1094486Y-815086D01*
X1098042Y-804671D01*
X1098042Y-801370D01*
X1094486Y-790955D01*
X1087628Y-783844D01*
X1077213Y-780542D01*
X1073657Y-780542D01*
X1063244Y-783844D01*
X1056386Y-790955D01*
X1052829Y-801370D01*
X1052829Y-804671D01*
X1056386Y-815086D01*
X1063244Y-821944D01*
X1073657Y-825500D01*
X1025144Y-529844D02*
G01*
X1025144Y-564642D01*
X1056386Y-567944D01*
X1052829Y-564642D01*
X1049528Y-554228D01*
X1049528Y-543813D01*
X1052829Y-533400D01*
X1059942Y-526542D01*
X1070355Y-522986D01*
X1077213Y-522986D01*
X1087628Y-526542D01*
X1094486Y-533400D01*
X1098042Y-543813D01*
X1098042Y-554228D01*
X1094486Y-564642D01*
X1090929Y-567944D01*
X1084071Y-571500D01*
X1025144Y-282955D02*
G01*
X1073657Y-317500D01*
X1073657Y-265429D01*
X1025144Y-282955D02*
G01*
X1098042Y-282955D01*
X1030223Y-56642D02*
G01*
X1030223Y-18542D01*
X1057910Y-39370D01*
X1057910Y-28955D01*
X1061465Y-21844D01*
X1065021Y-18542D01*
X1075436Y-14986D01*
X1082294Y-14986D01*
X1092707Y-18542D01*
X1099565Y-25400D01*
X1103121Y-35813D01*
X1103121Y-46228D01*
X1099565Y-56642D01*
X1096010Y-59944D01*
X1089152Y-63500D01*
X1021079Y205739D02*
G01*
X1018539Y205739D01*
X1013460Y208279D01*
X1010920Y210820D01*
X1008379Y215900D01*
X1008379Y226060D01*
X1010920Y231139D01*
X1013460Y233679D01*
X1018539Y236220D01*
X1023620Y236220D01*
X1028700Y233679D01*
X1036320Y228600D01*
X1061720Y203200D01*
X1061720Y238760D01*
X1036320Y406400D02*
G01*
X1031239Y403860D01*
X1026160Y398779D01*
X1023620Y393700D01*
X1023620Y383539D01*
X1026160Y378460D01*
X1031239Y373379D01*
X1036320Y370839D01*
X1043939Y368300D01*
X1056639Y368300D01*
X1064260Y370839D01*
X1069339Y373379D01*
X1074420Y378460D01*
X1076960Y383539D01*
X1076960Y393700D01*
X1074420Y398779D01*
X1069339Y403860D01*
X1064260Y406400D01*
X1056639Y406400D01*
X1056639Y393700D02*
G01*
X1056639Y406400D01*
X1023620Y423163D02*
G01*
X1076960Y423163D01*
X1023620Y423163D02*
G01*
X1076960Y458723D01*
X1023620Y458723D02*
G01*
X1076960Y458723D01*
X1023620Y475487D02*
G01*
X1076960Y475487D01*
X1023620Y475487D02*
G01*
X1023620Y493268D01*
X1026160Y500887D01*
X1031239Y505968D01*
X1036320Y508507D01*
X1043939Y511047D01*
X1056639Y511047D01*
X1064260Y508507D01*
X1069339Y505968D01*
X1074420Y500887D01*
X1076960Y493268D01*
X1076960Y475487D01*
X1023620Y635000D02*
G01*
X1076960Y635000D01*
X1023620Y635000D02*
G01*
X1023620Y657860D01*
X1026160Y665479D01*
X1028700Y668020D01*
X1033779Y670560D01*
X1038860Y670560D01*
X1043939Y668020D01*
X1046479Y665479D01*
X1049020Y657860D01*
X1049020Y635000D01*
X1049020Y652779D02*
G01*
X1076960Y670560D01*
X1031239Y722884D02*
G01*
X1026160Y717804D01*
X1023620Y710184D01*
X1023620Y700023D01*
X1026160Y692404D01*
X1031239Y687323D01*
X1036320Y687323D01*
X1041400Y689863D01*
X1043939Y692404D01*
X1046479Y697484D01*
X1051560Y712723D01*
X1054100Y717804D01*
X1056639Y720344D01*
X1061720Y722884D01*
X1069339Y722884D01*
X1074420Y717804D01*
X1076960Y710184D01*
X1076960Y700023D01*
X1074420Y692404D01*
X1069339Y687323D01*
X1023620Y757428D02*
G01*
X1076960Y757428D01*
X1023620Y739647D02*
G01*
X1023620Y775207D01*
X1023620Y889000D02*
G01*
X1076960Y889000D01*
X1023620Y889000D02*
G01*
X1023620Y911860D01*
X1026160Y919479D01*
X1028700Y922020D01*
X1033779Y924560D01*
X1038860Y924560D01*
X1043939Y922020D01*
X1046479Y919479D01*
X1049020Y911860D01*
X1049020Y889000D01*
X1049020Y906779D02*
G01*
X1076960Y924560D01*
X1023620Y941323D02*
G01*
X1076960Y976884D01*
X1023620Y976884D02*
G01*
X1076960Y941323D01*
X1023620Y993647D02*
G01*
X1076960Y993647D01*
X1023620Y1160779D02*
G01*
X1076960Y1160779D01*
X1023620Y1143000D02*
G01*
X1023620Y1178560D01*
X1023620Y1195323D02*
G01*
X1076960Y1230884D01*
X1023620Y1230884D02*
G01*
X1076960Y1195323D01*
X1023620Y1262887D02*
G01*
X1026160Y1257807D01*
X1031239Y1252728D01*
X1036320Y1250187D01*
X1043939Y1247647D01*
X1056639Y1247647D01*
X1064260Y1250187D01*
X1069339Y1252728D01*
X1074420Y1257807D01*
X1076960Y1262887D01*
X1076960Y1273047D01*
X1074420Y1278128D01*
X1069339Y1283207D01*
X1064260Y1285747D01*
X1056639Y1288287D01*
X1043939Y1288287D01*
X1036320Y1285747D01*
X1031239Y1283207D01*
X1026160Y1278128D01*
X1023620Y1273047D01*
X1023620Y1262887D01*
X1910079Y1338579D02*
G01*
X1910079Y1285239D01*
X1892300Y1338579D02*
G01*
X1927860Y1338579D01*
X1944624Y1338579D02*
G01*
X1980184Y1285239D01*
X1980184Y1338579D02*
G01*
X1944624Y1285239D01*
X2012188Y1338579D02*
G01*
X2007108Y1336039D01*
X2002027Y1330960D01*
X1999488Y1325879D01*
X1996947Y1318260D01*
X1996947Y1305560D01*
X1999488Y1297939D01*
X2002027Y1292860D01*
X2007108Y1287779D01*
X2012188Y1285239D01*
X2022347Y1285239D01*
X2027427Y1287779D01*
X2032508Y1292860D01*
X2035047Y1297939D01*
X2037588Y1305560D01*
X2037588Y1318260D01*
X2035047Y1325879D01*
X2032508Y1330960D01*
X2027427Y1336039D01*
X2022347Y1338579D01*
X2012188Y1338579D01*
X1651000Y1338579D02*
G01*
X1651000Y1285239D01*
X1651000Y1338579D02*
G01*
X1673860Y1338579D01*
X1681479Y1336039D01*
X1684020Y1333500D01*
X1686560Y1328420D01*
X1686560Y1323339D01*
X1684020Y1318260D01*
X1681479Y1315720D01*
X1673860Y1313179D01*
X1651000Y1313179D01*
X1668779Y1313179D02*
G01*
X1686560Y1285239D01*
X1703323Y1338579D02*
G01*
X1738884Y1285239D01*
X1738884Y1338579D02*
G01*
X1703323Y1285239D01*
X1755647Y1338579D02*
G01*
X1755647Y1285239D01*
X2230120Y1143000D02*
G01*
X2283459Y1143000D01*
X2230120Y1143000D02*
G01*
X2230120Y1165860D01*
X2232659Y1173479D01*
X2235200Y1176020D01*
X2240279Y1178560D01*
X2245359Y1178560D01*
X2250440Y1176020D01*
X2252979Y1173479D01*
X2255520Y1165860D01*
X2255520Y1143000D01*
X2255520Y1160779D02*
G01*
X2283459Y1178560D01*
X2230120Y1215644D02*
G01*
X2283459Y1195323D01*
X2230120Y1215644D02*
G01*
X2283459Y1235963D01*
X2265679Y1202944D02*
G01*
X2265679Y1228344D01*
X2230120Y1252728D02*
G01*
X2283459Y1265428D01*
X2230120Y1278128D02*
G01*
X2283459Y1265428D01*
X2230120Y1278128D02*
G01*
X2283459Y1290828D01*
X2230120Y1303528D02*
G01*
X2283459Y1290828D01*
X2242820Y927100D02*
G01*
X2237740Y924560D01*
X2232659Y919479D01*
X2230120Y914400D01*
X2230120Y904239D01*
X2232659Y899160D01*
X2237740Y894079D01*
X2242820Y891539D01*
X2250440Y889000D01*
X2263140Y889000D01*
X2270759Y891539D01*
X2275840Y894079D01*
X2280920Y899160D01*
X2283459Y904239D01*
X2283459Y914400D01*
X2280920Y919479D01*
X2275840Y924560D01*
X2270759Y927100D01*
X2263140Y927100D01*
X2263140Y914400D02*
G01*
X2263140Y927100D01*
X2230120Y943863D02*
G01*
X2283459Y943863D01*
X2230120Y943863D02*
G01*
X2283459Y979423D01*
X2230120Y979423D02*
G01*
X2283459Y979423D01*
X2230120Y996187D02*
G01*
X2283459Y996187D01*
X2230120Y996187D02*
G01*
X2230120Y1013968D01*
X2232659Y1021587D01*
X2237740Y1026668D01*
X2242820Y1029207D01*
X2250440Y1031747D01*
X2263140Y1031747D01*
X2270759Y1029207D01*
X2275840Y1026668D01*
X2280920Y1021587D01*
X2283459Y1013968D01*
X2283459Y996187D01*
X2230120Y635000D02*
G01*
X2283459Y635000D01*
X2230120Y635000D02*
G01*
X2230120Y657860D01*
X2232659Y665479D01*
X2235200Y668020D01*
X2240279Y670560D01*
X2245359Y670560D01*
X2250440Y668020D01*
X2252979Y665479D01*
X2255520Y657860D01*
X2255520Y635000D01*
X2255520Y652779D02*
G01*
X2283459Y670560D01*
X2237740Y722884D02*
G01*
X2232659Y717804D01*
X2230120Y710184D01*
X2230120Y700023D01*
X2232659Y692404D01*
X2237740Y687323D01*
X2242820Y687323D01*
X2247900Y689863D01*
X2250440Y692404D01*
X2252979Y697484D01*
X2258059Y712723D01*
X2260600Y717804D01*
X2263140Y720344D01*
X2268220Y722884D01*
X2275840Y722884D01*
X2280920Y717804D01*
X2283459Y710184D01*
X2283459Y700023D01*
X2280920Y692404D01*
X2275840Y687323D01*
X2230120Y757428D02*
G01*
X2283459Y757428D01*
X2230120Y739647D02*
G01*
X2230120Y775207D01*
X2230120Y381000D02*
G01*
X2283459Y401320D01*
X2230120Y421639D02*
G01*
X2283459Y401320D01*
X2242820Y476504D02*
G01*
X2237740Y473963D01*
X2232659Y468884D01*
X2230120Y463804D01*
X2230120Y453644D01*
X2232659Y448563D01*
X2237740Y443484D01*
X2242820Y440944D01*
X2250440Y438404D01*
X2263140Y438404D01*
X2270759Y440944D01*
X2275840Y443484D01*
X2280920Y448563D01*
X2283459Y453644D01*
X2283459Y463804D01*
X2280920Y468884D01*
X2275840Y473963D01*
X2270759Y476504D01*
X2242820Y531368D02*
G01*
X2237740Y528828D01*
X2232659Y523747D01*
X2230120Y518668D01*
X2230120Y508507D01*
X2232659Y503428D01*
X2237740Y498347D01*
X2242820Y495807D01*
X2250440Y493268D01*
X2263140Y493268D01*
X2270759Y495807D01*
X2275840Y498347D01*
X2280920Y503428D01*
X2283459Y508507D01*
X2283459Y518668D01*
X2280920Y523747D01*
X2275840Y528828D01*
X2270759Y531368D01*
X2230120Y185420D02*
G01*
X2283459Y165100D01*
X2230120Y185420D02*
G01*
X2283459Y205739D01*
X2265679Y172720D02*
G01*
X2265679Y198120D01*
X2230120Y227584D02*
G01*
X2230120Y255523D01*
X2250440Y240284D01*
X2250440Y247904D01*
X2252979Y252984D01*
X2255520Y255523D01*
X2263140Y258063D01*
X2268220Y258063D01*
X2275840Y255523D01*
X2280920Y250444D01*
X2283459Y242823D01*
X2283459Y235204D01*
X2280920Y227584D01*
X2278379Y225044D01*
X2273300Y222504D01*
X2230120Y-68579D02*
G01*
X2283459Y-88900D01*
X2230120Y-68579D02*
G01*
X2283459Y-48260D01*
X2265679Y-81279D02*
G01*
X2265679Y-55879D01*
X2242820Y-28955D02*
G01*
X2240279Y-28955D01*
X2235200Y-26415D01*
X2232659Y-23876D01*
X2230120Y-18795D01*
X2230120Y-8636D01*
X2232659Y-3555D01*
X2235200Y-1015D01*
X2240279Y1523D01*
X2245359Y1523D01*
X2250440Y-1015D01*
X2258059Y-6095D01*
X2283459Y-31495D01*
X2283459Y4063D01*
X2218943Y-327913D02*
G01*
X2291841Y-355600D01*
X2218943Y-327913D02*
G01*
X2291841Y-300228D01*
X2267458Y-345186D02*
G01*
X2267458Y-310642D01*
X2232913Y-277368D02*
G01*
X2229358Y-270510D01*
X2218943Y-260095D01*
X2291841Y-260095D01*
X2218943Y-581913D02*
G01*
X2291841Y-609600D01*
X2218943Y-581913D02*
G01*
X2291841Y-554228D01*
X2267458Y-599186D02*
G01*
X2267458Y-564642D01*
X2218943Y-510539D02*
G01*
X2222500Y-520954D01*
X2232913Y-527812D01*
X2250186Y-531368D01*
X2260600Y-531368D01*
X2277872Y-527812D01*
X2288286Y-520954D01*
X2291841Y-510539D01*
X2291841Y-503681D01*
X2288286Y-493268D01*
X2277872Y-486410D01*
X2260600Y-482854D01*
X2250186Y-482854D01*
X2232913Y-486410D01*
X2222500Y-493268D01*
X2218943Y-503681D01*
X2218943Y-510539D01*
X2232913Y-863600D02*
G01*
X2229358Y-856742D01*
X2218943Y-846328D01*
X2291841Y-846328D01*
X2218943Y-816610D02*
G01*
X2218943Y-778510D01*
X2246629Y-799084D01*
X2246629Y-788670D01*
X2250186Y-781812D01*
X2253741Y-778510D01*
X2264156Y-774954D01*
X2271013Y-774954D01*
X2281427Y-778510D01*
X2288286Y-785368D01*
X2291841Y-795781D01*
X2291841Y-806195D01*
X2288286Y-816610D01*
X2284729Y-819912D01*
X2277872Y-823468D01*
X2232913Y-1117600D02*
G01*
X2229358Y-1110742D01*
X2218943Y-1100328D01*
X2291841Y-1100328D01*
X2236470Y-1073912D02*
G01*
X2232913Y-1073912D01*
X2226056Y-1070610D01*
X2222500Y-1067054D01*
X2218943Y-1060195D01*
X2218943Y-1046226D01*
X2222500Y-1039368D01*
X2226056Y-1035812D01*
X2232913Y-1032510D01*
X2239772Y-1032510D01*
X2246629Y-1035812D01*
X2257043Y-1042670D01*
X2291841Y-1077468D01*
X2291841Y-1028954D01*
X2232913Y-1371600D02*
G01*
X2229358Y-1364742D01*
X2218943Y-1354328D01*
X2291841Y-1354328D01*
X2232913Y-1331468D02*
G01*
X2229358Y-1324610D01*
X2218943Y-1314195D01*
X2291841Y-1314195D01*
X2232913Y-1625600D02*
G01*
X2229358Y-1618742D01*
X2218943Y-1608328D01*
X2291841Y-1608328D01*
X2218943Y-1564639D02*
G01*
X2222500Y-1575054D01*
X2232913Y-1581912D01*
X2250186Y-1585468D01*
X2260600Y-1585468D01*
X2277872Y-1581912D01*
X2288286Y-1575054D01*
X2291841Y-1564639D01*
X2291841Y-1557781D01*
X2288286Y-1547368D01*
X2277872Y-1540510D01*
X2260600Y-1536954D01*
X2250186Y-1536954D01*
X2232913Y-1540510D01*
X2222500Y-1547368D01*
X2218943Y-1557781D01*
X2218943Y-1564639D01*
X1384300Y1338579D02*
G01*
X1404620Y1285239D01*
X1424939Y1338579D02*
G01*
X1404620Y1285239D01*
X1479804Y1325879D02*
G01*
X1477263Y1330960D01*
X1472184Y1336039D01*
X1467104Y1338579D01*
X1456944Y1338579D01*
X1451863Y1336039D01*
X1446784Y1330960D01*
X1444244Y1325879D01*
X1441704Y1318260D01*
X1441704Y1305560D01*
X1444244Y1297939D01*
X1446784Y1292860D01*
X1451863Y1287779D01*
X1456944Y1285239D01*
X1467104Y1285239D01*
X1472184Y1287779D01*
X1477263Y1292860D01*
X1479804Y1297939D01*
X1534668Y1325879D02*
G01*
X1532128Y1330960D01*
X1527047Y1336039D01*
X1521968Y1338579D01*
X1511807Y1338579D01*
X1506728Y1336039D01*
X1501647Y1330960D01*
X1499107Y1325879D01*
X1496568Y1318260D01*
X1496568Y1305560D01*
X1499107Y1297939D01*
X1501647Y1292860D01*
X1506728Y1287779D01*
X1511807Y1285239D01*
X1521968Y1285239D01*
X1527047Y1287779D01*
X1532128Y1292860D01*
X1534668Y1297939D01*
X1168400Y1325879D02*
G01*
X1165860Y1330960D01*
X1160779Y1336039D01*
X1155700Y1338579D01*
X1145539Y1338579D01*
X1140460Y1336039D01*
X1135379Y1330960D01*
X1132839Y1325879D01*
X1130300Y1318260D01*
X1130300Y1305560D01*
X1132839Y1297939D01*
X1135379Y1292860D01*
X1140460Y1287779D01*
X1145539Y1285239D01*
X1155700Y1285239D01*
X1160779Y1287779D01*
X1165860Y1292860D01*
X1168400Y1297939D01*
X1168400Y1305560D01*
X1155700Y1305560D02*
G01*
X1168400Y1305560D01*
X1185163Y1338579D02*
G01*
X1185163Y1285239D01*
X1185163Y1338579D02*
G01*
X1220723Y1285239D01*
X1220723Y1338579D02*
G01*
X1220723Y1285239D01*
X1237487Y1338579D02*
G01*
X1237487Y1285239D01*
X1237487Y1338579D02*
G01*
X1255268Y1338579D01*
X1262887Y1336039D01*
X1267968Y1330960D01*
X1270507Y1325879D01*
X1273047Y1318260D01*
X1273047Y1305560D01*
X1270507Y1297939D01*
X1267968Y1292860D01*
X1262887Y1287779D01*
X1255268Y1285239D01*
X1237487Y1285239D01*
X820420Y1397000D02*
G01*
X873760Y1397000D01*
X820420Y1397000D02*
G01*
X820420Y1419860D01*
X822960Y1427479D01*
X825500Y1430020D01*
X830579Y1432560D01*
X835660Y1432560D01*
X840739Y1430020D01*
X843279Y1427479D01*
X845820Y1419860D01*
X845820Y1397000D02*
G01*
X845820Y1419860D01*
X848360Y1427479D01*
X850900Y1430020D01*
X855979Y1432560D01*
X863600Y1432560D01*
X868679Y1430020D01*
X871220Y1427479D01*
X873760Y1419860D01*
X873760Y1397000D01*
X820420Y1449323D02*
G01*
X873760Y1449323D01*
X873760Y1449323D02*
G01*
X873760Y1479804D01*
X820420Y1496568D02*
G01*
X873760Y1496568D01*
X820420Y1532128D02*
G01*
X855979Y1496568D01*
X843279Y1509268D02*
G01*
X873760Y1532128D01*
X2433320Y1435100D02*
G01*
X2428240Y1432560D01*
X2423159Y1427479D01*
X2420620Y1422400D01*
X2420620Y1412239D01*
X2423159Y1407160D01*
X2428240Y1402079D01*
X2433320Y1399539D01*
X2440940Y1397000D01*
X2453640Y1397000D01*
X2461259Y1399539D01*
X2466340Y1402079D01*
X2471420Y1407160D01*
X2473959Y1412239D01*
X2473959Y1422400D01*
X2471420Y1427479D01*
X2466340Y1432560D01*
X2461259Y1435100D01*
X2453640Y1435100D01*
X2453640Y1422400D02*
G01*
X2453640Y1435100D01*
X2420620Y1451863D02*
G01*
X2473959Y1451863D01*
X2420620Y1451863D02*
G01*
X2420620Y1474723D01*
X2423159Y1482344D01*
X2425700Y1484884D01*
X2430779Y1487423D01*
X2435859Y1487423D01*
X2440940Y1484884D01*
X2443479Y1482344D01*
X2446020Y1474723D01*
X2446020Y1451863D01*
X2446020Y1469644D02*
G01*
X2473959Y1487423D01*
X2420620Y1504187D02*
G01*
X2473959Y1504187D01*
X2420620Y1504187D02*
G01*
X2473959Y1539747D01*
X2420620Y1539747D02*
G01*
X2473959Y1539747D01*
X1399539Y1099820D02*
G01*
X1379220Y1046479D01*
X1399539Y1099820D02*
G01*
X1419860Y1046479D01*
X1386839Y1064260D02*
G01*
X1412239Y1064260D01*
X1436623Y1082039D02*
G01*
X1436623Y1046479D01*
X1436623Y1066800D02*
G01*
X1439163Y1074420D01*
X1444244Y1079500D01*
X1449323Y1082039D01*
X1456944Y1082039D01*
X1504187Y1099820D02*
G01*
X1504187Y1046479D01*
X1504187Y1074420D02*
G01*
X1499107Y1079500D01*
X1494028Y1082039D01*
X1486407Y1082039D01*
X1481328Y1079500D01*
X1476247Y1074420D01*
X1473707Y1066800D01*
X1473707Y1061720D01*
X1476247Y1054100D01*
X1481328Y1049020D01*
X1486407Y1046479D01*
X1494028Y1046479D01*
X1499107Y1049020D01*
X1504187Y1054100D01*
X1520952Y1082039D02*
G01*
X1520952Y1056639D01*
X1523492Y1049020D01*
X1528571Y1046479D01*
X1536192Y1046479D01*
X1541271Y1049020D01*
X1548892Y1056639D01*
X1548892Y1082039D02*
G01*
X1548892Y1046479D01*
X1565655Y1099820D02*
G01*
X1568195Y1097279D01*
X1570736Y1099820D01*
X1568195Y1102360D01*
X1565655Y1099820D01*
X1568195Y1082039D02*
G01*
X1568195Y1046479D01*
X1587500Y1082039D02*
G01*
X1587500Y1046479D01*
X1587500Y1071879D02*
G01*
X1595120Y1079500D01*
X1600200Y1082039D01*
X1607820Y1082039D01*
X1612900Y1079500D01*
X1615439Y1071879D01*
X1615439Y1046479D01*
X1644904Y1082039D02*
G01*
X1639823Y1079500D01*
X1634744Y1074420D01*
X1632204Y1066800D01*
X1632204Y1061720D01*
X1634744Y1054100D01*
X1639823Y1049020D01*
X1644904Y1046479D01*
X1652523Y1046479D01*
X1657604Y1049020D01*
X1662684Y1054100D01*
X1665223Y1061720D01*
X1665223Y1066800D01*
X1662684Y1074420D01*
X1657604Y1079500D01*
X1652523Y1082039D01*
X1644904Y1082039D01*
X1721104Y1099820D02*
G01*
X1721104Y1046479D01*
X1721104Y1099820D02*
G01*
X1743963Y1099820D01*
X1751584Y1097279D01*
X1754123Y1094739D01*
X1756663Y1089660D01*
X1756663Y1082039D01*
X1754123Y1076960D01*
X1751584Y1074420D01*
X1743963Y1071879D01*
X1721104Y1071879D01*
X1773428Y1082039D02*
G01*
X1773428Y1046479D01*
X1773428Y1066800D02*
G01*
X1775968Y1074420D01*
X1781047Y1079500D01*
X1786128Y1082039D01*
X1793747Y1082039D01*
X1823212Y1082039D02*
G01*
X1818131Y1079500D01*
X1813052Y1074420D01*
X1810512Y1066800D01*
X1810512Y1061720D01*
X1813052Y1054100D01*
X1818131Y1049020D01*
X1823212Y1046479D01*
X1830831Y1046479D01*
X1835912Y1049020D01*
X1840992Y1054100D01*
X1843531Y1061720D01*
X1843531Y1066800D01*
X1840992Y1074420D01*
X1835912Y1079500D01*
X1830831Y1082039D01*
X1823212Y1082039D01*
X1587500Y1211579D02*
G01*
X1587500Y1158239D01*
X1587500Y1211579D02*
G01*
X1607820Y1158239D01*
X1628139Y1211579D02*
G01*
X1607820Y1158239D01*
X1628139Y1211579D02*
G01*
X1628139Y1158239D01*
X1644904Y1211579D02*
G01*
X1647444Y1209039D01*
X1649984Y1211579D01*
X1647444Y1214120D01*
X1644904Y1211579D01*
X1647444Y1193800D02*
G01*
X1647444Y1158239D01*
X1666747Y1193800D02*
G01*
X1666747Y1158239D01*
X1666747Y1183639D02*
G01*
X1674368Y1191260D01*
X1679447Y1193800D01*
X1687068Y1193800D01*
X1692147Y1191260D01*
X1694687Y1183639D01*
X1694687Y1158239D01*
X1711452Y1211579D02*
G01*
X1713992Y1209039D01*
X1716531Y1211579D01*
X1713992Y1214120D01*
X1711452Y1211579D01*
X1713992Y1193800D02*
G01*
X1713992Y1158239D01*
X7624305Y801115D02*
G01*
X7624305Y692150D01*
X7624305Y801115D02*
G01*
X7671041Y801115D01*
X7686535Y796036D01*
X7691869Y790702D01*
X7696949Y780287D01*
X7696949Y769873D01*
X7691869Y759460D01*
X7686535Y754379D01*
X7671041Y749300D01*
X7624305Y749300D01*
X7660627Y749300D02*
G01*
X7696949Y692150D01*
X7731239Y780287D02*
G01*
X7741653Y785621D01*
X7757401Y801115D01*
X7757401Y692150D01*
X9105900Y801115D02*
G01*
X9105900Y692150D01*
X9105900Y801115D02*
G01*
X9152636Y801115D01*
X9168129Y796036D01*
X9173463Y790702D01*
X9178543Y780287D01*
X9178543Y769873D01*
X9173463Y759460D01*
X9168129Y754379D01*
X9152636Y749300D01*
X9105900Y749300D01*
X9142222Y749300D02*
G01*
X9178543Y692150D01*
X9218168Y775207D02*
G01*
X9218168Y780287D01*
X9223247Y790702D01*
X9228581Y796036D01*
X9238995Y801115D01*
X9259570Y801115D01*
X9269984Y796036D01*
X9275318Y790702D01*
X9280397Y780287D01*
X9280397Y769873D01*
X9275318Y759460D01*
X9264904Y743965D01*
X9212834Y692150D01*
X9285731Y692150D01*
X7611605Y1321815D02*
G01*
X7611605Y1212850D01*
X7611605Y1321815D02*
G01*
X7658341Y1321815D01*
X7673835Y1316736D01*
X7679169Y1311402D01*
X7684249Y1300987D01*
X7684249Y1290573D01*
X7679169Y1280160D01*
X7673835Y1275079D01*
X7658341Y1270000D01*
X7611605Y1270000D01*
X7647927Y1270000D02*
G01*
X7684249Y1212850D01*
X7728953Y1321815D02*
G01*
X7786103Y1321815D01*
X7755115Y1280160D01*
X7770609Y1280160D01*
X7781023Y1275079D01*
X7786103Y1270000D01*
X7791437Y1254252D01*
X7791437Y1243837D01*
X7786103Y1228344D01*
X7775689Y1217929D01*
X7760195Y1212850D01*
X7744701Y1212850D01*
X7728953Y1217929D01*
X7723873Y1223010D01*
X7718539Y1233423D01*
X9161005Y1321815D02*
G01*
X9161005Y1212850D01*
X9161005Y1321815D02*
G01*
X9207741Y1321815D01*
X9223235Y1316736D01*
X9228569Y1311402D01*
X9233649Y1300987D01*
X9233649Y1290573D01*
X9228569Y1280160D01*
X9223235Y1275079D01*
X9207741Y1270000D01*
X9161005Y1270000D01*
X9197327Y1270000D02*
G01*
X9233649Y1212850D01*
X9320009Y1321815D02*
G01*
X9267939Y1249171D01*
X9345917Y1249171D01*
X9320009Y1321815D02*
G01*
X9320009Y1212850D01*
X10592815Y1049794D02*
G01*
X10483850Y1049794D01*
X10592815Y1049794D02*
G01*
X10592815Y1003058D01*
X10587736Y987564D01*
X10582402Y982230D01*
X10571988Y977150D01*
X10561574Y977150D01*
X10551159Y982230D01*
X10546079Y987564D01*
X10541000Y1003058D01*
X10541000Y1049794D01*
X10541000Y1013472D02*
G01*
X10483850Y977150D01*
X10592815Y880376D02*
G01*
X10592815Y932446D01*
X10546079Y937526D01*
X10551159Y932446D01*
X10556493Y916698D01*
X10556493Y901204D01*
X10551159Y885710D01*
X10541000Y875296D01*
X10525252Y869962D01*
X10514838Y869962D01*
X10499343Y875296D01*
X10488929Y885710D01*
X10483850Y901204D01*
X10483850Y916698D01*
X10488929Y932446D01*
X10494009Y937526D01*
X10504424Y942860D01*
X7569200Y1842515D02*
G01*
X7569200Y1733550D01*
X7569200Y1842515D02*
G01*
X7615936Y1842515D01*
X7631429Y1837436D01*
X7636763Y1832102D01*
X7641843Y1821687D01*
X7641843Y1811273D01*
X7636763Y1800860D01*
X7631429Y1795779D01*
X7615936Y1790700D01*
X7569200Y1790700D01*
X7605522Y1790700D02*
G01*
X7641843Y1733550D01*
X7738618Y1827021D02*
G01*
X7733284Y1837436D01*
X7717790Y1842515D01*
X7707375Y1842515D01*
X7691881Y1837436D01*
X7681468Y1821687D01*
X7676134Y1795779D01*
X7676134Y1769871D01*
X7681468Y1749044D01*
X7691881Y1738629D01*
X7707375Y1733550D01*
X7712709Y1733550D01*
X7728204Y1738629D01*
X7738618Y1749044D01*
X7743697Y1764537D01*
X7743697Y1769871D01*
X7738618Y1785365D01*
X7728204Y1795779D01*
X7712709Y1800860D01*
X7707375Y1800860D01*
X7691881Y1795779D01*
X7681468Y1785365D01*
X7676134Y1769871D01*
X9161005Y1829815D02*
G01*
X9161005Y1720850D01*
X9161005Y1829815D02*
G01*
X9207741Y1829815D01*
X9223235Y1824736D01*
X9228569Y1819402D01*
X9233649Y1808987D01*
X9233649Y1798573D01*
X9228569Y1788160D01*
X9223235Y1783079D01*
X9207741Y1778000D01*
X9161005Y1778000D01*
X9197327Y1778000D02*
G01*
X9233649Y1720850D01*
X9340837Y1829815D02*
G01*
X9288767Y1720850D01*
X9267939Y1829815D02*
G01*
X9340837Y1829815D01*
X4538205Y2363215D02*
G01*
X4538205Y2254250D01*
X4538205Y2363215D02*
G01*
X4584941Y2363215D01*
X4600435Y2358136D01*
X4605769Y2352802D01*
X4610849Y2342387D01*
X4610849Y2331973D01*
X4605769Y2321560D01*
X4600435Y2316479D01*
X4584941Y2311400D01*
X4538205Y2311400D01*
X4574527Y2311400D02*
G01*
X4610849Y2254250D01*
X4671301Y2363215D02*
G01*
X4655553Y2358136D01*
X4650473Y2347721D01*
X4650473Y2337307D01*
X4655553Y2326894D01*
X4665967Y2321560D01*
X4686795Y2316479D01*
X4702289Y2311400D01*
X4712703Y2300986D01*
X4718037Y2290571D01*
X4718037Y2274823D01*
X4712703Y2264410D01*
X4707623Y2259329D01*
X4691875Y2254250D01*
X4671301Y2254250D01*
X4655553Y2259329D01*
X4650473Y2264410D01*
X4645139Y2274823D01*
X4645139Y2290571D01*
X4650473Y2300986D01*
X4660887Y2311400D01*
X4676381Y2316479D01*
X4697209Y2321560D01*
X4707623Y2326894D01*
X4712703Y2337307D01*
X4712703Y2347721D01*
X4707623Y2358136D01*
X4691875Y2363215D01*
X4671301Y2363215D01*
X6087605Y2363215D02*
G01*
X6087605Y2254250D01*
X6087605Y2363215D02*
G01*
X6134341Y2363215D01*
X6149835Y2358136D01*
X6155169Y2352802D01*
X6160249Y2342387D01*
X6160249Y2331973D01*
X6155169Y2321560D01*
X6149835Y2316479D01*
X6134341Y2311400D01*
X6087605Y2311400D01*
X6123927Y2311400D02*
G01*
X6160249Y2254250D01*
X6262103Y2326894D02*
G01*
X6257023Y2311400D01*
X6246609Y2300986D01*
X6231115Y2295652D01*
X6225781Y2295652D01*
X6210287Y2300986D01*
X6199873Y2311400D01*
X6194539Y2326894D01*
X6194539Y2331973D01*
X6199873Y2347721D01*
X6210287Y2358136D01*
X6225781Y2363215D01*
X6231115Y2363215D01*
X6246609Y2358136D01*
X6257023Y2347721D01*
X6262103Y2326894D01*
X6262103Y2300986D01*
X6257023Y2274823D01*
X6246609Y2259329D01*
X6231115Y2254250D01*
X6220701Y2254250D01*
X6204953Y2259329D01*
X6199873Y2269744D01*
X7518400Y2375915D02*
G01*
X7518400Y2266950D01*
X7518400Y2375915D02*
G01*
X7565136Y2375915D01*
X7580629Y2370836D01*
X7585963Y2365502D01*
X7591043Y2355087D01*
X7591043Y2344673D01*
X7585963Y2334260D01*
X7580629Y2329179D01*
X7565136Y2324100D01*
X7518400Y2324100D01*
X7554722Y2324100D02*
G01*
X7591043Y2266950D01*
X7625334Y2355087D02*
G01*
X7635747Y2360421D01*
X7651495Y2375915D01*
X7651495Y2266950D01*
X7685786Y2355087D02*
G01*
X7696200Y2360421D01*
X7711693Y2375915D01*
X7711693Y2266950D01*
X5753100Y597915D02*
G01*
X5753100Y519937D01*
X5758179Y504444D01*
X5768593Y494029D01*
X5784341Y488950D01*
X5794756Y488950D01*
X5810250Y494029D01*
X5820663Y504444D01*
X5825743Y519937D01*
X5825743Y597915D01*
X5870447Y597915D02*
G01*
X5927597Y597915D01*
X5896609Y556260D01*
X5912104Y556260D01*
X5922518Y551179D01*
X5927597Y546100D01*
X5932931Y530352D01*
X5932931Y519937D01*
X5927597Y504444D01*
X5917184Y494029D01*
X5901690Y488950D01*
X5886195Y488950D01*
X5870447Y494029D01*
X5865368Y499110D01*
X5860034Y509523D01*
D10*
X4176016Y-1273035D02*
G01*
X4168396Y-1277099D01*
X4160522Y-1284719D01*
X4156712Y-1292339D01*
X4152902Y-1304023D01*
X4152902Y-1323327D01*
X4156712Y-1335011D01*
X4160522Y-1342631D01*
X4168396Y-1350505D01*
X4176016Y-1354315D01*
X4191510Y-1354315D01*
X4199384Y-1350505D01*
X4207004Y-1342631D01*
X4210814Y-1335011D01*
X4214624Y-1323327D01*
X4214624Y-1304023D01*
X4210814Y-1292339D01*
X4207004Y-1284719D01*
X4199384Y-1277099D01*
X4191510Y-1273035D01*
X4176016Y-1273035D01*
X4240278Y-1273035D02*
G01*
X4240278Y-1330947D01*
X4244088Y-1342631D01*
X4251708Y-1350505D01*
X4263392Y-1354315D01*
X4271012Y-1354315D01*
X4282696Y-1350505D01*
X4290570Y-1342631D01*
X4294380Y-1330947D01*
X4294380Y-1273035D01*
X4346958Y-1273035D02*
G01*
X4346958Y-1354315D01*
X4319780Y-1273035D02*
G01*
X4373882Y-1273035D01*
X3886202Y-1273035D02*
G01*
X3886202Y-1354315D01*
X3886202Y-1273035D02*
G01*
X3936494Y-1273035D01*
X3886202Y-1311643D02*
G01*
X3917190Y-1311643D01*
X3961894Y-1273035D02*
G01*
X3961894Y-1354315D01*
X3961894Y-1273035D02*
G01*
X4015996Y-1354315D01*
X4015996Y-1273035D02*
G01*
X4015996Y-1354315D01*
X4099562Y-1292339D02*
G01*
X4095498Y-1284719D01*
X4087878Y-1277099D01*
X4080258Y-1273035D01*
X4064764Y-1273035D01*
X4056890Y-1277099D01*
X4049270Y-1284719D01*
X4045460Y-1292339D01*
X4041396Y-1304023D01*
X4041396Y-1323327D01*
X4045460Y-1335011D01*
X4049270Y-1342631D01*
X4056890Y-1350505D01*
X4064764Y-1354315D01*
X4080258Y-1354315D01*
X4087878Y-1350505D01*
X4095498Y-1342631D01*
X4099562Y-1335011D01*
X3677414Y-1292339D02*
G01*
X3673604Y-1284719D01*
X3665984Y-1277099D01*
X3658110Y-1273035D01*
X3642616Y-1273035D01*
X3634996Y-1277099D01*
X3627122Y-1284719D01*
X3623312Y-1292339D01*
X3619502Y-1304023D01*
X3619502Y-1323327D01*
X3623312Y-1335011D01*
X3627122Y-1342631D01*
X3634996Y-1350505D01*
X3642616Y-1354315D01*
X3658110Y-1354315D01*
X3665984Y-1350505D01*
X3673604Y-1342631D01*
X3677414Y-1335011D01*
X3703068Y-1273035D02*
G01*
X3703068Y-1354315D01*
X3703068Y-1354315D02*
G01*
X3749296Y-1354315D01*
X3774696Y-1273035D02*
G01*
X3774696Y-1354315D01*
X3828798Y-1273035D02*
G01*
X3774696Y-1327137D01*
X3794254Y-1307833D02*
G01*
X3828798Y-1354315D01*
X3365502Y-1273035D02*
G01*
X3365502Y-1354315D01*
X3365502Y-1273035D02*
G01*
X3392426Y-1273035D01*
X3404110Y-1277099D01*
X3411984Y-1284719D01*
X3415794Y-1292339D01*
X3419604Y-1304023D01*
X3419604Y-1323327D01*
X3415794Y-1335011D01*
X3411984Y-1342631D01*
X3404110Y-1350505D01*
X3392426Y-1354315D01*
X3365502Y-1354315D01*
X3475992Y-1273035D02*
G01*
X3445004Y-1354315D01*
X3475992Y-1273035D02*
G01*
X3506980Y-1354315D01*
X3456688Y-1327137D02*
G01*
X3495296Y-1327137D01*
X3559558Y-1273035D02*
G01*
X3559558Y-1354315D01*
X3532380Y-1273035D02*
G01*
X3586482Y-1273035D01*
X3169414Y-1292339D02*
G01*
X3165604Y-1284719D01*
X3157984Y-1277099D01*
X3150110Y-1273035D01*
X3134616Y-1273035D01*
X3126996Y-1277099D01*
X3119122Y-1284719D01*
X3115312Y-1292339D01*
X3111502Y-1304023D01*
X3111502Y-1323327D01*
X3115312Y-1335011D01*
X3119122Y-1342631D01*
X3126996Y-1350505D01*
X3134616Y-1354315D01*
X3150110Y-1354315D01*
X3157984Y-1350505D01*
X3165604Y-1342631D01*
X3169414Y-1335011D01*
X3169414Y-1323327D01*
X3150110Y-1323327D02*
G01*
X3169414Y-1323327D01*
X3195068Y-1273035D02*
G01*
X3195068Y-1354315D01*
X3195068Y-1273035D02*
G01*
X3249170Y-1354315D01*
X3249170Y-1273035D02*
G01*
X3249170Y-1354315D01*
X3274570Y-1273035D02*
G01*
X3274570Y-1354315D01*
X3274570Y-1273035D02*
G01*
X3301494Y-1273035D01*
X3313178Y-1277099D01*
X3320798Y-1284719D01*
X3324862Y-1292339D01*
X3328672Y-1304023D01*
X3328672Y-1323327D01*
X3324862Y-1335011D01*
X3320798Y-1342631D01*
X3313178Y-1350505D01*
X3301494Y-1354315D01*
X3274570Y-1354315D01*
X2832102Y-1273035D02*
G01*
X2863090Y-1354315D01*
X2893824Y-1273035D02*
G01*
X2863090Y-1354315D01*
X2977390Y-1292339D02*
G01*
X2973580Y-1284719D01*
X2965706Y-1277099D01*
X2958086Y-1273035D01*
X2942592Y-1273035D01*
X2934972Y-1277099D01*
X2927098Y-1284719D01*
X2923288Y-1292339D01*
X2919478Y-1304023D01*
X2919478Y-1323327D01*
X2923288Y-1335011D01*
X2927098Y-1342631D01*
X2934972Y-1350505D01*
X2942592Y-1354315D01*
X2958086Y-1354315D01*
X2965706Y-1350505D01*
X2973580Y-1342631D01*
X2977390Y-1335011D01*
X3060956Y-1292339D02*
G01*
X3056892Y-1284719D01*
X3049272Y-1277099D01*
X3041398Y-1273035D01*
X3026158Y-1273035D01*
X3018284Y-1277099D01*
X3010664Y-1284719D01*
X3006854Y-1292339D01*
X3002790Y-1304023D01*
X3002790Y-1323327D01*
X3006854Y-1335011D01*
X3010664Y-1342631D01*
X3018284Y-1350505D01*
X3026158Y-1354315D01*
X3041398Y-1354315D01*
X3049272Y-1350505D01*
X3056892Y-1342631D01*
X3060956Y-1335011D01*
X2578102Y-1273035D02*
G01*
X2578102Y-1354315D01*
X2578102Y-1273035D02*
G01*
X2612900Y-1273035D01*
X2624584Y-1277099D01*
X2628394Y-1280909D01*
X2632204Y-1288529D01*
X2632204Y-1296403D01*
X2628394Y-1304023D01*
X2624584Y-1307833D01*
X2612900Y-1311643D01*
X2578102Y-1311643D01*
X2605026Y-1311643D02*
G01*
X2632204Y-1354315D01*
X2657604Y-1273035D02*
G01*
X2657604Y-1354315D01*
X2657604Y-1273035D02*
G01*
X2707896Y-1273035D01*
X2657604Y-1311643D02*
G01*
X2688592Y-1311643D01*
X2657604Y-1354315D02*
G01*
X2707896Y-1354315D01*
X2733296Y-1273035D02*
G01*
X2733296Y-1354315D01*
X2733296Y-1273035D02*
G01*
X2783588Y-1273035D01*
X2733296Y-1311643D02*
G01*
X2764284Y-1311643D01*
D13*
X3644902Y470928D02*
G01*
X3644902Y392950D01*
X3649982Y377456D01*
X3660396Y367042D01*
X3676144Y361962D01*
X3686558Y361962D01*
X3702052Y367042D01*
X3712466Y377456D01*
X3717546Y392950D01*
X3717546Y470928D01*
X3824734Y470928D02*
G01*
X3772664Y361962D01*
X3751836Y470928D02*
G01*
X3824734Y470928D01*
X2538984Y1066800D02*
G01*
X2616961Y1066800D01*
X2632456Y1071879D01*
X2642870Y1082294D01*
X2647950Y1098042D01*
X2647950Y1108455D01*
X2642870Y1123950D01*
X2632456Y1134363D01*
X2616961Y1139444D01*
X2538984Y1139444D01*
X2538984Y1199895D02*
G01*
X2544063Y1184147D01*
X2554477Y1179068D01*
X2564891Y1179068D01*
X2575306Y1184147D01*
X2580640Y1194562D01*
X2585720Y1215389D01*
X2590800Y1230884D01*
X2601213Y1241297D01*
X2611627Y1246631D01*
X2627375Y1246631D01*
X2637790Y1241297D01*
X2642870Y1236218D01*
X2647950Y1220470D01*
X2647950Y1199895D01*
X2642870Y1184147D01*
X2637790Y1179068D01*
X2627375Y1173734D01*
X2611627Y1173734D01*
X2601213Y1179068D01*
X2590800Y1189481D01*
X2585720Y1204976D01*
X2580640Y1225804D01*
X2575306Y1236218D01*
X2564891Y1241297D01*
X2554477Y1241297D01*
X2544063Y1236218D01*
X2538984Y1220470D01*
X2538984Y1199895D01*
D14*
X4279900Y582929D02*
G01*
X4279900Y704342D01*
X4279900Y582929D02*
G01*
X4227829Y582929D01*
X4210558Y588771D01*
X4204970Y594613D01*
X4199127Y606044D01*
X4199127Y617728D01*
X4204970Y629157D01*
X4210558Y635000D01*
X4227829Y640842D01*
X4279900Y640842D01*
X4239513Y640842D02*
G01*
X4199127Y704342D01*
X4132072Y623570D02*
G01*
X4143756Y629157D01*
X4155186Y640842D01*
X4161027Y658113D01*
X4161027Y669544D01*
X4155186Y687070D01*
X4143756Y698500D01*
X4132072Y704342D01*
X4114800Y704342D01*
X4103370Y698500D01*
X4091686Y687070D01*
X4085843Y669544D01*
X4085843Y658113D01*
X4091686Y640842D01*
X4103370Y629157D01*
X4114800Y623570D01*
X4132072Y623570D01*
X4030472Y582929D02*
G01*
X4030472Y681228D01*
X4024629Y698500D01*
X4013200Y704342D01*
X4001770Y704342D01*
X4047743Y623570D02*
G01*
X4007358Y623570D01*
X3894327Y623570D02*
G01*
X3894327Y704342D01*
X3894327Y640842D02*
G01*
X3905758Y629157D01*
X3917441Y623570D01*
X3934713Y623570D01*
X3946143Y629157D01*
X3957827Y640842D01*
X3963670Y658113D01*
X3963670Y669544D01*
X3957827Y687070D01*
X3946143Y698500D01*
X3934713Y704342D01*
X3917441Y704342D01*
X3905758Y698500D01*
X3894327Y687070D01*
X3856227Y623570D02*
G01*
X3856227Y704342D01*
X3856227Y658113D02*
G01*
X3850386Y640842D01*
X3838956Y629157D01*
X3827272Y623570D01*
X3810000Y623570D01*
X3766058Y623570D02*
G01*
X3731513Y704342D01*
X3696970Y623570D02*
G01*
X3731513Y704342D01*
X3742943Y727455D01*
X3754627Y738886D01*
X3766058Y744728D01*
X3771900Y744728D01*
X3569970Y582929D02*
G01*
X3569970Y704342D01*
X3569970Y582929D02*
G01*
X3494786Y582929D01*
X3569970Y640842D02*
G01*
X3523741Y640842D01*
X3569970Y704342D02*
G01*
X3494786Y704342D01*
X3456686Y623570D02*
G01*
X3456686Y704342D01*
X3456686Y646429D02*
G01*
X3439413Y629157D01*
X3427729Y623570D01*
X3410458Y623570D01*
X3399027Y629157D01*
X3393186Y646429D01*
X3393186Y704342D01*
X3285743Y640842D02*
G01*
X3297427Y629157D01*
X3308858Y623570D01*
X3326129Y623570D01*
X3337813Y629157D01*
X3349243Y640842D01*
X3355086Y658113D01*
X3355086Y669544D01*
X3349243Y687070D01*
X3337813Y698500D01*
X3326129Y704342D01*
X3308858Y704342D01*
X3297427Y698500D01*
X3285743Y687070D01*
X3218941Y623570D02*
G01*
X3230372Y629157D01*
X3242056Y640842D01*
X3247643Y658113D01*
X3247643Y669544D01*
X3242056Y687070D01*
X3230372Y698500D01*
X3218941Y704342D01*
X3201670Y704342D01*
X3189986Y698500D01*
X3178556Y687070D01*
X3172713Y669544D01*
X3172713Y658113D01*
X3178556Y640842D01*
X3189986Y629157D01*
X3201670Y623570D01*
X3218941Y623570D01*
X3065272Y582929D02*
G01*
X3065272Y704342D01*
X3065272Y640842D02*
G01*
X3076956Y629157D01*
X3088386Y623570D01*
X3105658Y623570D01*
X3117341Y629157D01*
X3128772Y640842D01*
X3134613Y658113D01*
X3134613Y669544D01*
X3128772Y687070D01*
X3117341Y698500D01*
X3105658Y704342D01*
X3088386Y704342D01*
X3076956Y698500D01*
X3065272Y687070D01*
X3027172Y658113D02*
G01*
X2957829Y658113D01*
X2957829Y646429D01*
X2963672Y635000D01*
X2969513Y629157D01*
X2980943Y623570D01*
X2998470Y623570D01*
X3009900Y629157D01*
X3021329Y640842D01*
X3027172Y658113D01*
X3027172Y669544D01*
X3021329Y687070D01*
X3009900Y698500D01*
X2998470Y704342D01*
X2980943Y704342D01*
X2969513Y698500D01*
X2957829Y687070D01*
X2919729Y623570D02*
G01*
X2919729Y704342D01*
X2919729Y658113D02*
G01*
X2914141Y640842D01*
X2902458Y629157D01*
X2891027Y623570D01*
X2873756Y623570D01*
X3189986Y1407413D02*
G01*
X3178556Y1401571D01*
X3166872Y1390142D01*
X3161029Y1378457D01*
X3161029Y1355344D01*
X3166872Y1343913D01*
X3178556Y1332229D01*
X3189986Y1326642D01*
X3207258Y1320800D01*
X3236213Y1320800D01*
X3253486Y1326642D01*
X3265170Y1332229D01*
X3276600Y1343913D01*
X3282441Y1355344D01*
X3282441Y1378457D01*
X3276600Y1390142D01*
X3265170Y1401571D01*
X3253486Y1407413D01*
X3236213Y1407413D01*
X3236213Y1378457D02*
G01*
X3236213Y1407413D01*
X3161029Y1445513D02*
G01*
X3282441Y1445513D01*
X3161029Y1445513D02*
G01*
X3282441Y1526286D01*
X3161029Y1526286D02*
G01*
X3282441Y1526286D01*
X3161029Y1564386D02*
G01*
X3282441Y1564386D01*
X3161029Y1564386D02*
G01*
X3161029Y1604771D01*
X3166872Y1622044D01*
X3178556Y1633728D01*
X3189986Y1639570D01*
X3207258Y1645157D01*
X3236213Y1645157D01*
X3253486Y1639570D01*
X3265170Y1633728D01*
X3276600Y1622044D01*
X3282441Y1604771D01*
X3282441Y1564386D01*
X3389629Y1320800D02*
G01*
X3511041Y1367028D01*
X3389629Y1413255D02*
G01*
X3511041Y1367028D01*
X3418586Y1537970D02*
G01*
X3407156Y1532128D01*
X3395472Y1520444D01*
X3389629Y1509013D01*
X3389629Y1485900D01*
X3395472Y1474470D01*
X3407156Y1462786D01*
X3418586Y1456944D01*
X3435858Y1451355D01*
X3464813Y1451355D01*
X3482086Y1456944D01*
X3493770Y1462786D01*
X3505200Y1474470D01*
X3511041Y1485900D01*
X3511041Y1509013D01*
X3505200Y1520444D01*
X3493770Y1532128D01*
X3482086Y1537970D01*
X3418586Y1662429D02*
G01*
X3407156Y1656842D01*
X3395472Y1645157D01*
X3389629Y1633728D01*
X3389629Y1610613D01*
X3395472Y1598929D01*
X3407156Y1587500D01*
X3418586Y1581657D01*
X3435858Y1576070D01*
X3464813Y1576070D01*
X3482086Y1581657D01*
X3493770Y1587500D01*
X3505200Y1598929D01*
X3511041Y1610613D01*
X3511041Y1633728D01*
X3505200Y1645157D01*
X3493770Y1656842D01*
X3482086Y1662429D01*
X3661156Y1401571D02*
G01*
X3649472Y1390142D01*
X3643629Y1372870D01*
X3643629Y1349755D01*
X3649472Y1332229D01*
X3661156Y1320800D01*
X3672586Y1320800D01*
X3684270Y1326642D01*
X3689858Y1332229D01*
X3695700Y1343913D01*
X3707129Y1378457D01*
X3712972Y1390142D01*
X3718813Y1395729D01*
X3730243Y1401571D01*
X3747770Y1401571D01*
X3759200Y1390142D01*
X3765041Y1372870D01*
X3765041Y1349755D01*
X3759200Y1332229D01*
X3747770Y1320800D01*
X3643629Y1439671D02*
G01*
X3765041Y1468628D01*
X3643629Y1497329D02*
G01*
X3765041Y1468628D01*
X3643629Y1497329D02*
G01*
X3765041Y1526286D01*
X3643629Y1555242D02*
G01*
X3765041Y1526286D01*
X3923029Y1320800D02*
G01*
X4044441Y1320800D01*
X3923029Y1320800D02*
G01*
X3923029Y1361186D01*
X3928872Y1378457D01*
X3940556Y1390142D01*
X3951986Y1395729D01*
X3969258Y1401571D01*
X3998213Y1401571D01*
X4015486Y1395729D01*
X4027170Y1390142D01*
X4038600Y1378457D01*
X4044441Y1361186D01*
X4044441Y1320800D01*
X3923029Y1480057D02*
G01*
X4044441Y1480057D01*
X3923029Y1439671D02*
G01*
X3923029Y1520444D01*
X4180586Y1407413D02*
G01*
X4169156Y1401571D01*
X4157472Y1390142D01*
X4151629Y1378457D01*
X4151629Y1355344D01*
X4157472Y1343913D01*
X4169156Y1332229D01*
X4180586Y1326642D01*
X4197858Y1320800D01*
X4226813Y1320800D01*
X4244086Y1326642D01*
X4255770Y1332229D01*
X4267200Y1343913D01*
X4273041Y1355344D01*
X4273041Y1378457D01*
X4267200Y1390142D01*
X4255770Y1401571D01*
X4244086Y1407413D01*
X4151629Y1445513D02*
G01*
X4273041Y1445513D01*
X4273041Y1445513D02*
G01*
X4273041Y1514855D01*
X4151629Y1552955D02*
G01*
X4273041Y1552955D01*
X4151629Y1633728D02*
G01*
X4232656Y1552955D01*
X4203700Y1581657D02*
G01*
X4273041Y1633728D01*
D16*
X10381703Y215900D02*
G01*
X10134600Y215900D01*
X10134600Y-901700D02*
G01*
X10134600Y215900D01*
X10388600Y203200D02*
G01*
X10388600Y215900D01*
X10553700Y215900D01*
X10553700Y-914400D01*
X10553700Y-914400D02*
G01*
X10134600Y-914400D01*
X10388600Y-50800D02*
G01*
X10388600Y-914400D01*
X9093200Y218089D02*
G01*
X9093200Y-924910D01*
X10109200Y-924910D01*
X10109200Y-924910D02*
G01*
X10109200Y218089D01*
X9093200Y218089D01*
X10109200Y12700D02*
G01*
X9093200Y12700D01*
X9396674Y-1117600D02*
G01*
X9396674Y-939800D01*
X8890000Y-1117600D02*
G01*
X8890000Y-939800D01*
X10261600Y-939800D01*
X10261600Y-1117600D01*
X8890000Y-1117600D02*
G01*
X8890000Y-1676400D01*
X10261600Y-1676400D01*
X10261600Y-1168400D01*
X10261600Y-1117600D01*
X10210800Y-1117600D01*
X8890000Y-1117600D01*
X7493000Y-609600D02*
G01*
X7493000Y-482600D01*
X8318500Y215900D02*
G01*
X8293100Y215900D01*
X9067800Y215900D01*
X9067800Y-609600D01*
X8293100Y-609600D01*
X8293100Y-596900D01*
X8293100Y-514985D02*
G01*
X8293100Y210185D01*
X7493000Y215900D02*
G01*
X7493000Y215900D01*
X8267700Y215900D01*
X8267700Y-609600D01*
X7493000Y-609600D01*
X8286750Y50800D02*
G01*
X9061450Y50800D01*
X7493000Y-482600D02*
G01*
X7493000Y215900D01*
X7512050Y50800D02*
G01*
X8286750Y50800D01*
X6692900Y-469900D02*
G01*
X6692900Y215900D01*
X7467600Y215900D01*
X7467600Y-609600D01*
X6699250Y50800D02*
G01*
X7473950Y50800D01*
X8293100Y-596900D02*
G01*
X8293100Y-469900D01*
X7467600Y-609600D02*
G01*
X6692900Y-609600D01*
X6692900Y-469900D01*
X5448300Y635000D02*
G01*
X6629400Y635000D01*
X6629400Y1562100D01*
X5448300Y1562100D01*
X5448300Y1371600D01*
X6692900Y-635000D02*
G01*
X6692900Y-1676400D01*
X8864600Y-1676400D01*
X8864600Y-635000D01*
X6692900Y-635000D01*
X8026400Y-863600D02*
G01*
X8864600Y-863600D01*
X7518400Y-863600D02*
G01*
X6692900Y-863600D01*
X8026400Y-1371600D02*
G01*
X8864600Y-1371600D01*
X7518400Y-1371600D02*
G01*
X6692900Y-1371600D01*
X5956300Y1231900D02*
G01*
X5956300Y980442D01*
X5956300Y1231900D02*
G01*
X5956300Y1562100D01*
X5956300Y980442D02*
G01*
X6629400Y980442D01*
X5448300Y1371600D02*
G01*
X5448300Y635000D01*
X4381500Y520700D02*
G01*
X4381500Y1663700D01*
X5422900Y1663700D01*
X5422900Y508000D01*
X4381500Y508000D01*
X4381500Y1457820D02*
G01*
X5422900Y1457820D01*
D10*
X10109200Y-315310D02*
G01*
X10109200Y-569310D01*
X9093200Y-569310D01*
X9093200Y-315310D01*
X9283700Y-315310D01*
D17*
X10109200Y-315310D02*
G01*
X9283700Y-315310D01*
D16*
X9613887Y2070100D02*
G01*
X9690087Y2070100D01*
X8699487Y2070100D02*
G01*
X8623287Y2070100D01*
X8706700Y2235098D02*
G01*
X9606699Y2235098D01*
X9606699Y1905101D01*
X8706700Y1905101D01*
X8706700Y2235098D01*
X3619487Y1860052D02*
G01*
X3619487Y1778000D01*
X3060687Y1778000D01*
X3060687Y1860052D01*
X3060687Y2026147D02*
G01*
X3060687Y2108200D01*
X3619487Y2108200D01*
X3619487Y2026147D01*
X3314687Y1943100D02*
G01*
X3238487Y1943100D01*
X3314687Y1854200D02*
G01*
X3314687Y2032000D01*
X3365487Y1943100D02*
G01*
X3441687Y1943100D01*
X3365487Y2032000D02*
G01*
X3365487Y1854200D01*
X3060712Y2546847D02*
G01*
X3060712Y2628900D01*
X3619512Y2628900D01*
X3619512Y2546847D01*
X3619512Y2380752D02*
G01*
X3619512Y2298700D01*
X3060712Y2298700D01*
X3060712Y2380752D01*
X3365512Y2463800D02*
G01*
X3441712Y2463800D01*
X3365512Y2552700D02*
G01*
X3365512Y2374900D01*
X3314712Y2463800D02*
G01*
X3238512Y2463800D01*
X3314712Y2374900D02*
G01*
X3314712Y2552700D01*
X2096569Y2459126D02*
G01*
X2551630Y2459126D01*
X2613786Y2266061D02*
G01*
X2613786Y2051938D01*
X2544439Y1869236D02*
G01*
X2103760Y1869236D01*
X2033930Y2052081D02*
G01*
X2033930Y2265918D01*
X1446730Y1858873D02*
G01*
X991669Y1858873D01*
X929512Y2051938D02*
G01*
X929512Y2266061D01*
X998860Y2448763D02*
G01*
X1439539Y2448763D01*
X1509369Y2265918D02*
G01*
X1509369Y2052081D01*
D10*
X5410200Y1117600D02*
G01*
X5410200Y863600D01*
X4394200Y863600D01*
X4394200Y1117600D01*
X4584700Y1117600D01*
D17*
X5410200Y1117600D02*
G01*
X4584700Y1117600D01*
D10*
X5956300Y1231900D02*
G01*
X5956300Y980439D01*
X5448300Y980439D01*
X5448300Y1231900D01*
X5956300Y1231900D01*
X9398000Y-1117600D02*
G01*
X9398000Y-1369060D01*
X8890000Y-1369060D01*
X8890000Y-1117600D01*
X9398000Y-1117600D01*
D16*
X7518400Y-863600D02*
G01*
X8026400Y-863600D01*
X8026400Y-1371600D01*
X7518400Y-1371600D01*
X7518400Y-863600D01*
D10*
X7213600Y-76200D02*
G01*
X7467600Y-76200D01*
X7467600Y-327660D01*
X6705600Y-327660D01*
X6705600Y-76200D01*
X7213600Y-76200D01*
X8001000Y-76200D02*
G01*
X8255000Y-76200D01*
X8255000Y-327660D01*
X7493000Y-327660D01*
X7493000Y-76200D01*
X8001000Y-76200D01*
X8801100Y-63500D02*
G01*
X9055100Y-63500D01*
X9055100Y-314960D01*
X8293100Y-314960D01*
X8293100Y-63500D01*
X8801100Y-63500D01*
X10134600Y-38100D02*
G01*
X10134600Y215900D01*
X10388600Y215900D01*
X10388600Y-38100D01*
X10198100Y-38100D01*
D17*
X10134600Y-38100D02*
G01*
X10198100Y-38100D01*
D18*
X723900Y1625600D02*
G01*
X723900Y-1676400D01*
X2501900Y-1676400D01*
X2501900Y1625600D01*
X723900Y1625600D01*
D16*
X8089887Y495300D02*
G01*
X8166087Y495300D01*
X7175487Y495300D02*
G01*
X7099287Y495300D01*
X7182700Y660298D02*
G01*
X8082699Y660298D01*
X8082699Y330301D01*
X7182700Y330301D01*
X7182700Y660298D01*
X9626587Y495300D02*
G01*
X9702787Y495300D01*
X8712187Y495300D02*
G01*
X8635987Y495300D01*
X8719400Y660298D02*
G01*
X9619399Y660298D01*
X9619399Y330301D01*
X8719400Y330301D01*
X8719400Y660298D01*
X8077187Y1016000D02*
G01*
X8153387Y1016000D01*
X7162787Y1016000D02*
G01*
X7086587Y1016000D01*
X7170000Y1180998D02*
G01*
X8069999Y1180998D01*
X8069999Y851001D01*
X7170000Y851001D01*
X7170000Y1180998D01*
X9626587Y1016000D02*
G01*
X9702787Y1016000D01*
X8712187Y1016000D02*
G01*
X8635987Y1016000D01*
X8719400Y1180998D02*
G01*
X9619399Y1180998D01*
X9619399Y851001D01*
X8719400Y851001D01*
X8719400Y1180998D01*
X10287000Y584212D02*
G01*
X10287000Y508012D01*
X10287000Y1498612D02*
G01*
X10287000Y1574812D01*
X10451998Y1491399D02*
G01*
X10451998Y591400D01*
X10122001Y591400D01*
X10122001Y1491399D01*
X10451998Y1491399D01*
X7162812Y1524000D02*
G01*
X7086612Y1524000D01*
X8077212Y1524000D02*
G01*
X8153412Y1524000D01*
X8069999Y1359001D02*
G01*
X7170000Y1359001D01*
X7170000Y1688998D01*
X8069999Y1688998D01*
X8069999Y1359001D01*
X9626587Y1524000D02*
G01*
X9702787Y1524000D01*
X8712187Y1524000D02*
G01*
X8635987Y1524000D01*
X8719400Y1688998D02*
G01*
X9619399Y1688998D01*
X9619399Y1359001D01*
X8719400Y1359001D01*
X8719400Y1688998D01*
X5003787Y2057400D02*
G01*
X5079987Y2057400D01*
X4089387Y2057400D02*
G01*
X4013187Y2057400D01*
X4096600Y2222398D02*
G01*
X4996599Y2222398D01*
X4996599Y1892401D01*
X4096600Y1892401D01*
X4096600Y2222398D01*
X6553187Y2057400D02*
G01*
X6629387Y2057400D01*
X5638787Y2057400D02*
G01*
X5562587Y2057400D01*
X5646000Y2222398D02*
G01*
X6545999Y2222398D01*
X6545999Y1892401D01*
X5646000Y1892401D01*
X5646000Y2222398D01*
X7162812Y2070100D02*
G01*
X7086612Y2070100D01*
X8077212Y2070100D02*
G01*
X8153412Y2070100D01*
X8069999Y1905101D02*
G01*
X7170000Y1905101D01*
X7170000Y2235098D01*
X8069999Y2235098D01*
X8069999Y1905101D01*
X5415279Y-1409700D02*
G01*
X5415279Y-1249679D01*
X5415279Y-1249679D02*
G01*
X5534659Y-1249679D01*
X6096000Y-1249679D02*
G01*
X5976620Y-1249679D01*
X6096000Y-1409700D02*
G01*
X6096000Y-1249679D01*
X5415279Y-1678939D02*
G01*
X6096000Y-1678939D01*
X5534659Y-1249679D02*
G01*
X5534659Y-1389379D01*
X5534659Y-1389379D02*
G01*
X5976620Y-1389379D01*
X5976620Y-1389379D02*
G01*
X5976620Y-1249679D01*
X2520292Y326910D02*
G01*
X4820287Y326910D01*
X4820287Y-1673085D01*
X2520292Y-1673085D01*
X2520292Y326910D01*
D19*
X4013304Y-63512D02*
G01*
X4813302Y-63512D01*
X4813302Y-863511D01*
X4013304Y-863511D01*
X4013304Y-63512D01*
D20*
X2705100Y1270000D02*
G01*
X2705100Y508000D01*
X4356100Y508000D01*
X4356100Y1270000D01*
X2705100Y1270000D01*
D16*
G75*
G01
X2494534Y2163826D02*
G03X2494534Y2163826I-175006J0D01*
G75*
G01
X2394458Y2163826D02*
G03X2394458Y2163826I-74930J0D01*
G75*
G01
X1398778Y2154174D02*
G03X1398778Y2154174I-175006J0D01*
G75*
G01
X1298702Y2154174D02*
G03X1298702Y2154174I-74930J0D01*
G75*
G01
X952500Y-787400D02*
G03X952500Y-787400I-101600J0D01*
G75*
G01
X952500Y-533400D02*
G03X952500Y-533400I-101600J0D01*
G75*
G01
X952500Y-25400D02*
G03X952500Y-25400I-101600J0D01*
G75*
G01
X952500Y-1549400D02*
G03X952500Y-1549400I-101600J0D01*
G75*
G01
X2476500Y-1549400D02*
G03X2476500Y-1549400I-101600J0D01*
G75*
G01
X2476500Y-1295400D02*
G03X2476500Y-1295400I-101600J0D01*
G75*
G01
X4762500Y-1358900D02*
G03X4762500Y-1358900I-165100J0D01*
G75*
G01
X4783201Y-241325D02*
G03X4783201Y-241325I-135001J0D01*
G75*
G01
X4783201Y-685825D02*
G03X4783201Y-685825I-135001J0D01*
G75*
G01
X4313301Y-241325D02*
G03X4313301Y-241325I-135001J0D01*
G75*
G01
X4313301Y-685825D02*
G03X4313301Y-685825I-135001J0D01*
G75*
G01
X4541901Y-469925D02*
G03X4541901Y-469925I-135001J0D01*
M02*
