G04 Layer: TopLayer*
G04 EasyEDA v6.5.51, 2025-10-23 01:57:06*
G04 64fcacbd124c4bd19f57d9140681f8df,69758d36ea3442baaf275648ad48867e,10*
G04 Gerber Generator version 0.2*
G04 Scale: 100 percent, Rotated: No, Reflected: No *
G04 Dimensions in millimeters *
G04 leading zeros omitted , absolute positions ,4 integer and 5 decimal *
%FSLAX45Y45*%
%MOMM*%

%ADD10C,0.2540*%
%ADD11R,1.5748X1.5748*%
%ADD12C,1.5748*%
%ADD13C,1.5240*%
%ADD14C,1.3000*%
%ADD15C,2.0000*%
%ADD16C,0.0115*%
%ADD17R,1.5240X1.5240*%
%ADD18C,1.8796*%
%ADD19R,2.5400X2.5400*%
%ADD20O,1.107948X2.215896*%
%ADD21C,0.6100*%

%LPD*%
D10*
X3733800Y-1473212D02*
G01*
X3047974Y-787387D01*
X2374900Y-787387D01*
X850900Y228612D02*
G01*
X1231900Y609612D01*
X3568700Y609612D01*
X3975100Y1016012D01*
X4229100Y1016012D02*
G01*
X3568827Y355739D01*
X2266543Y355739D01*
X2152116Y241312D01*
X1117600Y241312D01*
X850900Y-25387D01*
X850900Y-279387D02*
G01*
X1873910Y-279387D01*
X2254910Y101612D01*
X2525598Y101612D01*
X2537409Y89801D01*
X4279493Y89801D01*
X5066538Y876846D01*
X7872247Y876846D01*
X8519413Y1524012D01*
X850900Y-1041387D02*
G01*
X1485900Y-406387D01*
X3903675Y-406387D01*
X5112511Y802449D01*
X9398050Y802449D01*
X10287000Y1691398D01*
X3721100Y1016012D02*
G01*
X3508629Y803541D01*
X2733319Y803541D01*
X2374900Y-533387D02*
G01*
X2431440Y-589927D01*
X9749281Y-589927D01*
X9855200Y-484009D01*
X9855200Y-397471D01*
X10234929Y-17741D01*
X10261600Y-17741D01*
X10261600Y88912D02*
G01*
X10261600Y-17741D01*
X8270011Y2070112D02*
G01*
X8158734Y2181390D01*
X6869988Y2181390D01*
X6746011Y2057412D01*
X4434992Y1911108D02*
G01*
X9432315Y1911108D01*
X9819411Y1524012D01*
X9819411Y1524012D02*
G01*
X9156420Y861021D01*
X8016697Y861021D01*
X8338515Y621118D02*
G01*
X9383166Y621118D01*
X9628504Y375780D01*
X10271379Y375780D01*
X10287000Y391401D01*
X2374900Y-1041387D02*
G01*
X2234895Y-901382D01*
X2234895Y-735723D01*
X2310231Y-660387D01*
X7315200Y-660387D01*
X7645400Y-990587D01*
X5146014Y-1523987D02*
G01*
X5425414Y-1244587D01*
X7645400Y-1244587D01*
X4991100Y-1523987D02*
G01*
X5146014Y-1523987D01*
X850900Y-1295387D02*
G01*
X977900Y-1422387D01*
X2450211Y-1422387D01*
X2608706Y-1580883D01*
X4779289Y-1580883D01*
X4836185Y-1523987D01*
X4991100Y-1523987D02*
G01*
X4836185Y-1523987D01*
X4991100Y279412D02*
G01*
X5146014Y279412D01*
X8674100Y-190487D02*
G01*
X8534603Y-50990D01*
X5476417Y-50990D01*
X5146014Y279412D01*
X7899400Y-1244587D02*
G01*
X9017000Y-1244587D01*
X2576296Y228688D02*
G01*
X4267276Y228688D01*
X5029200Y990612D01*
X2561666Y148374D02*
G01*
X2515692Y194348D01*
X2515692Y253885D01*
X2553995Y292188D01*
X4076776Y292188D01*
X4775200Y990612D01*
X8519388Y495312D02*
G01*
X8282711Y495312D01*
X8282711Y495312D02*
G01*
X8036966Y741057D01*
X5681827Y741057D01*
X5164963Y1221498D02*
G01*
X3246196Y1221498D01*
X2753029Y1714665D01*
X1763547Y1714665D01*
X1544193Y1934019D01*
X8519413Y1016012D02*
G01*
X8270011Y1016012D01*
X1999106Y2384005D02*
G01*
X2199893Y2183218D01*
X4080052Y2183218D01*
X4416094Y1847176D01*
X8350554Y1847176D01*
X8636736Y1560995D01*
X8636736Y1133335D01*
X8519413Y1016012D01*
X6970013Y1016012D02*
G01*
X6952081Y998080D01*
X5471236Y998080D01*
X4948554Y1520761D01*
X3512464Y1520761D01*
X3090113Y1943112D01*
X7086600Y-203187D02*
G01*
X6979767Y-310019D01*
X5771768Y-310019D01*
X5571312Y-109562D01*
X5283200Y990612D02*
G01*
X5101539Y1172273D01*
X3623360Y1172273D01*
X3467100Y1016012D01*
X894206Y2384005D02*
G01*
X1135786Y2142426D01*
X2440686Y2142426D01*
X2649093Y1934019D01*
X2649093Y1934019D02*
G01*
X2754401Y2039327D01*
X3493897Y2039327D01*
X3590112Y1943112D01*
X6970013Y1524012D02*
G01*
X6074384Y1524012D01*
X5681954Y1131582D01*
X5681954Y1104912D01*
X5575300Y1104912D02*
G01*
X5681954Y1104912D01*
X9819386Y495312D02*
G01*
X9819386Y1015987D01*
X9819411Y1016012D01*
X850900Y482612D02*
G01*
X1231900Y863612D01*
X3060700Y863612D01*
X3213100Y1016012D01*
X9806711Y2070112D02*
G01*
X9688499Y1951901D01*
X7088225Y1951901D01*
X6970013Y2070112D01*
X8128000Y-203187D02*
G01*
X8260130Y-335318D01*
X9621215Y-335318D01*
X9728200Y-442302D01*
X7340600Y-203187D02*
G01*
X7686547Y-549135D01*
X9367367Y-549135D01*
X9474200Y-442302D01*
D11*
G01*
X9220200Y-442315D03*
D12*
G01*
X9474200Y-442315D03*
G01*
X9728200Y-442315D03*
G01*
X9982200Y-442315D03*
D13*
G01*
X9806711Y2070100D03*
G01*
X8506688Y2070100D03*
D14*
G01*
X3590112Y1943100D03*
G01*
X3090113Y1943100D03*
G01*
X3090087Y2463800D03*
G01*
X3590086Y2463800D03*
D15*
G01*
X1999106Y2383993D03*
G01*
X2649093Y2383993D03*
G01*
X2649093Y1934006D03*
G01*
X1999106Y1934006D03*
G01*
X1544193Y1934006D03*
G01*
X894206Y1934006D03*
G01*
X894206Y2383993D03*
G01*
X1544193Y2383993D03*
D11*
G01*
X4521200Y990600D03*
D12*
G01*
X4775200Y990600D03*
G01*
X5029200Y990600D03*
G01*
X5283200Y990600D03*
D11*
G01*
X5575300Y1104900D03*
D12*
G01*
X5829300Y1104900D03*
D11*
G01*
X9017000Y-1244600D03*
D12*
G01*
X9271000Y-1244600D03*
D17*
G01*
X7645400Y-1244600D03*
D13*
G01*
X7645400Y-990600D03*
G01*
X7899400Y-1244600D03*
G01*
X7899400Y-990600D03*
D11*
G01*
X6832600Y-203200D03*
D12*
G01*
X7086600Y-203200D03*
G01*
X7340600Y-203200D03*
D11*
G01*
X7620000Y-203200D03*
D12*
G01*
X7874000Y-203200D03*
G01*
X8128000Y-203200D03*
D11*
G01*
X8420100Y-190500D03*
D12*
G01*
X8674100Y-190500D03*
G01*
X8928100Y-190500D03*
D11*
G01*
X10261600Y88900D03*
D18*
G01*
X850900Y-1549400D03*
G01*
X850900Y-1295400D03*
G01*
X850900Y-1041400D03*
G01*
X850900Y-787400D03*
G01*
X850900Y-533400D03*
G01*
X850900Y-279400D03*
G01*
X850900Y-25400D03*
G01*
X850900Y228600D03*
G01*
X850900Y482600D03*
G01*
X850900Y736600D03*
G01*
X850900Y990600D03*
G01*
X850900Y1244600D03*
G01*
X2247900Y1498600D03*
G01*
X1993900Y1498600D03*
G01*
X1739900Y1498600D03*
G01*
X1485900Y1498600D03*
G01*
X1231900Y1498600D03*
G01*
X977900Y1498600D03*
G01*
X2374900Y1244600D03*
G01*
X2374900Y990600D03*
G01*
X2374900Y736600D03*
G01*
X2374900Y482600D03*
G01*
X2374900Y228600D03*
G01*
X2374900Y-25400D03*
G01*
X2374900Y-279400D03*
G01*
X2374900Y-533400D03*
G01*
X2374900Y-787400D03*
G01*
X2374900Y-1041400D03*
G01*
X2374900Y-1295400D03*
G01*
X2374900Y-1549400D03*
G01*
X2082800Y114300D03*
G01*
X2082800Y368300D03*
G01*
X2082800Y-927100D03*
G01*
X2082800Y-673100D03*
D13*
G01*
X8282711Y495300D03*
G01*
X6982713Y495300D03*
G01*
X9819386Y495300D03*
G01*
X8519388Y495300D03*
G01*
X8270011Y1016000D03*
G01*
X6970013Y1016000D03*
G01*
X9819411Y1016000D03*
G01*
X8519413Y1016000D03*
G01*
X10287000Y391388D03*
G01*
X10287000Y1691386D03*
G01*
X6970013Y1524000D03*
G01*
X8270011Y1524000D03*
G01*
X9819411Y1524000D03*
G01*
X8519413Y1524000D03*
G01*
X5196611Y2057400D03*
G01*
X3896613Y2057400D03*
G01*
X6746011Y2057400D03*
G01*
X5446013Y2057400D03*
G01*
X6970013Y2070100D03*
G01*
X8270011Y2070100D03*
D19*
G01*
X4991100Y-1524000D03*
G01*
X6515100Y-1524000D03*
G01*
X4991100Y279400D03*
G01*
X6515100Y279400D03*
D13*
G01*
X4241800Y-1473225D03*
G01*
X3987800Y-1473225D03*
G01*
X3733800Y-1473225D03*
G01*
X3479800Y-1473225D03*
G01*
X3225800Y-1473225D03*
G01*
X2971800Y-1473225D03*
G01*
X2717800Y-1473225D03*
D20*
G01*
X3213100Y1016000D03*
G01*
X3467100Y1016000D03*
G01*
X3721100Y1016000D03*
G01*
X3975100Y1016000D03*
G01*
X4229100Y1016000D03*
D21*
G01*
X5571312Y-109575D03*
G01*
X5164963Y1221486D03*
G01*
X5681827Y741045D03*
G01*
X2561666Y148361D03*
G01*
X2576296Y228676D03*
G01*
X8338515Y621106D03*
G01*
X8016697Y861009D03*
G01*
X4434992Y1911095D03*
G01*
X2733319Y803529D03*
M02*
